<svg width="142" height="178" viewBox="0 0 142 178" fill="none" xmlns="http://www.w3.org/2000/svg">
<rect x="107.955" y="1.66553" width="33.8669" height="33.786" fill="#FFD31A" fill-opacity="0.2"/>
<rect x="69.9799" y="0.616699" width="20.7438" height="19.8795" fill="#FFD31A" fill-opacity="0.2"/>
<rect x="42.5494" y="55.6147" width="13.4219" height="13.8927" fill="#FFD31A" fill-opacity="0.5"/>
<rect x="25.4305" y="72.1931" width="13.4219" height="13.8927" fill="#FFD31A" fill-opacity="0.5"/>
<rect x="15.2625" y="72.9797" width="7.07151" height="7.19548" fill="#FFD31A" fill-opacity="0.5"/>
<rect x="44.1334" y="27.6978" width="19.8524" height="19.8709" fill="#FFD31A" fill-opacity="0.2"/>
<rect x="67.0427" y="55.6147" width="21.9156" height="22.8473" fill="#FFD31A" fill-opacity="0.5"/>
<rect x="88.9582" y="57.322" width="9.89325" height="10.4564" fill="#FFD31A" fill-opacity="0.2"/>
<rect x="55.1883" y="92.8298" width="5.61455" height="5.6145" fill="#FFD31A" fill-opacity="0.5"/>
<rect x="73.0645" y="82.6978" width="5.61455" height="6.77619" fill="#FFD31A" fill-opacity="0.5"/>
<rect x="82.6802" y="82.6978" width="6.27796" height="6.77619" fill="#FFD31A" fill-opacity="0.5"/>
<rect x="79.1649" y="90.8777" width="19.7186" height="19.5788" fill="#FFD31A" fill-opacity="0.2"/>
<rect x="67.0427" y="104.765" width="21.9155" height="21.6196" fill="#FFD31A" fill-opacity="0.5"/>
<rect x="131.415" y="166.699" width="10.4071" height="10.9177" fill="#FFD31A" fill-opacity="0.2"/>
<rect x="134.204" y="153.878" width="7.61811" height="7.8137" fill="#FFD31A" fill-opacity="0.2"/>
<rect x="107.959" y="76.4456" width="33.8627" height="34.3677" fill="#FFD31A" fill-opacity="0.2"/>
<rect x="27.0666" y="27.6978" width="11.7857" height="10.8639" fill="#FFD31A" fill-opacity="0.2"/>
<rect x="0.00543213" y="55.6147" width="5.79411" height="6.05749" fill="#FFD31A" fill-opacity="0.5"/>
<rect x="4.29401" y="0.616699" width="7.56138" height="7.87417" fill="#FFD31A" fill-opacity="0.2"/>
<rect x="115.993" y="42.6863" width="10.776" height="9.86853" fill="#FFD31A" fill-opacity="0.2"/>
<rect x="132.244" y="42.6863" width="9.57781" height="9.57781" fill="#FFD31A" fill-opacity="0.2"/>
</svg>
