<svg width="142" height="178" viewBox="0 0 142 178" fill="none" xmlns="http://www.w3.org/2000/svg">
<rect x="108.013" y="1.45337" width="33.8669" height="33.786" fill="#DBD3DE" fill-opacity="0.5"/>
<rect x="70.0377" y="0.404541" width="20.7438" height="19.8795" fill="#DBD3DE" fill-opacity="0.5"/>
<rect x="42.6072" y="55.4026" width="13.4219" height="13.8927" fill="#DAD3DE"/>
<rect x="25.4883" y="71.981" width="13.4219" height="13.8927" fill="#DAD3DE"/>
<rect x="15.3203" y="72.7676" width="7.07151" height="7.19548" fill="#DAD3DE"/>
<rect x="44.1912" y="27.4856" width="19.8524" height="19.8709" fill="#DBD3DE" fill-opacity="0.5"/>
<rect x="67.1005" y="55.4026" width="21.9156" height="22.8473" fill="#DAD3DE"/>
<rect x="89.016" y="57.1099" width="9.89325" height="10.4564" fill="#DBD3DE" fill-opacity="0.5"/>
<rect x="55.2461" y="92.6177" width="5.61455" height="5.6145" fill="#DAD3DE"/>
<rect x="73.1223" y="82.4856" width="5.61455" height="6.77619" fill="#DAD3DE"/>
<rect x="82.738" y="82.4856" width="6.27796" height="6.77619" fill="#DAD3DE"/>
<rect x="79.2227" y="90.6655" width="19.7186" height="19.5788" fill="#DBD3DE" fill-opacity="0.5"/>
<rect x="67.1005" y="104.553" width="21.9155" height="21.6196" fill="#DAD3DE"/>
<rect x="131.472" y="166.487" width="10.4071" height="10.9177" fill="#DBD3DE" fill-opacity="0.5"/>
<rect x="134.261" y="153.666" width="7.61811" height="7.8137" fill="#DBD3DE" fill-opacity="0.5"/>
<rect x="108.017" y="76.2334" width="33.8627" height="34.3677" fill="#DBD3DE" fill-opacity="0.5"/>
<rect x="27.1244" y="27.4856" width="11.7857" height="10.8639" fill="#DBD3DE" fill-opacity="0.5"/>
<rect x="0.0632324" y="55.4026" width="5.79411" height="6.05749" fill="#DAD3DE"/>
<rect x="4.35181" y="0.404541" width="7.56138" height="7.87417" fill="#DBD3DE" fill-opacity="0.5"/>
<rect x="116.051" y="42.4741" width="10.776" height="9.86853" fill="#DBD3DE" fill-opacity="0.5"/>
<rect x="132.302" y="42.4741" width="9.57781" height="9.57781" fill="#DBD3DE" fill-opacity="0.5"/>
</svg>
