<svg xmlns="http://www.w3.org/2000/svg" xmlns:xlink="http://www.w3.org/1999/xlink" viewBox="0 0 1463.39 277.69"><defs><style>.cls-1{fill:#ffd31a;}.cls-2{fill:url(#linear-gradient);}.cls-3,.cls-4{fill:#fff;}.cls-4{font-size:94.7px;font-family:Poppins-Bold, Poppins;font-weight:700;}.cls-5{font-size:47.35px;font-family:Poppins-Regular, Poppins;letter-spacing:0.5em;}</style><linearGradient id="linear-gradient" x1="286.82" y1="164.64" x2="260.15" y2="179.32" gradientUnits="userSpaceOnUse"><stop offset="0" stop-opacity="0.7"/><stop offset="1" stop-color="#fff" stop-opacity="0"/></linearGradient></defs><g id="Layer_2" data-name="Layer 2"><g id="Layer_1-2" data-name="Layer 1"><path class="cls-1" d="M425.65,230.18H373.21l-19.13-33.11-7.8-13.53L320.56,139l-.08-.15.08-.13,26.07-45.18,7.45-12.9,19.13-33.11h51.72L452.41,0H345.77L326.63,33.15l-7.44,12.92L293.13,91.19,240.47,0H80.16L0,138.84,80.16,277.69H240.47l52.66-91.19L318.83,231l7.8,13.53,19.14,33.14H453.13Zm-212.6,0H107.58L54.85,138.84l52.73-91.32H213.05L265.7,139l0,0-8.31,14.32-2,3.43Z"/><polygon class="cls-2" points="293.09 186.41 282.8 204.14 255.41 157.01 255.48 156.86 255.41 156.73 257.39 153.3 265.71 138.99 272.12 150.07 272.16 150.15 293.09 186.41"/><polygon class="cls-3" points="506.1 0 468.03 0 440.56 47.51 478.67 47.51 531.4 138.85 478.67 230.18 440.56 230.18 468.03 277.69 506.1 277.69 586.26 138.85 506.1 0"/><text class="cls-4" transform="translate(666.26 137.46)">OWAF’S CORNER</text><rect class="cls-1" x="666.26" y="146.93" width="797.13" height="63.14" rx="10"/><text class="cls-5" transform="translate(700.8 193.88)">MOBILE SOLUTION</text></g></g></svg>