<?xml version="1.0" encoding="UTF-8"?>
<svg id="Layer_1" xmlns="http://www.w3.org/2000/svg" viewBox="0 0 460 500">
  <defs>
    <style>
      .cls-1 {
        fill: #e8ac54;
      }

      .cls-2 {
        fill: #ccff83;
      }

      .cls-3 {
        fill: #4d4a52;
      }

      .cls-4 {
        fill: #116530;
      }

      .cls-5 {
        fill: #98c1f5;
      }

      .cls-6 {
        fill: #95d821;
      }

      .cls-7 {
        fill: #d2edff;
      }

      .cls-8 {
        fill: #919191;
      }

      .cls-9 {
        opacity: .1;
      }

      .cls-10 {
        fill: #eaeaea;
      }

      .cls-11 {
        fill: #c1272d;
        font-family: CalisMTBol, 'Calisto MT';
        font-size: 26.69px;
      }
    </style>
  </defs>
  <g>
    <rect class="cls-3" x="70.55" y="436.57" width="79.24" height="36.77" transform="translate(220.35 909.9) rotate(180)"/>
    <rect class="cls-10" x=".15" y="310.73" width="220.04" height="142.79" transform="translate(220.35 764.24) rotate(180)"/>
    <polygon points="220.2 453.52 229.1 453.52 229.1 315.99 220.2 310.73 220.2 453.52"/>
    <rect class="cls-8" x=".15" y="310.73" width="220.04" height="10.25" transform="translate(220.35 631.7) rotate(180)"/>
    <rect class="cls-4" x="33.73" y="320.98" width="4.85" height="132.54"/>
    <rect class="cls-4" x="23.48" y="320.98" width="4.85" height="132.54"/>
    <g class="cls-9">
      <path d="M220.2,310.73s-5.26,91.59-51.37,103.84C122.71,426.82.15,436.08.15,436.08v17.43h220.04v-142.79Z"/>
    </g>
    <path class="cls-4" d="M237.62,308.55v145h55.39v-105.22h57.86s-10.14-15.79-35.72-27.34c-25.67-11.64-77.53-12.44-77.53-12.44Z"/>
    <path class="cls-4" d="M258.26,348.33v105.22h129.83s.18-3.53.18-8.91c0-5.82-.18-13.67-1.06-21.43-.62-6.88-1.76-13.58-3.62-18.61,0-.09-.09-.18-.09-.26-4.76-12.52-21.79-39.34-29.19-50.72-2.12-3.26-3.44-5.29-3.44-5.29h-92.61Z"/>
    <path d="M345.23,353.62l22.93,40.13c2.65,4.59,6.97,8.03,12.08,9.61l3.26.97c-.26-.62-.44-1.23-.79-1.85-5.38-12.79-20.37-36.51-27.7-47.8-.26-.35-.53-.71-.71-1.06h-9.08Z"/>
    <g>
      <path class="cls-1" d="M372.31,414.57l14.91,8.64c.52,4.58.78,9.14.92,13.35l-15.82-9.04v-12.95Z"/>
      <path d="M388.13,436.57c.1,2.92.14,5.7.14,8.08h-15.96v-17.12l15.82,9.04Z"/>
    </g>
    <path class="cls-3" d="M293.01,439.92h64.99v33.93c0,1.57-1.27,2.84-2.84,2.84h-59.73c-1.33,0-2.41-1.08-2.41-2.41v-34.36h0Z" transform="translate(651 916.61) rotate(180)"/>
    <path d="M388.09,453.55v23.83h-30.1s3.17-36.51-30.61-36.81c-35.39-.32-33.25,35.78-33.25,35.78l.67,4.38-96.99.62v-7.75h-53.66s1.21-33.03-31.55-33.03-30.74,32.76-30.74,32.76H.15v-19.82h79.28s5.66-18.61,33.98-18.61,31.55,18.64,31.55,18.64h148.04s4.92-18.64,34.18-18.64,32.97,18.61,32.97,18.61l27.94.04Z"/>
    <g>
      <g>
        <circle cx="326.16" cy="472.81" r="27.19"/>
        <circle class="cls-3" cx="326.16" cy="472.81" r="15.65"/>
        <path d="M316.91,472.78c0,5.12,4.15,9.26,9.26,9.26,3.18,0,6-1.59,7.59-4.06v-.09c1.06-1.5,1.59-3.26,1.59-5.12,0-5.03-4.06-9.17-9.17-9.17-2.12,0-4.06.71-5.64,1.94v.09c-2.21,1.59-3.62,4.23-3.62,7.14Z"/>
        <path class="cls-8" d="M318.94,470.66c0,5.12,4.15,9.26,9.26,9.26,2.12,0,4.06-.71,5.56-1.94v-.09c1.06-1.5,1.59-3.26,1.59-5.12,0-5.03-4.06-9.17-9.17-9.17-2.12,0-4.06.71-5.64,1.94v.09c-1.06,1.41-1.59,3.18-1.59,5.03Z"/>
      </g>
      <path class="cls-8" d="M348.15,482.03c9.84-24.58-19.38-43.73-38.71-26.09-2.09,2.3-3.7,4.98-4.43,7.88,2.81-5.32,7.72-8.79,13.12-10.3,18.35-5.87,33.58,10.24,30.03,28.51h0Z"/>
    </g>
    <g>
      <g>
        <circle cx="112.64" cy="472.81" r="27.19"/>
        <circle class="cls-3" cx="112.64" cy="472.81" r="15.65"/>
        <path d="M103.4,472.78c0,5.12,4.15,9.26,9.26,9.26,3.18,0,6-1.59,7.59-4.06v-.09c1.06-1.5,1.59-3.26,1.59-5.12,0-5.03-4.06-9.17-9.17-9.17-2.12,0-4.06.71-5.64,1.94v.09c-2.21,1.59-3.62,4.23-3.62,7.14Z"/>
        <path class="cls-8" d="M105.43,470.66c0,5.12,4.15,9.26,9.26,9.26,2.12,0,4.06-.71,5.56-1.94v-.09c1.06-1.5,1.59-3.26,1.59-5.12,0-5.03-4.06-9.17-9.17-9.17-2.12,0-4.06.71-5.64,1.94v.09c-1.06,1.41-1.59,3.18-1.59,5.03Z"/>
      </g>
      <path class="cls-8" d="M134.63,482.03c9.84-24.58-19.38-43.73-38.71-26.09-2.09,2.3-3.7,4.98-4.43,7.88,2.81-5.32,7.72-8.79,13.12-10.3,18.35-5.87,33.58,10.24,30.03,28.51h0Z"/>
    </g>
    <g>
      <path class="cls-7" d="M348.23,354.68h6.79c3.96,6.11,10.15,15.86,15.87,25.55l-16.04-13.84-6.63-11.71Z"/>
      <path class="cls-5" d="M370.89,380.23c4.85,8.21,9.36,16.39,11.82,22.25l-1.5-.44c-4.85-1.5-8.91-4.76-11.38-9.17l-14.98-26.48,16.04,13.84Z"/>
    </g>
    <path class="cls-6" d="M237.62,308.55v16.76c58.65-2.73,89.53,23.02,89.53,23.02h23.73s-10.14-15.79-35.72-27.34c-25.67-11.64-77.53-12.44-77.53-12.44Z"/>
    <path class="cls-6" d="M265.1,449.27h25.48c.47,0,.85-.36.88-.83.05-.82,1.64-20.03,34.04-20.03s33.9,14.11,33.91,14.26c.04.47.44.74.92.81.47-.02.84-.4.84-.88v-45.97c0-.19-.06-.37-.18-.53l-37.02-49.89c-.16-.22-.43-.35-.71-.35h-58.37c-.23,0-.46.09-.62.26-.16.16-.26.39-.26.62l.2,101.66c0,.49.4.88.88.88ZM289.81,447.51h-23.84l-.2-99.9h57.05l36.58,49.3v41.09c-3.05-4.7-11.35-11.35-33.91-11.35-30.27,0-35,16.88-35.69,20.86Z"/>
    <g>
      <path d="M322.5,353.33l30.2,41.54c1,1.81-.54,3.97-2.58,3.61l-78.28-.25c-1.17-.21-2.02-1.23-2.02-2.41v-41.29c0-1.36,1.1-2.45,2.45-2.45h48.08c.89,0,1.71.48,2.15,1.26Z"/>
      <g>
        <path class="cls-7" d="M273.69,353.59h45.79c.79,0,1.52.43,1.9,1.12l25.93,36.1-75.52-35.7c.3-.84.96-1.51,1.9-1.51Z"/>
        <path class="cls-5" d="M347.31,390.81l2.73,3.85c.45.81-.24,1.77-1.15,1.6l-75.58.23c-1.04-.19-1.79-1.09-1.79-2.14l.27-38.19c0-.26-.08-.83,0-1.06l75.52,35.7Z"/>
      </g>
    </g>
    <rect class="cls-2" x="276.52" y="405.79" width="14.87" height="5.26" rx=".22" ry=".22" transform="translate(567.9 816.83) rotate(180)"/>
  </g>
  <g>
    <g>
      <text class="cls-11" transform="translate(314.8 22.53)"><tspan x="0" y="0">N</tspan></text>
      <text class="cls-11" transform="translate(318.13 282.85)"><tspan x="0" y="0">S</tspan></text>
    </g>
    <g>
      <text class="cls-11" transform="translate(442.05 153.23)"><tspan x="0" y="0">E</tspan></text>
      <text class="cls-11" transform="translate(182.6 153.23)"><tspan x="0" y="0">W</tspan></text>
    </g>
    <path class="cls-4" d="M288.71,170.36c-2.51-3.41-4.55-7.17-6.03-11.2-1.73-4.68-2.71-9.7-2.8-14.95-.01-.28-.01-.54-.01-.82s0-.56.01-.83h-5.34c-.01.28-.01.56-.01.83s0,.54.01.82c.07,4.71.79,9.27,2.07,13.58,1.88,6.39,5,12.28,9.06,17.36.35.46.73.91,1.11,1.35l2.99-4.74c-.36-.46-.72-.93-1.07-1.4ZM311.54,186.83c-.62-.19-1.23-.41-1.84-.63-4-1.47-7.74-3.5-11.12-5.98-1.68-1.23-3.26-2.56-4.75-3.99h0c-.38-.38-.77-.78-1.16-1.16l-3.76,3.76c.37.39.76.79,1.15,1.16h.01c1.17,1.15,2.41,2.24,3.7,3.27,5.07,4.05,10.92,7.14,17.29,9.02.6.18,1.2.34,1.8.5l-1.33-5.95ZM360.95,106.81s0-.02-.01-.02c-1.17-1.13-2.39-2.21-3.67-3.23-5.07-4.06-10.94-7.16-17.33-9.05-.6-.18-1.21-.34-1.81-.5l1.33,5.94c.62.2,1.24.42,1.85.64,4.01,1.48,7.76,3.52,11.16,6.02,1.65,1.22,3.22,2.54,4.71,3.97,0,0,.01,0,.01.01.38.37.78.76,1.16,1.15l3.77-3.77c-.38-.39-.77-.78-1.16-1.15ZM376.46,142.58v-.02c-.07-4.73-.79-9.3-2.08-13.62-1.89-6.38-4.99-12.25-9.04-17.32-.36-.45-.73-.89-1.1-1.32l-3,4.74c.36.46.72.93,1.07,1.4,2.49,3.38,4.52,7.13,6,11.14,1.74,4.69,2.72,9.73,2.82,14.99v.02c.01.27.01.54.01.81s0,.54-.01.82h5.34c.01-.28.01-.54.01-.82s0-.54-.01-.81ZM368.95,157.37c-.19.62-.41,1.23-.64,1.83-1.47,4-3.5,7.75-6,11.15-1.22,1.67-2.54,3.23-3.97,4.72-.01.01-.02.03-.03.04l-1.13,1.13,3.76,3.76c.38-.36.77-.74,1.13-1.13.02-.01.03-.02.04-.03,1.13-1.17,2.22-2.39,3.25-3.67,4.05-5.07,7.15-10.94,9.04-17.33.18-.6.34-1.2.5-1.8l-5.95,1.35ZM353.86,179.12c-.46.36-.93.72-1.4,1.07-3.38,2.49-7.12,4.52-11.12,5.99-4.69,1.75-9.74,2.74-15.01,2.83h-.03c-.26.01-.52.01-.79.01s-.56,0-.83-.01v5.34c.28.01.56.01.83.01s.52,0,.79-.01h.03c4.73-.07,9.3-.79,13.63-2.08,6.37-1.89,12.23-4.99,17.31-9.04.46-.36.9-.73,1.33-1.11l-4.74-2.99ZM290.06,106.79c-.39.38-.77.76-1.15,1.15,0,0-.01,0-.01.01-1.13,1.16-2.2,2.39-3.22,3.66-4.06,5.08-7.16,10.94-9.05,17.34-.18.6-.35,1.2-.5,1.8l5.94-1.33c.2-.62.41-1.23.64-1.84,1.48-4.01,3.52-7.77,6.02-11.17,1.21-1.64,2.53-3.21,3.95-4.69,0-.01.01-.01.01-.02.39-.39.78-.78,1.16-1.15l-3.78-3.77ZM325.51,92.42c-.28,0-.56,0-.83.01-4.71.07-9.27.79-13.58,2.06-6.39,1.89-12.28,5-17.36,9.06-.46.36-.9.73-1.33,1.11l4.74,3c.46-.36.93-.73,1.4-1.07,3.41-2.51,7.16-4.55,11.19-6.03,4.68-1.73,9.7-2.7,14.95-2.8.28-.01.56-.01.83-.01s.56,0,.82.01v-5.34c-.28-.01-.54-.01-.82-.01Z"/>
    <path class="cls-4" d="M315.7,205.35c-.6-.09-1.18-.19-1.76-.3-11.64-2.18-22.15-7.57-30.58-15.21-.54-.5-1.09-1.01-1.61-1.54h-.01c-.39-.38-.78-.77-1.15-1.16l-1.48,1.48,1.15-1.81c-.39-.41-.79-.83-1.17-1.25-7.68-8.44-13.09-18.98-15.26-30.64-.65-3.48-1.01-7.06-1.06-10.71-.01-.27-.01-.54-.01-.82s0-.56.01-.83h-4.76c-.01.28-.01.56-.01.83s0,.54.01.82c.03,3.26.3,6.45.79,9.58,2.14,13.78,8.47,26.21,17.66,35.92.61.66,1.26,1.31,1.91,1.95,0,.01.01.01.01.01.27.27.54.53.82.79,9.7,9.16,22.11,15.48,35.88,17.63.58.09,1.15.17,1.74.25l-1.12-4.99ZM392.99,142.58s.01-.01,0-.02c-.03-3.27-.31-6.48-.8-9.62-2.15-13.77-8.47-26.18-17.65-35.87-.61-.66-1.25-1.32-1.91-1.94,0-.02-.01-.02-.01-.02-.26-.26-.52-.51-.79-.76-9.7-9.18-22.12-15.51-35.9-17.65-.58-.1-1.16-.18-1.75-.26l1.12,4.98c.59.09,1.17.19,1.76.3,11.65,2.18,22.18,7.59,30.62,15.26.53.49,1.07.99,1.58,1.49.01,0,.01.02.01.02.39.37.78.76,1.16,1.15l1.47-1.47-1.14,1.81c.39.41.78.82,1.16,1.24,7.65,8.43,13.06,18.95,15.23,30.59.66,3.49,1.02,7.08,1.07,10.75,0,0,.01.01,0,.02.01.27.01.54.01.81s0,.56-.01.82h4.76c.01-.28.01-.54.01-.82s0-.54-.01-.81ZM387.47,153.19c-.09.59-.19,1.16-.3,1.75-2.18,11.65-7.58,22.17-15.25,30.61-.49.53-.99,1.07-1.51,1.59-.01.02-.03.03-.04.04-.37.38-.75.76-1.13,1.12l1.48,1.48-1.81-1.15c-.41.39-.83.79-1.25,1.17-8.43,7.65-18.95,13.07-30.59,15.23-3.49.66-7.08,1.03-10.75,1.07-.01.01-.02.01-.03,0-.26.01-.52.01-.79.01s-.56,0-.83-.01v4.77c.28.01.56.01.83.01s.52,0,.79-.01c.01.01.02.01.03,0,3.27-.03,6.48-.31,9.62-.8,13.77-2.15,26.18-8.48,35.88-17.65.66-.62,1.3-1.25,1.91-1.89.03-.01.04-.03.04-.04.27-.26.52-.52.77-.79,9.17-9.7,15.5-22.12,17.65-35.9.09-.58.17-1.15.25-1.74l-4.98,1.12ZM325.51,75.89c-.28,0-.56,0-.83.01-3.25.03-6.44.3-9.57.79-13.78,2.14-26.21,8.47-35.92,17.66-.66.61-1.32,1.26-1.95,1.91-.01,0-.01.01-.01.01-.26.26-.5.51-.75.78-9.18,9.7-15.51,22.12-17.66,35.9-.1.59-.18,1.17-.26,1.77l.09-.02c.05-.01.11-.03.15-.05l4.74-1.07c.09-.59.19-1.17.31-1.76,2.18-11.65,7.58-22.17,15.26-30.62.49-.53.98-1.06,1.48-1.57,0-.01.01-.01.01-.01.38-.38.76-.77,1.15-1.15l-1.47-1.47,1.81,1.14c.41-.39.82-.78,1.24-1.16,8.44-7.68,18.98-13.09,30.65-15.26,3.47-.65,7.05-1.01,10.7-1.06.28-.01.56-.01.83-.01s.56,0,.82.01v-4.76c-.28-.01-.54-.01-.82-.01Z"/>
    <g>
      <polygon class="cls-4" points="304.44 123.47 303.95 123.97 294.8 126.03 294.62 125.75 276.35 96.87 273.78 92.8 304.44 123.47"/>
      <path class="cls-4" d="M308.13,112.66l-.98-.62-8.6-5.44-4.8-3.04-10.41-6.58-4.14-2.63-4.3-2.72c-.35-.22-.82-.15-1.09.18-.25.3-.23.72-.01,1.01,0,0,0,.01.01.01.01.02.02.02.03.04l.03.03,15.04,15.04,3.77,3.78,11.1,11.1.09.09.12.12.46.46.1.1c.15.16.36.23.57.23h.06c.2-.01.38-.09.53-.23l.17-.16.34-.33s.05-.06.07-.1c.07-.09.13-.2.15-.31l2.06-9.16c.07-.34-.06-.69-.36-.88ZM282.09,98.14l10.31,6.52,4.74,3,9.61,6.07-1.78,7.94-11.12-11.12-3.78-3.77-8.32-8.32-1.47-1.47,1.81,1.14Z"/>
      <polygon class="cls-4" points="308.01 174.26 307.88 174.34 279.21 192.47 274.77 195.28 278.37 191.68 305.45 164.6 305.95 165.09 308.01 174.26"/>
      <path class="cls-4" d="M305.64,164.08l-.51.51-.42-.42-.1-.07-.27-.06-8.88-2.01-.45-.1-.86-.19-5.44,8.62c.35.47.7.94,1.07,1.4l6.09-9.61,7.94,1.78-11.13,11.13c.39.38.78.78,1.16,1.15l11.12-11.11h0s.19-.19.19-.19h.01s.3-.31.3-.31l.25-.25c.09-.07.15-.17.18-.28-.07-.01-.16-.02-.25,0ZM304.95,164.77h-.01c0-.11.03-.19.09-.27l-.32-.32-.1-.07-.27-.06-8.88-2.01-.45-.1-.86-.19-5.44,8.62c.35.47.7.94,1.07,1.4l6.09-9.61,7.94,1.78-11.13,11.13c.39.38.78.78,1.16,1.15l11.12-11.11h0s.19-.19.19-.19h0c-.07-.04-.14-.1-.19-.15ZM304.95,164.77h-.01c0-.11.03-.19.09-.27l-.32-.32-.1-.07-.27-.06-8.88-2.01-.45-.1-.86-.19-5.44,8.62c.35.47.7.94,1.07,1.4l6.09-9.61,7.94,1.78-11.13,11.13c.39.38.78.78,1.16,1.15l11.12-11.11h0s.19-.19.19-.19h0c-.07-.04-.14-.1-.19-.15ZM304.95,164.77h-.01c0-.11.03-.19.09-.27l-.32-.32-.1-.07-.27-.06-8.88-2.01-.45-.1-.86-.19-5.44,8.62c.35.47.7.94,1.07,1.4l6.09-9.61,7.94,1.78-11.13,11.13c.39.38.78.78,1.16,1.15l11.12-11.12.19-.18h0c-.07-.04-.14-.1-.19-.15ZM305.7,163.2l-.17-.17-.33-.34s-.06-.05-.1-.06c-.1-.07-.19-.13-.31-.15l-9.15-2.06c-.33-.07-.68.07-.88.36l-.62.97-5.44,8.62-3.03,4.79-6.59,10.41-2.63,4.15-2.72,4.3c-.22.36-.15.82.18,1.09.15.12.33.18.51.18.16,0,.32-.05.46-.14.04-.03.09-.06.13-.11l30.13-30.13h.01s.3-.31.3-.31l.25-.25c.09-.07.15-.17.18-.28.04-.1.06-.2.06-.31,0-.21-.09-.43-.25-.58ZM286.78,176.5l2.99-4.74,6.09-9.61,7.94,1.78-24.69,24.69,1.15-1.81,6.52-10.31ZM304.95,164.77h-.01c0-.11.03-.19.09-.27l-.32-.32-.1-.07-.27-.06-8.88-2.01-.45-.1-.86-.19-5.44,8.62c.35.47.7.94,1.07,1.4l6.09-9.61,7.94,1.78-11.13,11.13c.39.38.78.78,1.16,1.15l11.12-11.11h0s.19-.19.19-.19h0c-.07-.04-.14-.1-.19-.15ZM304.95,164.77h-.01c0-.11.03-.19.09-.27l-.32-.32-.1-.07-.27-.06-8.88-2.01-.45-.1-.86-.19-5.44,8.62c.35.47.7.94,1.07,1.4l6.09-9.61,7.94,1.78-11.13,11.13c.39.38.78.78,1.16,1.15l11.12-11.11h0s.19-.19.19-.19h0c-.07-.04-.14-.1-.19-.15ZM305.64,164.08l-.51.51-.42-.42-.1-.07-.27-.06-8.88-2.01-.45-.1-.86-.19-5.44,8.62c.35.47.7.94,1.07,1.4l6.09-9.61,7.94,1.78-11.13,11.13c.39.38.78.78,1.16,1.15l11.12-11.11h0s.19-.19.19-.19h.01s.3-.31.3-.31l.25-.25c.09-.07.15-.17.18-.28-.07-.01-.16-.02-.25,0Z"/>
      <polygon class="cls-4" points="377.36 194.16 373.41 190.21 346.69 163.47 347 163.14 347.02 163.14 347.19 162.96 356.34 160.91 356.4 161.03 356.42 161.03 374.29 189.3 377.36 194.16"/>
      <polygon class="cls-4" points="376.12 91.63 345.44 122.32 345.34 122.22 344.94 121.81 342.88 112.66 343.14 112.49 371.61 94.49 376.12 91.63"/>
      <path class="cls-4" d="M357.18,110.58s-.01-.01-.01-.01l-11.11,11.11-.06.05s.02.01.01.02l-.18.18c.12.03.23.09.33.17.01.04.01.1.01.14l.23.2.25.25h.02s.58.14.58.14l11.1-11.1c-.38-.39-.78-.78-1.16-1.15ZM377.08,91.69c-.28-.22-.66-.25-.96-.05-.01,0-.03.01-.04.03-.03.02-.06.04-.1.07l-3.36,3.36-3.36,3.36-8.32,8.32-3.77,3.78-11.11,11.11-.06.05-.19.2-.37.37-.12.12c-.15.15-.22.35-.23.57v.02c0,.07.01.15.03.22.03.14.11.26.2.35l.5.5s.06.06.11.07c.09.07.18.12.29.14l9.16,2.07c.06.01.13.01.18.01.28,0,.54-.14.7-.38l.63-1,5.42-8.56,3.03-4.81,6.59-10.4,2.62-4.15,2.72-4.3c.22-.35.15-.82-.18-1.08ZM364.24,110.3l-3,4.74-6.06,9.59h-.01s-7.93-1.78-7.93-1.78l24.67-24.67-1.14,1.81-6.52,10.31Z"/>
      <path class="cls-4" d="M347.17,163.95h-.01s-.21-.22-.21-.22c-.01.03-.01.07-.03.11-.01.03-.03.07-.05.11-.03.05-.06.11-.11.15h-.02c-.06.07-.14.13-.22.17l-.28.28s-.01,0-.01.01t-.02.01l-.13.57,11.1,11.1,1.13-1.13-11.13-11.15ZM344.28,173.06l-.15.67-.03.18-.19.86,8.55,5.41c.47-.35.94-.7,1.4-1.07l-9.58-6.06ZM347.17,163.95h-.05s-.06.01-.1.01l-.27.13-.26.26c-.07.09-.16.15-.27.19,0,0-.01,0-.01.01t-.02.01l-.13.57,11.1,11.1,1.13-1.13-11.13-11.15ZM344.13,173.73l-.03.18-.19.86,8.55,5.41c.47-.35.94-.7,1.4-1.07l-9.58-6.06-.15.67ZM377.34,194.15s-.01-.01-.01-.02c-.02-.04-.04-.07-.06-.12-.03-.04-.06-.09-.11-.13l-3.37-3.37-3.36-3.36-8.32-8.32-3.77-3.77-11.11-11.11-.26-.26-.25-.25-.25-.25c-.07-.07-.17-.14-.27-.18-.18-.07-.4-.07-.59-.01-.12.03-.22.11-.31.19l-.33.32-.17.17s-.05.06-.07.11c-.07.09-.12.19-.14.3l-2.06,9.16c-.09.34.06.69.35.88l1.02.65,8.55,5.41,4.8,3.03,10.4,6.59,4.16,2.63,4.3,2.72c.14.09.29.13.44.13.25,0,.48-.11.64-.31.19-.25.23-.56.13-.83ZM368.91,188.64l-10.31-6.52-4.74-2.99-9.58-6.06h-.02s1.79-7.94,1.79-7.94h.01s11.1,11.11,11.1,11.11l3.76,3.76,8.32,8.32,1.48,1.48-1.81-1.15ZM344.28,173.06l-.15.67-.03.18-.19.86,8.55,5.41c.47-.35.94-.7,1.4-1.07l-9.58-6.06ZM347.17,163.95h-.05s-.06.01-.1.01l-.27.13-.26.26c-.07.09-.16.15-.27.19,0,0-.01,0-.01.01t-.02.01l-.13.57,11.1,11.1,1.13-1.13-11.13-11.15ZM344.28,173.06l-.15.67-.03.18-.19.86,8.55,5.41c.47-.35.94-.7,1.4-1.07l-9.58-6.06ZM347.17,163.95h-.01s-.21-.22-.21-.22c-.01.03-.01.07-.03.11-.01.03-.03.07-.05.11-.03.05-.06.11-.11.15h-.02c-.06.07-.14.13-.22.17l-.28.28s-.01,0-.01.01t-.02.01l-.13.57,11.1,11.1,1.13-1.13-11.13-11.15Z"/>
      <polygon class="cls-4" points="324.68 34.14 324.68 143.39 324.66 143.39 304.69 123.42 304.28 123.01 304.71 122.6 304.79 122.52 306.86 113.35 306.95 112.89 315.11 76.64 318.32 62.37 318.33 62.37 324.68 34.14"/>
      <polygon class="cls-4" points="325.5 144.22 305.12 164.6 304.71 164.18 304.61 164.1 295.46 162.04 295.01 161.94 258.61 153.75 244.33 150.53 216.25 144.22 325.5 144.22"/>
      <path class="cls-4" d="M324.96,144.01l-.04-.04s-.09-.1-.13-.16c0-.01-.01-.02-.01-.04-.02-.02-.03-.04-.04-.07-.02-.03-.03-.07-.04-.13s-.02-.11-.02-.16v-1.16l-19.4-19.4c-.15-.16-.38-.22-.61-.2l-.11.1c-.1-.02-.2-.03-.31-.01h-.02s-.01.01-.01.01l-.1.1c-.05.05-.11.12-.14.18l-.12-.12s-.01.02-.01.02c-.02,0-.04.02-.06.04l-.26.26-8.4,1.9c-.19-.16-.45-.22-.69-.17h-.01s-.05.01-.07.02l-.2.04-11.46,2.57c-.23.61-.44,1.22-.64,1.84l12.22-2.74s.02.01.03.01c.04.04.1.07.15.1.03.02.07.03.12.04.07.02.15.03.22.03.05,0,.12,0,.18-.02l9.15-2.06c.15-.03.29-.11.41-.22l.05-.05h.01l18.06,18.06h-59.89c-.01.28-.01.56-.01.83s0,.56.01.82h61.89c.14,0,.28-.03.39-.11t.02-.01s-.09-.05-.12-.09ZM324.96,144.01l-.04-.04s-.09-.1-.13-.16c0-.01-.01-.02-.01-.04-.02-.02-.03-.04-.04-.07-.02-.03-.03-.07-.04-.13s-.02-.11-.02-.16v-1.16l-19.4-19.4c-.15-.16-.38-.22-.61-.2l-.11.1c-.1-.02-.2-.03-.31-.01h-.02s-.01.01-.01.01l-.1.1c-.05.05-.11.12-.14.18l-.12-.12s-.01.02-.01.02c-.02,0-.04.02-.06.04l-.26.26-8.4,1.9c-.19-.16-.45-.22-.69-.17h-.01s-.05.01-.07.02l-.2.04-11.46,2.57c-.23.61-.44,1.22-.64,1.84l12.22-2.74s.02.01.03.01c.04.04.1.07.15.1.03.02.07.03.12.04.07.02.15.03.22.03.05,0,.12,0,.18-.02l9.15-2.06c.15-.03.29-.11.41-.22l.05-.05h.01l18.06,18.06h-59.89c-.01.28-.01.56-.01.83s0,.56.01.82h61.89c.14,0,.28-.03.39-.11t.02-.01s-.09-.05-.12-.09ZM324.96,144.01l-.04-.04s-.09-.1-.13-.16c0-.01-.01-.02-.01-.04-.02-.02-.03-.04-.04-.07-.02-.03-.03-.07-.04-.13s-.02-.11-.02-.16v-1.16l-19.4-19.4c-.15-.16-.38-.22-.61-.2l-.11.1c-.1-.02-.2-.03-.31-.01h-.02s-.01.01-.01.01l-.1.1c-.05.05-.11.12-.14.18l-.12-.12s-.01.02-.01.02c-.02,0-.04.02-.06.04l-.26.26-8.4,1.9c-.19-.16-.45-.22-.69-.17h-.01s-.05.01-.07.02l-.2.04-11.46,2.57c-.23.61-.44,1.22-.64,1.84l12.22-2.74s.02.01.03.01c.04.04.1.07.15.1.03.02.07.03.12.04.07.02.15.03.22.03.05,0,.12,0,.18-.02l9.15-2.06c.15-.03.29-.11.41-.22l.05-.05h.01l18.06,18.06h-59.89c-.01.28-.01.56-.01.83s0,.56.01.82h61.89c.14,0,.28-.03.39-.11t.02-.01s-.09-.05-.12-.09ZM324.96,144.01l-.04-.04s-.09-.1-.13-.16c0-.01-.01-.02-.01-.04-.02-.02-.03-.04-.04-.07-.02-.03-.03-.07-.04-.13s-.02-.11-.02-.16v-1.16l-19.4-19.4c-.15-.16-.38-.22-.61-.2l-.11.1c-.1-.02-.2-.03-.31-.01h-.02s-.01.01-.01.01l-.1.1c-.05.05-.11.12-.14.18l-.12-.12s-.01.02-.01.02c-.02,0-.04.02-.06.04l-.26.26-8.4,1.9c-.19-.16-.45-.22-.69-.17h-.01s-.05.01-.07.02l-.2.04-11.46,2.57c-.23.61-.44,1.22-.64,1.84l12.22-2.74s.02.01.03.01c.04.04.1.07.15.1.03.02.07.03.12.04.07.02.15.03.22.03.05,0,.12,0,.18-.02l9.15-2.06c.15-.03.29-.11.41-.22l.05-.05h.01l18.06,18.06h-59.89c-.01.28-.01.56-.01.83s0,.56.01.82h61.89c.14,0,.28-.03.39-.11t.02-.01s-.09-.05-.12-.09ZM325.24,142.81l-19.96-19.96c-.15-.16-.38-.22-.61-.2-.11,0-.21.03-.32.06l-.1.02h-.02s-.01.01-.01.01h-.02c-.13.03-.23.09-.33.16-.01,0-.01.02-.01.02-.02,0-.04.02-.06.04l-.26.26-8.4,1.9c-.19-.16-.45-.22-.69-.17h-.01s-.05.01-.07.02l-.2.04-11.46,2.57-6.07,1.37-12.78,2.87-5.03,1.13-.53.12s-.1.03-.15.05l-42.06,9.46c-.41.1-.68.48-.64.9.05.43.41.74.82.74h108.41c.14,0,.28-.03.39-.11t.02-.01c.15-.09.27-.22.34-.4.02-.05.03-.1.05-.15h0c.01-.06.01-.11.01-.16v-.04c-.01-.2-.1-.4-.25-.54ZM223.69,142.56l34.87-7.84.09-.02c.05-.01.11-.03.15-.05l4.74-1.07,12.59-2.83,5.94-1.33,12.22-2.74s.02.01.03.01c.04.04.1.07.15.1.03.02.07.03.12.04.07.02.15.03.22.03.05,0,.12,0,.18-.02l9.15-2.06c.15-.03.29-.11.41-.22l.05-.05h.01l18.06,18.06h-98.98ZM324.96,144.01l-.04-.04s-.09-.1-.13-.16c0-.01-.01-.02-.01-.04-.02-.02-.03-.04-.04-.07-.02-.03-.03-.07-.04-.13s-.02-.11-.02-.16v-1.16l-19.4-19.4c-.15-.16-.38-.22-.61-.2l-.11.1c-.1-.02-.2-.03-.31-.01h-.02s-.01.01-.01.01l-.1.1c-.05.05-.11.12-.14.18l-.12-.12s-.01.02-.01.02c-.02,0-.04.02-.06.04l-.26.26-8.4,1.9c-.19-.16-.45-.22-.69-.17h-.01s-.05.01-.07.02l-.2.04-11.46,2.57c-.23.61-.44,1.22-.64,1.84l12.22-2.74s.02.01.03.01c.04.04.1.07.15.1.03.02.07.03.12.04.07.02.15.03.22.03.05,0,.12,0,.18-.02l9.15-2.06c.15-.03.29-.11.41-.22l.05-.05h.01l18.06,18.06h-59.89c-.01.28-.01.56-.01.83s0,.56.01.82h61.89c.14,0,.28-.03.39-.11t.02-.01s-.09-.05-.12-.09ZM324.96,144.01l-.04-.04s-.09-.1-.13-.16c0-.01-.01-.02-.01-.04-.02-.02-.03-.04-.04-.07-.02-.03-.03-.07-.04-.13s-.02-.11-.02-.16v-1.16l-19.4-19.4c-.15-.16-.38-.22-.61-.2l-.11.1c-.1-.02-.2-.03-.31-.01h-.02s-.01.01-.01.01l-.1.1c-.05.05-.11.12-.14.18l-.12-.12s-.01.02-.01.02c-.02,0-.04.02-.06.04l-.26.26-8.4,1.9c-.19-.16-.45-.22-.69-.17h-.01s-.05.01-.07.02l-.2.04-11.46,2.57c-.23.61-.44,1.22-.64,1.84l12.22-2.74s.02.01.03.01c.04.04.1.07.15.1.03.02.07.03.12.04.07.02.15.03.22.03.05,0,.12,0,.18-.02l9.15-2.06c.15-.03.29-.11.41-.22l.05-.05h.01l18.06,18.06h-59.89c-.01.28-.01.56-.01.83s0,.56.01.82h61.89c.14,0,.28-.03.39-.11t.02-.01s-.09-.05-.12-.09ZM324.96,144.01l-.04-.04s-.09-.1-.13-.16c0-.01-.01-.02-.01-.04-.02-.02-.03-.04-.04-.07-.02-.03-.03-.07-.04-.13s-.02-.11-.02-.16v-1.16l-19.4-19.4c-.15-.16-.38-.22-.61-.2l-.11.1c-.1-.02-.2-.03-.31-.01h-.02s-.01.01-.01.01l-.1.1c-.05.05-.11.12-.14.18l-.12-.12s-.01.02-.01.02c-.02,0-.04.02-.06.04l-.26.26-8.4,1.9c-.19-.16-.45-.22-.69-.17h-.01s-.05.01-.07.02l-.2.04-11.46,2.57c-.23.61-.44,1.22-.64,1.84l12.22-2.74s.02.01.03.01c.04.04.1.07.15.1.03.02.07.03.12.04.07.02.15.03.22.03.05,0,.12,0,.18-.02l9.15-2.06c.15-.03.29-.11.41-.22l.05-.05h.01l18.06,18.06h-59.89c-.01.28-.01.56-.01.83s0,.56.01.82h61.89c.14,0,.28-.03.39-.11t.02-.01s-.09-.05-.12-.09ZM324.96,144.01l-.04-.04s-.09-.1-.13-.16c0-.01-.01-.02-.01-.04-.02-.02-.03-.04-.04-.07-.02-.03-.03-.07-.04-.13s-.02-.11-.02-.16v-1.16l-19.4-19.4c-.15-.16-.38-.22-.61-.2l-.11.1c-.1-.02-.2-.03-.31-.01h-.02s-.01.01-.01.01l-.1.1c-.05.05-.11.12-.14.18l-.12-.12s-.01.02-.01.02c-.02,0-.04.02-.06.04l-.26.26-8.4,1.9c-.19-.16-.45-.22-.69-.17h-.01s-.05.01-.07.02l-.2.04-11.46,2.57c-.23.61-.44,1.22-.64,1.84l12.22-2.74s.02.01.03.01c.04.04.1.07.15.1.03.02.07.03.12.04.07.02.15.03.22.03.05,0,.12,0,.18-.02l9.15-2.06c.15-.03.29-.11.41-.22l.05-.05h.01l18.06,18.06h-59.89c-.01.28-.01.56-.01.83s0,.56.01.82h61.89c.14,0,.28-.03.39-.11t.02-.01s-.09-.05-.12-.09Z"/>
      <path class="cls-4" d="M305.16,123.82s-.02.03-.02.04c-.04.1-.1.18-.17.26l-.36.37h-.01l-.05.05c-.12.12-.26.19-.41.22l-9.15,2.06c-.06.02-.13.02-.18.02-.07,0-.15-.01-.22-.03-.04-.01-.09-.02-.12-.04-.05-.02-.11-.05-.15-.1-.01,0-.02,0-.03-.01-.06-.05-.13-.12-.17-.19l-.18-.28c-.15-.22-.17-.51-.07-.76.06-.17.17-.3.32-.4.05-.03.12-.06.18-.09.02-.01.05-.01.07-.02h.01l.83-.19h.01l8.49-1.92h.02s.41-.1.41-.1h.03s.01-.01.02-.01c.11-.02.21-.01.31.01.22.04.43.19.54.41.12.21.13.47.05.68Z"/>
      <path class="cls-4" d="M326.33,143.39h0c0,.12-.02.21-.06.31-.01.03-.03.06-.05.1-.05.11-.14.2-.23.28h-.01c-.07.04-.14.07-.22.11-.06.02-.15.03-.22.03h-.85c-.1,0-.19-.02-.28-.05-.12-.03-.22-.11-.31-.19l-19.47-19.47h-.01l-.48-.49s-.06-.06-.09-.11c-.11-.14-.16-.3-.16-.48,0-.14.03-.27.11-.38t.01-.02c.03-.06.09-.13.14-.18l.1-.1h.01l.32-.32c.09-.09.19-.15.31-.18.29-.11.62-.04.84.19l.58.58,19.54,19.54.02.02.02.02.17.17s.09.09.11.13h.01s.03.03.04.05c.03.04.05.1.07.15.02.03.03.06.03.11.02.06.03.14.03.2Z"/>
      <path class="cls-4" d="M346.69,164.07l-.18.19-.28.28s-.01,0-.01.01h-.02s-.13.58-.13.58l-1.78,7.93-.15.67-.03.18-.19.86-2.57,11.4-1.38,6.09-2.88,12.78-1.06,4.69-.07.35-3.15,13.96-6.48,28.75-.02.12v-109.22l.03.03h.01s19.28,19.28,19.28,19.28l1.07,1.07Z"/>
      <path class="cls-4" d="M306.48,164.4l-.02.03.07.07-.05-.11ZM306.48,164.4l-.02.03.07.07-.05-.11ZM306.48,164.4l-.02.03.07.07-.05-.11ZM326.3,143.98c-.02-.05-.04-.1-.06-.14,0-.02-.01-.03-.02-.04-.09-.15-.22-.27-.4-.34-.1-.04-.2-.06-.3-.06v.02s-.02.05-.02.07c0,0-.01.01-.01.02s0,.02-.01.03h0c0,.05-.01.1-.01.15v.51c-.14,0-.27-.04-.38-.11t-.02.01c-.12.07-.26.11-.39.11h-.33l-18.8,18.81-.58.58c-.16.16-.22.39-.19.63l.27.27c-.05.07-.09.16-.09.26h.01c.05.06.12.12.19.15h0s-.19.19-.19.19h0c.03.15.11.28.21.38l1.94,8.55c-.06.15-.07.32-.03.49,0,.02,0,.04.01.05l.05.23,2.56,11.39c.61.22,1.22.44,1.84.63l-2.77-12.27s.01-.03.01-.05c.01-.01.02-.03.01-.04.01-.01.01-.03.01-.04.03-.12.03-.23.01-.35l-2.07-9.16c-.03-.16-.11-.3-.21-.41l-.05-.11,18.19-18.19v59.9c.28.01.56.01.83.01s.53,0,.79-.01v-17.1h.03v-44.8c0-.09-.01-.16-.03-.23ZM326.3,143.98c-.02-.05-.04-.1-.06-.14,0-.02-.01-.03-.02-.04-.09-.15-.22-.27-.4-.34-.1-.04-.2-.06-.3-.06v.02s-.02.05-.02.07c0,0-.01.01-.01.02s0,.02-.01.03h0c0,.05-.01.1-.01.15v.51c-.14,0-.27-.04-.38-.11t-.02.01c-.12.07-.26.11-.39.11h-.33l-18.8,18.81-.58.58c-.16.16-.22.39-.19.63l.27.27c-.05.07-.09.16-.09.26h.01c.05.06.12.12.19.15h0s-.19.19-.19.19h0c.03.15.11.28.21.38l1.94,8.55c-.06.15-.07.32-.03.49,0,.02,0,.04.01.05l.05.23,2.56,11.39c.61.22,1.22.44,1.84.63l-2.77-12.27s.01-.03.01-.05c.01-.01.02-.03.01-.04.01-.01.01-.03.01-.04.03-.12.03-.23.01-.35l-2.07-9.16c-.03-.16-.11-.3-.21-.41l-.05-.11,18.19-18.19v59.9c.28.01.56.01.83.01s.53,0,.79-.01v-17.1h.03v-44.8c0-.09-.01-.16-.03-.23ZM326.3,145v-1.03c-.02-.05-.04-.1-.06-.14l-.13.13s-.09.07-.13.11h-.01c-.07.04-.14.07-.22.11-.06.02-.15.03-.22.03h-.05c-.14-.01-.27-.05-.38-.12t-.02.01c-.12.07-.26.11-.39.11h-.33l-18.8,18.81-.58.58c-.16.16-.22.39-.19.63l.27.27c-.05.07-.09.16-.09.26h.01c.05.06.12.12.19.15h0s-.19.19-.19.19h0c.03.15.11.28.21.38l1.94,8.55c-.06.15-.07.32-.03.49,0,.02,0,.04.01.05l.05.23,2.56,11.39c.61.22,1.22.44,1.84.63l-2.77-12.27s.01-.03.01-.05c.01-.01.02-.03.01-.04.01-.01.01-.03.01-.04.03-.12.03-.23.01-.35l-2.07-9.16c-.03-.16-.11-.3-.21-.41l-.05-.11,18.19-18.19v59.9c.28.01.56.01.83.01s.53,0,.79-.01v-17.1h.03v-44.01h-.03ZM326.3,143.98c-.02-.05-.04-.1-.06-.14,0-.02-.01-.03-.02-.04-.09-.15-.22-.27-.4-.34-.1-.04-.2-.06-.3-.06h-.03c-.21,0-.41.07-.57.24l-.59.59-18.8,18.81-.58.58c-.16.16-.22.39-.19.63,0,.11.02.21.06.32l.02.11.09.34s.01.05.01.07v.02s.01.01.01.01c.03.14.11.27.21.37l1.94,8.55c-.06.15-.07.32-.03.49,0,.02,0,.04.01.05l.05.23,2.56,11.39,1.37,6.07,2.87,12.78,1.14,5.04,9.61,42.72c.09.38.43.65.81.65.02,0,.05-.01.09-.01.33-.03.61-.27.7-.59.01-.02.01-.05.02-.07.01-.05.01-.11.01-.16v-108.42c0-.09-.01-.16-.03-.23ZM324.67,245.2l-7.85-34.86-1.12-4.99-2.83-12.58-1.33-5.95-2.77-12.27s.01-.03.01-.05c.01-.01.02-.03.01-.04.01-.01.01-.03.01-.04.03-.12.03-.23.01-.35l-2.07-9.16c-.03-.16-.11-.3-.21-.41l-.05-.11,18.19-18.19v98.99ZM326.3,145v-1.03c-.02-.05-.04-.1-.06-.14l-.13.13s-.09.07-.13.11h-.01c-.07.04-.14.07-.22.11-.06.02-.15.03-.22.03h-.05c-.14-.01-.27-.05-.38-.12t-.02.01c-.12.07-.26.11-.39.11h-.33l-18.8,18.81-.58.58c-.16.16-.22.39-.19.63l.27.27c-.05.07-.09.16-.09.26h.01c.05.06.12.12.19.15h0s-.19.19-.19.19h0c.03.15.11.28.21.38l1.94,8.55c-.06.15-.07.32-.03.49,0,.02,0,.04.01.05l.05.23,2.56,11.39c.61.22,1.22.44,1.84.63l-2.77-12.27s.01-.03.01-.05c.01-.01.02-.03.01-.04.01-.01.01-.03.01-.04.03-.12.03-.23.01-.35l-2.07-9.16c-.03-.16-.11-.3-.21-.41l-.05-.11,18.19-18.19v59.9c.28.01.56.01.83.01s.53,0,.79-.01v-17.1h.03v-44.01h-.03ZM326.3,143.98c-.02-.05-.04-.1-.06-.14,0-.02-.01-.03-.02-.04-.09-.15-.22-.27-.4-.34-.1-.04-.2-.06-.3-.06v.02s-.02.05-.02.07c0,0-.01.01-.01.02s0,.02-.01.03h0c0,.05-.01.1-.01.15v.51c-.14,0-.27-.04-.38-.11t-.02.01c-.12.07-.26.11-.39.11h-.33l-18.8,18.81-.58.58c-.16.16-.22.39-.19.63l.27.27c-.05.07-.09.16-.09.26h.01c.05.06.12.12.19.15h0s-.19.19-.19.19h0c.03.15.11.28.21.38l1.94,8.55c-.06.15-.07.32-.03.49,0,.02,0,.04.01.05l.05.23,2.56,11.39c.61.22,1.22.44,1.84.63l-2.77-12.27s.01-.03.01-.05c.01-.01.02-.03.01-.04.01-.01.01-.03.01-.04.03-.12.03-.23.01-.35l-2.07-9.16c-.03-.16-.11-.3-.21-.41l-.05-.11,18.19-18.19v59.9c.28.01.56.01.83.01s.53,0,.79-.01v-17.1h.03v-44.8c0-.09-.01-.16-.03-.23ZM306.48,164.4l-.02.03.07.07-.05-.11ZM306.48,164.4l-.02.03.07.07-.05-.11ZM306.48,164.4l-.02.03.07.07-.05-.11ZM306.48,164.4l-.02.03.07.07-.05-.11Z"/>
      <path class="cls-4" d="M308.82,174.08c.02.12.02.23-.01.35,0,.01,0,.03-.01.04.01.01,0,.03-.01.04-.05.18-.17.34-.34.45-.15.09-.35.15-.54.15-.1,0-.19-.01-.28-.05-.16-.06-.31-.16-.42-.29-.05-.05-.1-.12-.12-.19-.01-.01-.01-.03-.01-.05h-.01s-2.11-9.42-2.11-9.42h0s-.01-.03-.01-.03c0-.02-.01-.05-.01-.07-.01-.09-.01-.16.01-.25,0-.1.03-.18.09-.26.06-.14.18-.26.32-.33.1-.04.19-.07.29-.09.09-.02.17-.01.25,0,.16.02.32.1.45.22l.13.13.07.07c.11.11.18.25.21.41l2.07,9.16Z"/>
      <path class="cls-4" d="M326.33,143.39v.82c0,.07-.01.15-.03.22-.03.14-.11.26-.21.36l-19.6,19.6-.02.03-.34.33c-.09.09-.19.15-.31.19-.09.03-.18.05-.28.05-.13,0-.26-.03-.37-.11t-.01,0c-.07-.03-.14-.09-.19-.14l-.42-.42c-.09-.09-.15-.19-.19-.31-.11-.29-.04-.62.19-.85l.57-.57,18.81-18.81.59-.58.17-.18.19-.19s.06-.06.1-.09h0s.05-.05.09-.07c.01-.01.03-.02.05-.03.03-.02.06-.03.1-.04.03-.02.06-.03.11-.03.06-.02.13-.03.2-.03.11,0,.21.02.31.06.07.03.15.07.21.13.04.04.09.09.11.13h.01s.03.03.04.05c.03.04.05.1.07.15.02.03.03.07.03.11.02.06.03.14.03.2Z"/>
      <path class="cls-4" d="M346.4,122.45l-.23-.2s0-.1-.01-.14c-.1-.09-.21-.14-.33-.17l.18-.18s-.01-.02-.01-.02c-.01-.03-.04-.06-.06-.09l-.23-.25-1.9-8.41c.15-.19.2-.44.15-.68l-.06-.29-2.57-11.44c-.61-.22-1.23-.44-1.85-.64l2.75,12.22s-.02.02-.02.04c-.04.05-.07.12-.1.19-.03.07-.04.17-.04.26,0,.06,0,.13.02.19l2.06,9.15c.03.15.11.28.21.39l.22.22-18.24,18.24v-60.19c-.27-.01-.54-.01-.82-.01s-.56,0-.83.01v62.74c0,.05.01.11.02.16s.02.1.04.13c.01.03.02.06.03.09.01.01.02.02.02.03.04.06.09.12.13.16l.04.04s.07.05.12.09c.12.06.25.11.38.11v-.51c0-.05.01-.1.01-.14h0s.01-.03.01-.04.01-.02.01-.02c0-.02.01-.05.02-.07v-.02s.01-.02.01-.02c.07.02.15.03.23.03h.57c0-.07-.01-.15-.03-.21,0-.04-.01-.07-.03-.11-.02-.05-.04-.11-.07-.15-.01-.02-.03-.03-.04-.05h-.01s-.06-.09-.11-.13l-.17-.17h1.29v-.02c0-.05-.01-.12-.02-.17l18.49-18.49.59-.59c.23-.23.3-.58.19-.86ZM346.4,122.45l-.23-.2s0-.1-.01-.14c-.1-.09-.21-.14-.33-.17l.18-.18s-.01-.02-.01-.02c-.01-.03-.04-.06-.06-.09l-.23-.25-1.9-8.41c.15-.19.2-.44.15-.68l-.06-.29-2.57-11.44c-.61-.22-1.23-.44-1.85-.64l2.75,12.22s-.02.02-.02.04c-.04.05-.07.12-.1.19-.03.07-.04.17-.04.26,0,.06,0,.13.02.19l2.06,9.15c.03.15.11.28.21.39l.22.22-18.24,18.24v-60.19c-.27-.01-.54-.01-.82-.01s-.56,0-.83.01v62.74c0,.05.01.11.02.16s.02.1.04.13c.01.03.02.06.03.09.01.01.02.02.02.03.04.06.09.12.13.16l.04.04s.07.05.12.09c.12.06.25.11.38.11v-.51c0-.05.01-.1.01-.14h0s.01-.03.01-.04.01-.02.01-.02c0-.02.01-.05.02-.07v-.02s.01-.02.01-.02c.07.02.15.03.23.03h.57c0-.07-.01-.15-.03-.21,0-.04-.01-.07-.03-.11-.02-.05-.04-.11-.07-.15-.01-.02-.03-.03-.04-.05h-.01s-.06-.09-.11-.13l-.17-.17h1.29v-.02c0-.05-.01-.12-.02-.17l18.49-18.49.59-.59c.23-.23.3-.58.19-.86ZM346.4,122.45l-.23-.2s0-.1-.01-.14c-.1-.09-.21-.14-.33-.17l.18-.18s-.01-.02-.01-.02c-.01-.03-.04-.06-.06-.09l-.23-.25-1.9-8.41c.15-.19.2-.44.15-.68l-.06-.29-2.57-11.44c-.61-.22-1.23-.44-1.85-.64l2.75,12.22s-.02.02-.02.04c-.04.05-.07.12-.1.19-.03.07-.04.17-.04.26,0,.06,0,.13.02.19l2.06,9.15c.03.15.11.28.21.39l.22.22-18.24,18.24v-60.19c-.27-.01-.54-.01-.82-.01s-.56,0-.83.01v62.74c0,.05.01.11.02.16s.02.1.04.13c.01.03.02.05.04.07,0,.02.01.03.01.04.04.06.09.12.13.16l.04.04s.07.05.12.09c.12.06.25.11.38.11v-.51c0-.05.01-.1.01-.14h0s.01-.03.01-.04.01-.02.01-.02c0-.02.01-.05.02-.07v-.02s.01-.02.01-.02c.07.02.15.03.23.03h.57c0-.07-.01-.15-.03-.21,0-.04-.01-.07-.03-.11-.02-.05-.04-.11-.07-.15-.01-.02-.03-.03-.04-.05h-.01s-.06-.09-.11-.13l-.17-.17h1.29v-.02c0-.05-.01-.12-.02-.17l18.49-18.49.59-.59c.23-.23.3-.58.19-.86ZM346.4,122.45l-.23-.2s0-.1-.01-.14c-.1-.09-.21-.14-.33-.17l.18-.18s-.01-.02-.01-.02c-.01-.03-.04-.06-.06-.09l-.23-.25-1.9-8.41c.15-.19.2-.44.15-.68l-.06-.29-2.57-11.44c-.61-.22-1.23-.44-1.85-.64l2.75,12.22s-.02.02-.02.04c-.04.05-.07.12-.1.19-.03.07-.04.17-.04.26,0,.06,0,.13.02.19l2.06,9.15c.03.15.11.28.21.39l.22.22-18.24,18.24v-60.19c-.27-.01-.54-.01-.82-.01s-.56,0-.83.01v62.74c0,.05.01.11.02.16s.02.1.04.13c.01.03.02.05.04.07,0,.02.01.03.01.04.04.06.09.12.13.16l.04.04s.07.05.12.09c.12.06.25.11.38.11v-.51c0-.05.01-.1.01-.14h0s.01-.03.01-.04.01-.02.01-.02c0-.02.01-.05.02-.07v-.02s.01-.02.01-.02c.07.02.15.03.23.03h.57c0-.07-.01-.15-.03-.21,0-.04-.01-.07-.03-.11-.02-.05-.04-.11-.07-.15-.01-.02-.03-.03-.04-.05h-.01s-.06-.09-.11-.13l-.17-.17h1.29v-.02c0-.05-.01-.12-.02-.17l18.49-18.49.59-.59c.23-.23.3-.58.19-.86ZM346.4,122.45l-.23-.2s0-.1-.01-.14c-.1-.09-.21-.14-.33-.17l.18-.18s-.01-.02-.01-.02c-.01-.03-.04-.06-.06-.09l-.23-.25-1.9-8.41c.15-.19.2-.44.15-.68l-.06-.29-2.57-11.44c-.61-.22-1.23-.44-1.85-.64l2.75,12.22s-.02.02-.02.04c-.04.05-.07.12-.1.19-.03.07-.04.17-.04.26,0,.06,0,.13.02.19l2.06,9.15c.03.15.11.28.21.39l.22.22-18.24,18.24v-60.19c-.27-.01-.54-.01-.82-.01s-.56,0-.83.01v62.74c0,.05.01.11.02.16s.02.1.04.13c.01.03.02.05.04.07,0,.02.01.03.01.04.04.06.09.12.13.16l.04.04s.07.05.12.09c.12.06.25.11.38.11v-.51c0-.05.01-.1.01-.14h0s.01-.03.01-.04.01-.02.01-.02c0-.02.01-.05.02-.07v-.02s.01-.02.01-.02c.07.02.15.03.23.03h.57c0-.07-.01-.15-.03-.21,0-.04-.01-.07-.03-.11-.02-.05-.04-.11-.07-.15-.01-.02-.03-.03-.04-.05h-.01s-.06-.09-.11-.13l-.17-.17h1.29v-.02c0-.05-.01-.12-.02-.17l18.49-18.49.59-.59c.23-.23.3-.58.19-.86ZM346.4,122.45l-.23-.2s0-.1-.01-.14c-.1-.09-.21-.14-.33-.17l.18-.18s-.01-.02-.01-.02c-.01-.03-.04-.06-.06-.09l-.23-.25-1.9-8.41c.15-.19.2-.44.15-.68l-.06-.29-2.57-11.44c-.61-.22-1.23-.44-1.85-.64l2.75,12.22s-.02.02-.02.04c-.04.05-.07.12-.1.19-.03.07-.04.17-.04.26,0,.06,0,.13.02.19l2.06,9.15c.03.15.11.28.21.39l.22.22-18.24,18.24v-60.19c-.27-.01-.54-.01-.82-.01s-.56,0-.83.01v62.74c0,.05.01.11.02.16s.02.1.04.13c.01.03.02.05.04.07,0,.02.01.03.01.04.04.06.09.12.13.16l.04.04s.07.05.12.09c.12.06.25.11.38.11v-.51c0-.05.01-.1.01-.14h0c.01-.06.01-.11.01-.16v-.04c-.21-.07-.38-.23-.48-.45-.02-.04-.03-.09-.04-.13.02-.03.05-.05.09-.07.01-.01.03-.02.05-.03.03-.02.06-.03.1-.04.03-.02.06-.03.11-.03.06-.02.13-.03.2-.03h1.64c0-.05-.01-.12-.02-.17l18.49-18.49.59-.59c.23-.23.3-.58.19-.86ZM346.4,122.45c-.04-.11-.11-.21-.19-.3l-.06-.11c-.02-.11-.06-.2-.14-.29.01-.01-.01-.02-.01-.02-.01-.03-.04-.06-.06-.09l-.23-.25-1.9-8.41c.15-.19.2-.44.15-.68l-.06-.29-2.57-11.44-1.37-6.07-2.88-12.78-1.13-5.02-9.62-42.75c-.1-.41-.44-.68-.9-.63-.42.04-.74.39-.74.81v109.27c0,.05.01.11.02.16s.02.1.04.13c.01.03.02.06.03.09.01.01.02.02.02.03.04.06.09.12.13.16l.04.04s.07.05.12.09c.12.06.25.11.38.11.01.01.03.01.04.01h.01c.07,0,.16-.01.22-.03.09-.03.15-.06.22-.11h.01s.09-.06.13-.11l.23-.23.58-.57h.01c.15-.17.22-.37.22-.59v-.02c0-.05-.01-.12-.02-.17l18.49-18.49.59-.59c.23-.23.3-.58.19-.86ZM326.33,41.56l7.85,34.89,1.12,4.98,2.83,12.58,1.33,5.94,2.75,12.22s-.02.02-.02.04c-.04.05-.07.12-.1.19-.03.07-.04.17-.04.26,0,.06,0,.13.02.19l2.06,9.15c.03.15.11.28.21.39l.22.22-18.24,18.24V41.56ZM346.4,122.45l-.23-.2s0-.1-.01-.14c-.1-.09-.21-.14-.33-.17l.18-.18s-.01-.02-.01-.02c-.01-.03-.04-.06-.06-.09l-.23-.25-1.9-8.41c.15-.19.2-.44.15-.68l-.06-.29-2.57-11.44c-.61-.22-1.23-.44-1.85-.64l2.75,12.22s-.02.02-.02.04c-.04.05-.07.12-.1.19-.03.07-.04.17-.04.26,0,.06,0,.13.02.19l2.06,9.15c.03.15.11.28.21.39l.22.22-18.24,18.24v-60.19c-.27-.01-.54-.01-.82-.01s-.56,0-.83.01v62.74c0,.05.01.11.02.16s.02.1.04.13c.01.03.02.05.04.07,0,.02.01.03.01.04.04.06.09.12.13.16l.04.04s.07.05.12.09c.12.06.25.11.38.11v-.51c0-.05.01-.1.01-.14h0c.01-.06.01-.11.01-.16v-.04c-.21-.07-.38-.23-.48-.45-.02-.04-.03-.09-.04-.13.02-.03.05-.05.09-.07.01-.01.03-.02.05-.03.03-.02.06-.03.1-.04.03-.02.06-.03.11-.03.06-.02.13-.03.2-.03h1.64c0-.05-.01-.12-.02-.17l18.49-18.49.59-.59c.23-.23.3-.58.19-.86ZM346.4,122.45l-.23-.2s0-.1-.01-.14c-.1-.09-.21-.14-.33-.17l.18-.18s-.01-.02-.01-.02c-.01-.03-.04-.06-.06-.09l-.23-.25-1.9-8.41c.15-.19.2-.44.15-.68l-.06-.29-2.57-11.44c-.61-.22-1.23-.44-1.85-.64l2.75,12.22s-.02.02-.02.04c-.04.05-.07.12-.1.19-.03.07-.04.17-.04.26,0,.06,0,.13.02.19l2.06,9.15c.03.15.11.28.21.39l.22.22-18.24,18.24v-60.19c-.27-.01-.54-.01-.82-.01s-.56,0-.83.01v62.74c0,.05.01.11.02.16s.02.1.04.13c.01.03.02.05.04.07,0,.02.01.03.01.04.04.06.09.12.13.16l.04.04s.07.05.12.09c.12.06.25.11.38.11v-.51c0-.05.01-.1.01-.14h0s.01-.03.01-.04.01-.02.01-.02c0-.02.01-.05.02-.07v-.02s.01-.02.01-.02c.07.02.15.03.23.03h.57c0-.07-.01-.15-.03-.21,0-.04-.01-.07-.03-.11-.02-.05-.04-.11-.07-.15-.01-.02-.03-.03-.04-.05h-.01s-.06-.09-.11-.13l-.17-.17h1.29v-.02c0-.05-.01-.12-.02-.17l18.49-18.49.59-.59c.23-.23.3-.58.19-.86ZM346.4,122.45l-.23-.2s0-.1-.01-.14c-.1-.09-.21-.14-.33-.17l.18-.18s-.01-.02-.01-.02c-.01-.03-.04-.06-.06-.09l-.23-.25-1.9-8.41c.15-.19.2-.44.15-.68l-.06-.29-2.57-11.44c-.61-.22-1.23-.44-1.85-.64l2.75,12.22s-.02.02-.02.04c-.04.05-.07.12-.1.19-.03.07-.04.17-.04.26,0,.06,0,.13.02.19l2.06,9.15c.03.15.11.28.21.39l.22.22-18.24,18.24v-60.19c-.27-.01-.54-.01-.82-.01s-.56,0-.83.01v62.74c0,.05.01.11.02.16s.02.1.04.13c.01.03.02.05.04.07,0,.02.01.03.01.04.04.06.09.12.13.16l.04.04s.07.05.12.09c.12.06.25.11.38.11v-.51c0-.05.01-.1.01-.14h0s.01-.03.01-.04.01-.02.01-.02c0-.02.01-.05.02-.07v-.02s.01-.02.01-.02c.07.02.15.03.23.03h.57c0-.07-.01-.15-.03-.21,0-.04-.01-.07-.03-.11-.02-.05-.04-.11-.07-.15-.01-.02-.03-.03-.04-.05h-.01s-.06-.09-.11-.13l-.17-.17h1.29v-.02c0-.05-.01-.12-.02-.17l18.49-18.49.59-.59c.23-.23.3-.58.19-.86ZM346.4,122.45l-.23-.2s0-.1-.01-.14c-.1-.09-.21-.14-.33-.17l.18-.18s-.01-.02-.01-.02c-.01-.03-.04-.06-.06-.09l-.23-.25-1.9-8.41c.15-.19.2-.44.15-.68l-.06-.29-2.57-11.44c-.61-.22-1.23-.44-1.85-.64l2.75,12.22s-.02.02-.02.04c-.04.05-.07.12-.1.19-.03.07-.04.17-.04.26,0,.06,0,.13.02.19l2.06,9.15c.03.15.11.28.21.39l.22.22-18.24,18.24v-60.19c-.27-.01-.54-.01-.82-.01s-.56,0-.83.01v62.74c0,.05.01.11.02.16s.02.1.04.13c.01.03.02.05.04.07,0,.02.01.03.01.04.04.06.09.12.13.16l.04.04s.07.05.12.09c.12.06.25.11.38.11v-.51c0-.05.01-.1.01-.14h0s.01-.03.01-.04.01-.02.01-.02c0-.02.01-.05.02-.07v-.02s.01-.02.01-.02c.07.02.15.03.23.03h.57c0-.07-.01-.15-.03-.21,0-.04-.01-.07-.03-.11-.02-.05-.04-.11-.07-.15-.01-.02-.03-.03-.04-.05h-.01s-.06-.09-.11-.13l-.17-.17h1.29v-.02c0-.05-.01-.12-.02-.17l18.49-18.49.59-.59c.23-.23.3-.58.19-.86ZM346.4,122.45l-.23-.2s0-.1-.01-.14c-.1-.09-.21-.14-.33-.17l.18-.18s-.01-.02-.01-.02c-.01-.03-.04-.06-.06-.09l-.23-.25-1.9-8.41c.15-.19.2-.44.15-.68l-.06-.29-2.57-11.44c-.61-.22-1.23-.44-1.85-.64l2.75,12.22s-.02.02-.02.04c-.04.05-.07.12-.1.19-.03.07-.04.17-.04.26,0,.06,0,.13.02.19l2.06,9.15c.03.15.11.28.21.39l.22.22-18.24,18.24v-60.19c-.27-.01-.54-.01-.82-.01s-.56,0-.83.01v62.74c0,.05.01.11.02.16s.02.1.04.13c.01.03.02.06.03.09.01.01.02.02.02.03.04.06.09.12.13.16l.04.04s.07.05.12.09c.12.06.25.11.38.11v-.51c0-.05.01-.1.01-.14h0s.01-.03.01-.04.01-.02.01-.02c0-.02.01-.05.02-.07v-.02s.01-.02.01-.02c.07.02.15.03.23.03h.57c0-.07-.01-.15-.03-.21,0-.04-.01-.07-.03-.11-.02-.05-.04-.11-.07-.15-.01-.02-.03-.03-.04-.05h-.01s-.06-.09-.11-.13l-.17-.17h1.29v-.02c0-.05-.01-.12-.02-.17l18.49-18.49.59-.59c.23-.23.3-.58.19-.86Z"/>
      <path class="cls-4" d="M346.16,122.24c-.01.29-.17.56-.44.7-.12.06-.26.1-.38.1h-.04c-.07,0-.16-.02-.22-.05-.13-.03-.23-.11-.33-.2l-.17-.18-.22-.22c-.11-.12-.18-.25-.21-.39l-2.06-9.15c-.02-.06-.02-.13-.02-.19,0-.09.01-.18.04-.26.02-.07.05-.14.1-.19.06-.1.14-.18.25-.25l.27-.16c.22-.14.5-.17.75-.06.16.06.29.18.37.32.06.07.1.16.12.26l2.11,9.37h.01s.07.36.07.36c0,.02.01.04.01.06.01.04.01.1.01.14Z"/>
      <path class="cls-4" d="M346.48,123.6l-18.98,18.98-.58.58h-.01c-.16.16-.36.25-.59.25h-.57c-.09,0-.16-.01-.23-.03-.02-.01-.03-.01-.04-.02-.21-.07-.38-.23-.48-.45-.02-.04-.03-.09-.04-.13h0c-.02-.1-.02-.18-.01-.26.01-.2.1-.38.23-.52l.04-.04,1.1-1.1,18.7-18.7s.09-.07.13-.11c.19-.13.43-.16.64-.11h.02c.12.03.23.09.33.17.02.01.03.03.05.04l.28.28c.07.07.14.17.18.27h0c.12.3.05.66-.18.91Z"/>
      <path class="cls-4" d="M346.59,162.38l-.34.07.15.15s0-.01.01-.02l.17-.18s.03-.04.05-.05c-.02.01-.03.02-.04.03ZM346.59,162.38l-.34.07.15.15s0-.01.01-.02l.17-.18s.03-.04.05-.05c-.02.01-.03.02-.04.03ZM346.59,162.38l-.34.07.15.15s0-.01.01-.02l.17-.18s.03-.04.05-.05c-.02.01-.03.02-.04.03ZM346.59,162.38l-.34.07.15.15s0-.01.01-.02l.17-.18s.03-.04.05-.05c-.02.01-.03.02-.04.03ZM346.59,162.38l-.34.07.15.15s0-.01.01-.02l.17-.18s.03-.04.05-.05c-.02.01-.03.02-.04.03ZM388.23,142.58s0-.02,0-.02h-62.72c-.07,0-.14.01-.2.03-.04,0-.07.01-.11.03-.03.01-.06.02-.1.04-.02.01-.04.02-.05.03-.03.02-.06.04-.09.07.01.04.02.09.04.13.1.21.27.37.48.45v.04c0,.05,0,.1-.01.15h0c0,.05-.01.1-.01.15v.51h0s.05.01.05.01c.07,0,.16-.01.22-.03.09-.03.15-.06.22-.11h.01s.09-.06.13-.11l.13-.13s.04.09.06.14v1.03h.03s.06,0,.11-.01l18.54,18.52.59.59c.15.16.36.25.58.25h.01c.13,0,.25-.03.35-.09.09-.04.16-.1.22-.16h.02s.27-.14.27-.14c.03,0,.06,0,.1-.01h.01s.02,0,.03-.01h.01s.02.01.03,0h.02l.06-.02c.13-.04.25-.12.34-.21l8.51-1.9c.12.04.25.05.37.03h.07s.01-.01.01-.01l.29-.06h.01l11.41-2.57c.23-.6.45-1.21.64-1.83l-12.33,2.78c-.15-.06-.3-.07-.46-.03l-9.15,2.05c-.07.01-.14.04-.2.07-.04.02-.07.04-.11.07-.02,0-.04.02-.06.04-.02.01-.03.02-.04.03l-.34.07-18.26-18.24h60.23c.01-.27.01-.54.01-.82s0-.54-.01-.81ZM434.94,142.58h-.05s-.09-.02-.14-.02h-109.25c-.07,0-.14.01-.2.03-.04,0-.07.01-.11.03-.03.01-.06.02-.1.04-.02.01-.04.02-.05.03-.03.02-.06.04-.09.07-.03.02-.06.05-.1.09-.05.06-.1.14-.13.21-.04.1-.06.2-.06.31v.02c0,.05.01.11.02.16s.02.1.04.13c.01.03.02.05.04.07,0,.02.01.03.01.04.04.06.09.12.13.16l.04.04.65.65s.06.07.1.11c.06.06.15.13.25.16.11.05.22.09.34.07h.03s.06,0,.11-.01l18.54,18.52.59.59c.15.16.36.25.58.25h.01c.13,0,.25-.03.35-.09.09-.04.16-.1.22-.16h.02s.27-.14.27-.14c.03,0,.06,0,.1-.01h.05s.02,0,.03-.01h.02l.06-.02c.13-.04.25-.12.34-.21l8.51-1.9c.12.04.25.05.37.03h.07s.01-.01.01-.01l.29-.06h.01l11.41-2.57,6.09-1.37,12.78-2.88,5.03-1.13,42.74-9.62c.41-.09.68-.48.64-.9-.04-.35-.3-.63-.63-.72ZM392.44,152.07l-4.98,1.12-12.58,2.83-5.95,1.35-12.33,2.78c-.15-.06-.3-.07-.46-.03l-9.15,2.05c-.07.01-.14.04-.2.07-.04.02-.07.04-.11.07-.02,0-.04.02-.06.04-.02.01-.03.02-.04.03l-.34.07-18.26-18.24h99.33l-34.88,7.86ZM388.23,142.58s0-.02,0-.02h-62.72c-.07,0-.14.01-.2.03-.04,0-.07.01-.11.03-.03.01-.06.02-.1.04-.02.01-.04.02-.05.03-.03.02-.06.04-.09.07.01.04.02.09.04.13.1.21.27.37.48.45v.04c0,.05,0,.1-.01.15h0c0,.05-.01.1-.01.15v.51h0s.05.01.05.01c.07,0,.16-.01.22-.03.09-.03.15-.06.22-.11h.01s.09-.06.13-.11l.13-.13s.04.09.06.14v1.03h.03s.06,0,.11-.01l18.54,18.52.59.59c.15.16.36.25.58.25h.01c.13,0,.25-.03.35-.09.09-.04.16-.1.22-.16h.02s.27-.14.27-.14c.03,0,.06,0,.1-.01h.01s.02,0,.03-.01h.01s.02.01.03,0h.02l.06-.02c.13-.04.25-.12.34-.21l8.51-1.9c.12.04.25.05.37.03h.07s.01-.01.01-.01l.29-.06h.01l11.41-2.57c.23-.6.45-1.21.64-1.83l-12.33,2.78c-.15-.06-.3-.07-.46-.03l-9.15,2.05c-.07.01-.14.04-.2.07-.04.02-.07.04-.11.07-.02,0-.04.02-.06.04-.02.01-.03.02-.04.03l-.34.07-18.26-18.24h60.23c.01-.27.01-.54.01-.82s0-.54-.01-.81ZM346.59,162.38l-.34.07.15.15s0-.01.01-.02l.17-.18s.03-.04.05-.05c-.02.01-.03.02-.04.03ZM346.59,162.38l-.34.07.15.15s0-.01.01-.02l.17-.18s.03-.04.05-.05c-.02.01-.03.02-.04.03ZM346.59,162.38l-.34.07.15.15s0-.01.01-.02l.17-.18s.03-.04.05-.05c-.02.01-.03.02-.04.03ZM346.59,162.38l-.34.07.15.15s0-.01.01-.02l.17-.18s.03-.04.05-.05c-.02.01-.03.02-.04.03ZM346.59,162.38l-.34.07.15.15s0-.01.01-.02l.17-.18s.03-.04.05-.05c-.02.01-.03.02-.04.03Z"/>
      <path class="cls-4" d="M346.96,163.69s-.01.03-.02.04c-.01.03-.01.07-.03.11-.01.03-.03.07-.05.11-.03.05-.06.11-.11.15l-.26.26c-.07.09-.16.15-.27.19,0,0-.01,0-.01.01-.1.03-.2.06-.31.06h-.01c-.21,0-.43-.09-.59-.25l-.58-.58-18.41-18.41-.03-.03-.59-.59c-.14-.14-.22-.32-.23-.52-.01-.01-.01-.02-.01-.03h0v-.52c0-.06.01-.13.02-.18,0-.01.01-.02.01-.02,0-.02.01-.05.02-.07v-.02s.01-.02.01-.02c.09-.2.25-.36.45-.45.05-.02.11-.04.16-.04h.01c.27-.05.53.03.73.22l.05.05,1.07,1.06,18.26,18.24.48.48c.09.09.15.18.19.29.05.15.06.31.04.46Z"/>
      <path class="cls-4" d="M357.13,161.31c-.06.15-.16.3-.29.38-.07.07-.15.12-.25.14h-.09s-9.22,2.09-9.22,2.09l-.06.02h-.02s-.03.01-.04,0c-.01.01-.03.02-.04.01-.03.01-.06.01-.1.01-.05,0-.11,0-.16-.02-.22-.04-.43-.18-.54-.38-.1-.17-.14-.36-.11-.54.02-.14.09-.29.19-.41t.01-.02l.17-.18s.03-.04.05-.05c.02-.02.04-.04.06-.04.03-.03.06-.05.11-.07.06-.03.13-.06.2-.07l9.15-2.05c.16-.04.31-.03.46.03.18.05.33.18.44.36.13.22.18.56.07.8Z"/>
      <polygon class="cls-4" points="434.94 142.58 325.76 142.58 325.78 142.56 325.81 142.54 345.11 123.24 345.62 122.72 346.14 122.22 346.16 122.24 346.4 122.45 346.64 122.69 346.66 122.69 346.66 122.7 347.24 122.83 355.17 124.62 355.8 124.76 356.02 124.81 356.88 125 368.3 127.57 374.38 128.94 387.16 131.81 391.7 132.83 392.19 132.94 406.01 136.06 434.89 142.57 434.94 142.58"/>
    </g>
  </g>
</svg>