<?xml version="1.0" encoding="UTF-8"?>
<svg id="Layer_1" xmlns="http://www.w3.org/2000/svg" viewBox="0 0 501 126">
  <defs>
    <style>
      .cls-1 {
        fill: #fff;
      }

      .cls-2 {
        fill: #d89f00;
      }
    </style>
  </defs>
  <g>
    <path class="cls-1" d="M148.77,24.91c-1.46-6.96-4.82-12.69-10.03-17.04-5.69-4.74-12.47-7.15-20.71-7.38-.41,0-.81-.02-1.21-.02-4.17,0-8.49.61-12.84,1.81-2.38.64-5.34,1.44-8.04,2.78-1.61.8-3.19,1.51-4.8,1.51-.73,0-1.46-.15-2.21-.45-2.51-.99-5.18-1.29-7.76-1.57l-1.21-.15c-1.74-.2-3.47-.31-5.16-.31-1.49,0-2.96.08-4.38.24-3.25.38-7.53.98-11.72,2.37-.18.06-.36.09-.52.09-.26,0-.52-.08-.82-.24-2.04-1.17-4.34-2.16-7.04-3.03-5.28-1.67-9.73-2.59-13.99-2.89-1.17-.09-2.33-.13-3.44-.13-6.02,0-11.25,1.2-16,3.69C8.39,8.61,3.13,15.67,1.26,25.14c-.81,4.12-.97,8.31-.5,12.44.64,5.43,1.62,9.78,3.11,13.73,2.65,7.11,7.69,12.59,12.72,17.46l.54.52c2.92,2.81,5.68,5.45,8.05,8.54,2.46,3.19,3.64,6.46,3.61,10l-.02,1.3c-.02,1.59-.04,3.24.03,4.87.21,4.99,2.2,8.66,5.91,10.92,1.81,1.1,3.86,1.74,6.13,1.89-.4.64-.8,1.28-1.19,1.92-.75,1.21-1.5,2.43-2.25,3.65-1.19,1.97-2.57,4.96-.65,8.22,1.41,2.4,3.64,3.66,6.46,3.66.83,0,1.74-.12,2.68-.33,3.51-.82,6.73-2.77,9.8-5.94,1.42-1.46,2.62-2.91,3.64-4.42.14.35.28.7.43,1.04,1.33,3.18,3.07,6.77,6.76,9.06,1.98,1.22,4.06,1.84,6.15,1.84,1.82,0,3.64-.47,5.44-1.38,3.27-1.67,4.86-4.73,5.89-7.2,1.4-3.37,2.03-6.87,2.58-10.29,1.38,2.65,3.04,5.34,5.04,8.14,3.41,4.77,7.4,7.73,12.21,9.07,1.02.29,2.01.44,2.94.44,1.75,0,3.32-.49,4.66-1.48,2.68-1.95,3.56-5.77,2.04-8.89-.82-1.67-1.81-3.21-2.78-4.71-.5-.8-1.02-1.58-1.49-2.39,5.1-.26,9.23-3.22,11.08-7.98,1.06-2.7,1.02-5.4.98-8.53v-.79s-.02-.08-.02-.08c-.31-3.29.51-6.76,2.33-9.78,1.51-2.53,3.58-4.71,5.57-6.71,1.03-1.04,2.07-2.05,3.12-3.07,2.49-2.42,5.07-4.92,7.37-7.68,2.61-3.15,4.5-6.13,5.79-9.12,1.55-3.58,2.66-7.6,3.47-12.65.92-5.64.87-10.72-.13-15.56ZM146.98,40.16c-.68,4.19-1.65,8.29-3.34,12.18-1.37,3.16-3.31,6-5.51,8.66-3.17,3.81-6.88,7.1-10.37,10.62-2.16,2.18-4.27,4.43-5.86,7.08-2.16,3.6-2.92,7.5-2.59,10.97.04,3.33.16,5.98-.83,8.5-1.61,4.13-5.16,6.61-9.59,6.76-.77.02-1.8-.32-2.2.48-.42.81.33,1.56.74,2.26,1.41,2.4,3.08,4.65,4.3,7.14,1.09,2.22.52,5.04-1.44,6.46-1.78,1.3-3.89,1.32-5.93.75-4.77-1.33-8.33-4.38-11.15-8.33-2.39-3.36-4.53-6.88-6.22-10.66-.25-.55-.5-1.36-1.14-1.3-.77.07-.57.96-.67,1.53-.75,4.37-1.25,8.8-2.97,12.95-1.05,2.54-2.41,4.91-4.98,6.22-3.27,1.67-6.54,1.55-9.69-.39-3.09-1.91-4.65-4.96-5.99-8.15-.4-.93-.73-1.89-1.15-2.81-.54-1.15-1.1-1.19-1.73-.08-1.2,2.09-2.69,3.94-4.36,5.65-2.48,2.55-5.35,4.59-8.85,5.41-3.03.7-5.52.15-7.04-2.42-1.28-2.18-.55-4.27.64-6.23,1.26-2.08,2.55-4.12,3.82-6.18.15-.24.27-.5.38-.78.47-1.16.25-1.54-1.01-1.52-2.33.04-4.54-.44-6.53-1.65-3.47-2.12-4.81-5.44-4.98-9.34-.09-2.02-.03-4.05,0-6.08.03-4.22-1.48-7.9-4.01-11.2-2.61-3.4-5.71-6.32-8.78-9.28-5.05-4.87-9.75-10.04-12.26-16.74-1.6-4.28-2.46-8.74-2.99-13.28-.47-3.99-.3-7.94.47-11.85,1.75-8.84,6.62-15.43,14.63-19.61,5.77-3.02,11.95-3.81,18.4-3.35,4.66.33,9.13,1.42,13.54,2.81,2.28.73,4.54,1.64,6.65,2.85.94.54,1.89.65,2.91.32,3.69-1.22,7.51-1.84,11.34-2.28,2.99-.35,6.06-.3,9.08.07,2.87.34,5.84.54,8.49,1.59,3.25,1.28,5.83.23,8.6-1.14,2.44-1.2,5.06-1.93,7.68-2.64,4.42-1.21,8.91-1.84,13.49-1.72,7.26.19,13.87,2.21,19.53,6.93,5.03,4.2,8.04,9.58,9.37,15.95,1.03,4.95.92,9.88.12,14.85Z"/>
    <path class="cls-1" d="M141.39,25.01c-.54-1.9-1.18-3.57-1.94-5.07-.76-1.48-1.63-2.78-2.64-3.95-4.17-4.8-9.82-7.56-16.79-8.19-7.19-.66-14.52.75-22.41,4.3-.28.13-.38.2-.4.24.02,0,.08.12.32.33,1.15,1.05,2.56,2.49,3.41,4.43.03.06.06.13.09.18.17.34.57,1.11-.2,1.66-.74.52-1.38-.03-1.72-.32l-.11-.1c-2.03-1.75-4.44-3.1-7.37-4.14-7.86-2.82-15.68-3.65-23.23-2.48-3.7.57-8.5,1.5-12.91,3.78-1.58.82-3.23,1.72-4.6,3-.24.22-.75.72-1.41.36-.77-.4-.56-1.2-.49-1.5.1-.37.23-.71.38-1.01.56-1.17,1.43-2.09,2.27-2.97l.42-.44c.31-.33.62-.66.74-.83-.18-.13-.63-.32-1.08-.51-.04-.02-.09-.04-.14-.06-7.15-3.02-13.81-4.32-20.36-4-4.04.21-7.7,1.14-10.87,2.75-7.42,3.75-11.63,10.13-12.5,18.98-.62,6.19.28,12.53,2.76,19.39,1.82,5.04,5.28,8.91,8.97,12.76,1.17,1.22,2.42,2.43,3.62,3.6,1.81,1.76,3.68,3.57,5.38,5.5,1.63,1.84,3.31,3.86,4.58,6.18,2.2,4.03,3.21,8.49,2.84,12.57,0,.65,0,1.26,0,1.83,0,1.12-.02,2,.02,2.89.12,2.97,1.78,4.92,4.55,5.37,1.15.18,2.48.36,3.82.12.62-.13.88-.33,1.05-.81,1.26-3.76,2.45-7.45,3-11.32.12-.82,0-1.4-.37-1.94-2.24-3.26-2.52-6.77-.85-10.43,1.4-3.07,2.37-6.53,2.96-10.58.1-.66-.05-1.13-.53-1.68-2.92-3.41-5-6.48-6.55-9.69-1.57-3.23-1.99-6.71-1.25-10.34,1.04-5.07,4.1-9.2,9.65-13.01l.1-.07c.27-.19,1.12-.79,1.71.02.55.76-.14,1.38-.4,1.61l-.12.11c-1.18,1.11-2.28,2.41-3.57,4.23-3.4,4.78-4.64,12.2.2,18.02,1.19,1.44,2.36,2.88,3.52,4.33.87,1.09,1.75,2.16,2.63,3.24.34.43.78,1.1.55,2.02-.79,3.07-1.59,6.07-2.85,8.95-1.23,2.79-1.6,5.17-1.17,7.51.13.7.39,1.18.78,1.45.41.28.98.35,1.72.2,1.75-.34,3.73-.72,5.8-.11.37.11.98.29,1.14.25,0-.08,0-.68-.02-1.16,0-.5-.03-1.05-.11-1.56-.16-1.11-.09-2.18.23-3.3.52-1.87,1.55-3.46,2.55-5.01l.18-.29c.16-.23.62-.92,1.41-.72.77.18.81.89.82,1.23l.06.73c.17,1.72.34,3.44.51,5.15.47,4.68.93,9.35,1.39,14.02.2,2.11.41,4.22.61,6.34.19,2.02.39,4.04.59,6.06l.11,1.02c.27,2.55.54,5.18.43,7.8v.13c0,.26.03,1.05-.81,1.13-.74.05-1.01-.68-1.12-1-.07-.17-.09-.34-.1-.49,0-.07-.02-.14-.03-.2l-.83-4.14c-.07-.32-.16-.4-.18-.42-.04-.02-.13-.02-.25,0-1.2.3-2.2-.13-2.85-.49,0,0-.02,0-.03-.02,0,0,0,.02,0,.02.25.6.51,1.18.78,1.76.53,1.19,1.09,2.43,1.53,3.68.55,1.54,1.33,2.96,2.38,4.32,1.04,1.36,2.61,2.13,4.19,2.03,1.46-.09,2.73-.88,3.49-2.16.43-.73.8-1.56,1.11-2.48.85-2.71,1.36-5.51,1.83-8.38l.3-1.8c.53-3.24,1.08-6.49,1.59-9.74,1.12-7.18,2.2-14.92,2.53-22.76.02-.43.06-1.16.85-1.34.73-.15,1.07.44,1.23.72l.07.12c.98,1.61,1.73,3.1,2.26,4.55.46,1.23.58,2.43.39,3.54-.1.57-.11,1.14-.11,1.73,0,.35,0,.69-.03,1.04-.02.32.05.42.05.43h.04s.16,0,.38-.1c2.32-.9,4.57-.56,6.46-.13.68.16,1.23.11,1.66-.16.44-.27.75-.8.9-1.54.36-1.68.18-3.49-.51-5.4-1.44-3.84-2.57-7.11-3.46-10.54-.28-1.04-.12-1.84.54-2.62.98-1.16,1.94-2.36,2.9-3.54.85-1.07,1.72-2.13,2.59-3.16,4.21-5.04,4.89-10.64,2.02-16.65-.99-2.08-2.35-3.94-4.03-5.53-.41-.37-.8-.77-1.17-1.17-.61-.67-.33-1.2-.18-1.4.21-.3.64-.58,1.4-.18.22.12.41.24.6.38,2.69,1.87,6.02,4.53,7.93,8.49,2.28,4.74,2.58,9.09.91,13.3-1.78,4.48-4.7,8.2-7.05,10.93-.5.58-.75,1.02-.66,1.66.47,3.79,1.48,7.45,3.01,10.9,1.61,3.62,1.33,7.07-.84,10.23-.37.55-.5,1.02-.44,1.5.46,3.67,1.45,7.49,3.13,12.03.17.45.39.61.85.62.21,0,.44.04.65.08.17.02.36.06.53.06,2.59.06,4.51-.49,5.7-1.65,1.06-1.03,1.59-2.59,1.6-4.65v-1.13c.02-1.19.04-2.43,0-3.63-.21-5.66,1.68-10.91,5.77-16.07,2.14-2.7,4.62-5.12,7.03-7.44,1.22-1.18,2.48-2.41,3.68-3.65,2.46-2.55,5.01-5.32,6.92-8.55,2.6-4.41,4.07-9.54,4.76-16.66.42-4.33.16-8.04-.8-11.33ZM56.8,51.98c0,.07,0,.16-.02.24,0,.35-.04,1.07-.79,1.24-.08.02-.16.02-.22.02-.69,0-.96-.79-1.07-1.11-.52-1.49-1.3-2.2-2.72-2.51-2.19-.49-3.83-3.18-3.83-5.26,0-1.17,1.02-2.12,2.44-2.25,1.82-.18,3.27.69,4.29,2.55,1.12,2.06,1.49,4.33,1.86,6.52l.08.47-.02.09ZM68.84,55.82c.05-.51.52-.85.78-1.05l.09-.07c2.83-2.21,8.1-2.14,10.86.16.22.19.45.44.52.84,0,0,0,0,0,.02.06.09.1.19.1.33-.03.22-.12.28-.15.3,0,0-.03.02-.06.03-.03,0-.06,0-.1,0-.15,0-.33-.06-.49-.11-1.09-.32-2.07-.61-3.11-.8-.71-.13-1.42-.18-2.15-.18-1.58,0-3.24.28-5.24.91l-.25.1c-.16.05-.37.13-.54.13-.06,0-.1,0-.14-.02-.05-.03-.1-.07-.15-.16-.09-.15-.11-.27.02-.45ZM67.74,59.31h0c3.04-2.34,6.19-3.11,9.63-2.34,2.05.47,3.7,1.26,5.04,2.44.21.19.74.64.45,1.3-.27.64-.95.59-1.31.56l-.17-.05c-1.31-.59-2.79-.85-4.19-1.06-2.81-.39-5.63-.05-8.38,1.01-.05.02-.11.05-.16.08-.15.07-.41.19-.69.19-.26,0-.55-.12-.78-.5-.49-.82.27-1.41.55-1.63ZM84.22,65.97c-.22.43-.58.52-.89.52-.2,0-.39-.04-.51-.07-.46-.12-.89-.28-1.31-.45-.43-.15-.82-.31-1.25-.41-4.52-1.08-8.7-.83-12.78.76-.26.11-1.09.44-1.56-.34-.32-.51-.18-1.04.42-1.55,1.68-1.46,3.8-2.41,6.69-2.97.49-.09.96-.16,1.46-.21l.7-.1h.07c2.7.38,5.53.98,7.99,2.84.24.18.47.4.68.62.46.47.55.91.32,1.35ZM98.77,42.32h.05c1.51,0,2.25.56,2.61,1.03.32.43.63,1.18.3,2.37-.63,2.28-2.03,3.76-4.03,4.25-1.11.27-1.73.84-2.14,1.97-.1.26-.19.51-.32.76-.3.54-.65.69-.96.69-.11,0-.19,0-.28-.04-.52-.15-.81-.61-.75-1.21.13-.91.27-1.82.43-2.72.39-2.12,1.06-3.88,2.06-5.41.65-.98,1.67-1.55,3.04-1.69Z"/>
    <g>
      <path class="cls-2" d="M96.75,86.67c.95,2.02.89,5.07,1.36,7.45,1.94,9.71,6.42,16.78,9.56,21.69.31.44.31,1.02,0,1.42-.25.33-.68.49-1.1.42-1.28-.49-2.67-1.05-3.72-1.66-10.56-6.05-13.84-18.39-14.89-23.63-.46-3.13,1.24-5.96,3.72-6.75,2.54-.81,4.69.25,5.06,1.05Z"/>
      <path class="cls-2" d="M53.31,86.67c-.95,2.02-.89,5.07-1.36,7.45-1.94,9.71-6.42,16.78-9.56,21.69-.31.44-.31,1.02,0,1.42.25.33.68.49,1.1.42,1.28-.49,2.67-1.05,3.72-1.66,10.56-6.05,13.84-18.39,14.89-23.63.46-3.13-1.24-5.96-3.72-6.75-2.54-.81-4.69.25-5.06,1.05Z"/>
    </g>
  </g>
  <g>
    <path class="cls-1" d="M183.46,38.34c1.27-1.29,2.81-2.28,4.62-2.97,1.81-.68,3.81-1.03,6.01-1.03,2.49,0,4.75.48,6.78,1.43,2.03.95,3.92,2.38,5.68,4.29l9.24-8.36c-2.49-3.03-5.64-5.35-9.46-6.96-3.81-1.61-8.14-2.42-12.98-2.42-4.15,0-7.98.65-11.47,1.94-3.49,1.29-6.51,3.14-9.05,5.53-2.54,2.4-4.52,5.22-5.94,8.47-1.42,3.25-2.13,6.83-2.13,10.74s.71,7.49,2.13,10.74c1.42,3.25,3.38,6.07,5.9,8.47,2.52,2.39,5.51,4.24,8.98,5.53,3.47,1.29,7.23,1.94,11.29,1.94,3.71,0,7.5-.56,11.36-1.69,3.86-1.12,7.26-2.74,10.19-4.84v-21.26h-12.83v14.08c-.51.24-1.03.45-1.54.62-2.05.71-4.15,1.06-6.3,1.06s-4.12-.35-5.9-1.06c-1.78-.71-3.31-1.71-4.58-3.01-1.27-1.29-2.26-2.85-2.97-4.65-.71-1.81-1.06-3.79-1.06-5.94s.35-4.26,1.06-6.05c.71-1.78,1.7-3.32,2.97-4.62Z"/>
    <path class="cls-1" d="M236.5,64.7h21.76l4,9.97h15.1l-22.72-51.31h-14.29l-22.65,51.31h14.81l4-9.97ZM240.79,53.99l6.58-16.41,6.58,16.41h-13.17Z"/>
    <path class="cls-1" d="M327.72,42.34c0-3.91-.93-7.29-2.78-10.15-1.86-2.86-4.48-5.05-7.88-6.56-3.4-1.51-7.44-2.27-12.13-2.27h-23.46v51.31h14.51v-13.42h8.94c4.69,0,8.73-.77,12.13-2.31,3.4-1.54,6.02-3.73,7.88-6.56,1.86-2.83,2.78-6.18,2.78-10.04ZM310.82,47.84c-1.49,1.32-3.75,1.98-6.78,1.98h-8.06v-15.03h8.06c3.03,0,5.29.66,6.78,1.98,1.49,1.32,2.24,3.18,2.24,5.57s-.75,4.18-2.24,5.5Z"/>
    <path class="cls-1" d="M367.75,51.36c0,4.4-.85,7.55-2.56,9.46-1.71,1.91-4.08,2.86-7.11,2.86s-5.41-.95-7.15-2.86c-1.74-1.91-2.6-5.06-2.6-9.46v-28h-14.51v28.44c0,7.62,2.13,13.51,6.38,17.67,4.25,4.16,10.16,6.23,17.74,6.23s13.49-2.08,17.74-6.23c4.25-4.15,6.38-10.04,6.38-17.67v-28.44h-14.29v28Z"/>
    <path class="cls-1" d="M406.38,61.03h7.92l9.3,13.64h15.54l-11.09-16.16c3.1-1.47,5.53-3.52,7.28-6.16,1.86-2.81,2.78-6.15,2.78-10.01s-.93-7.29-2.78-10.15c-1.86-2.86-4.48-5.05-7.88-6.56-3.4-1.51-7.44-2.27-12.13-2.27h-23.46v51.31h14.51v-13.64ZM421.22,36.77c1.49,1.32,2.24,3.18,2.24,5.57s-.75,4.18-2.24,5.5c-1.49,1.32-3.75,1.98-6.78,1.98h-8.06v-15.03h8.06c3.03,0,5.29.66,6.78,1.98Z"/>
    <path class="cls-1" d="M451.57,68.11c2.57,2.42,5.58,4.29,9.05,5.61,3.47,1.32,7.26,1.98,11.36,1.98s7.95-.66,11.4-1.98,6.44-3.18,8.98-5.57c2.54-2.39,4.53-5.22,5.97-8.47,1.44-3.25,2.16-6.81,2.16-10.67s-.72-7.4-2.16-10.63c-1.44-3.22-3.43-6.05-5.97-8.47s-5.53-4.29-8.98-5.61-7.25-1.98-11.4-1.98-7.89.66-11.36,1.98c-3.47,1.32-6.49,3.19-9.05,5.61-2.56,2.42-4.56,5.24-5.97,8.47-1.42,3.23-2.13,6.77-2.13,10.63s.71,7.4,2.13,10.63c1.42,3.22,3.41,6.05,5.97,8.47ZM459.19,42.96c.71-1.78,1.69-3.32,2.93-4.62s2.71-2.28,4.4-2.97c1.69-.68,3.51-1.03,5.46-1.03s3.78.34,5.46,1.03,3.15,1.67,4.4,2.97c1.25,1.29,2.22,2.84,2.93,4.62.71,1.79,1.06,3.8,1.06,6.05s-.35,4.2-1.06,6.01c-.71,1.81-1.69,3.36-2.93,4.66-1.25,1.29-2.71,2.28-4.4,2.97s-3.51,1.03-5.46,1.03-3.78-.34-5.46-1.03c-1.69-.68-3.15-1.67-4.4-2.97s-2.22-2.85-2.93-4.66c-.71-1.81-1.06-3.81-1.06-6.01s.35-4.26,1.06-6.05Z"/>
    <path class="cls-1" d="M172.06,89.41c.63-.63,1.37-1.11,2.23-1.45.86-.33,1.8-.5,2.83-.5,1.09,0,2.09.22,3.02.64.92.43,1.76,1.07,2.51,1.93l3.27-3.02c-1.05-1.28-2.34-2.25-3.88-2.91s-3.26-.99-5.17-.99c-1.72,0-3.3.28-4.75.83-1.45.56-2.71,1.35-3.79,2.37-1.08,1.03-1.92,2.23-2.51,3.62-.6,1.38-.9,2.9-.9,4.56s.3,3.18.9,4.56c.6,1.38,1.43,2.59,2.5,3.62,1.07,1.03,2.33,1.82,3.79,2.37,1.46.56,3.03.83,4.73.83,1.93,0,3.66-.34,5.2-1,1.54-.67,2.83-1.65,3.88-2.92l-3.27-3.02c-.75.88-1.59,1.54-2.51,1.96-.92.43-1.93.64-3.02.64-1.03,0-1.97-.17-2.83-.5-.86-.34-1.6-.82-2.23-1.45-.63-.63-1.12-1.37-1.46-2.23s-.52-1.81-.52-2.86.17-2,.52-2.86c.35-.86.83-1.6,1.46-2.23Z"/>
    <polygon class="cls-1" points="198.52 99.22 191.83 83.5 186.33 83.5 195.82 105.5 200.85 105.5 210.37 83.5 205.31 83.5 198.52 99.22"/>
    <path class="cls-1" d="M227.33,89.41c.64-.63,1.4-1.11,2.28-1.45.88-.33,1.85-.5,2.92-.5s2.14.2,3.08.61c.94.41,1.81,1.03,2.61,1.87l3.27-3.02c-1.07-1.24-2.38-2.18-3.94-2.83-1.56-.65-3.32-.97-5.27-.97-1.76,0-3.37.28-4.84.83-1.47.56-2.74,1.35-3.83,2.37-1.09,1.03-1.93,2.23-2.53,3.62-.6,1.38-.9,2.9-.9,4.56s.3,3.18.9,4.56c.6,1.38,1.44,2.59,2.51,3.62,1.08,1.03,2.35,1.82,3.8,2.37,1.46.56,3.05.83,4.79.83,1.57,0,3.15-.24,4.73-.72s2.97-1.17,4.16-2.07v-8.93h-4.65v6.45c-.34.18-.68.33-1.02.45-.95.33-1.93.49-2.94.49s-2.01-.17-2.88-.5c-.87-.34-1.62-.82-2.26-1.46s-1.13-1.39-1.48-2.25c-.35-.86-.52-1.8-.52-2.83s.17-2,.52-2.86c.35-.86.84-1.6,1.48-2.23Z"/>
    <path class="cls-1" d="M260.41,105.5v-9.65c0-2.58-.71-4.47-2.14-5.69s-3.43-1.82-6-1.82c-1.34,0-2.66.18-3.96.53s-2.41.86-3.33,1.51l1.76,3.43c.61-.48,1.35-.86,2.22-1.15.87-.28,1.75-.42,2.66-.42,1.32,0,2.3.29,2.94.88.64.59.96,1.4.96,2.45h-3.9c-1.72,0-3.11.21-4.18.64-1.07.43-1.85,1.02-2.34,1.78-.49.75-.74,1.63-.74,2.64s.25,1.84.75,2.61c.5.78,1.23,1.39,2.17,1.84.94.45,2.07.68,3.39.68,1.49,0,2.7-.28,3.65-.85.64-.39,1.14-.9,1.51-1.53v2.13h4.59ZM254.09,101.87c-.65.39-1.38.58-2.2.58-.86,0-1.54-.18-2.03-.55-.49-.37-.74-.86-.74-1.49,0-.56.22-1.04.64-1.41s1.22-.56,2.37-.56h3.36v1.73c-.29.75-.76,1.33-1.41,1.71Z"/>
    <path class="cls-1" d="M265.06,105.5c0,.82-.18,1.43-.55,1.84-.37.41-.85.61-1.46.61-.82,0-1.51-.2-2.07-.6l-1.32,3.55c.48.31,1.07.55,1.76.71.69.16,1.41.24,2.17.24,2.03,0,3.6-.58,4.71-1.73,1.11-1.15,1.67-2.7,1.67-4.65v-16.88h-4.9v16.91Z"/>
    <path class="cls-1" d="M267.51,80.77c-.9,0-1.63.26-2.2.79s-.85,1.17-.85,1.95.28,1.43.85,1.95,1.3.78,2.2.78,1.66-.27,2.22-.8.83-1.21.83-2.03-.28-1.41-.85-1.9c-.56-.49-1.3-.74-2.2-.74Z"/>
    <path class="cls-1" d="M287.31,90.17c-1.42-1.22-3.43-1.82-6-1.82-1.34,0-2.66.18-3.96.53s-2.41.86-3.33,1.51l1.76,3.43c.61-.48,1.35-.86,2.22-1.15.87-.28,1.75-.42,2.66-.42,1.32,0,2.3.29,2.94.88.64.59.96,1.4.96,2.45h-3.9c-1.72,0-3.11.21-4.18.64-1.07.43-1.85,1.02-2.34,1.78-.49.75-.74,1.63-.74,2.64s.25,1.84.75,2.61c.5.78,1.23,1.39,2.17,1.84.94.45,2.07.68,3.39.68,1.49,0,2.7-.28,3.65-.85.64-.39,1.14-.9,1.51-1.53v2.13h4.59v-9.65c0-2.58-.71-4.47-2.14-5.69ZM283.13,101.87c-.65.39-1.38.58-2.2.58-.86,0-1.54-.18-2.03-.55-.49-.37-.74-.86-.74-1.49,0-.56.22-1.04.64-1.41s1.22-.56,2.37-.56h3.36v1.73c-.29.75-.76,1.33-1.41,1.71Z"/>
    <path class="cls-1" d="M307.76,89.14c-1.06-.53-2.26-.8-3.6-.8-1.45,0-2.73.31-3.87.91-.57.31-1.07.68-1.51,1.12v-8.19h-4.9v23.32h4.9v-8.36c0-1.05.17-1.91.52-2.58.35-.67.83-1.17,1.45-1.49.62-.33,1.31-.49,2.09-.49,1.09,0,1.93.32,2.53.97.6.65.9,1.65.9,3.02v8.93h4.9v-9.68c0-1.72-.3-3.13-.91-4.23-.61-1.1-1.44-1.92-2.5-2.45Z"/>
    <path class="cls-1" d="M339.46,84.46c-1.43-.64-3.12-.96-5.09-.96h-9.52v22h5.09v-6.07h4.43c1.97,0,3.67-.32,5.09-.96,1.42-.64,2.53-1.56,3.3-2.75s1.16-2.61,1.16-4.24-.39-3.08-1.16-4.27c-.78-1.19-1.88-2.11-3.3-2.75ZM337.6,94.28c-.78.67-1.95,1.01-3.52,1.01h-4.15v-7.64h4.15c1.57,0,2.74.34,3.52,1,.77.67,1.16,1.61,1.16,2.83s-.39,2.13-1.16,2.8Z"/>
    <path class="cls-1" d="M359.64,96.95c0,1.03-.17,1.88-.5,2.56-.34.68-.8,1.18-1.38,1.51-.59.32-1.26.49-2.01.49-1.09,0-1.93-.33-2.53-.99s-.9-1.69-.9-3.1v-8.83h-4.9v9.55c0,1.74.3,3.17.91,4.29.61,1.12,1.46,1.95,2.56,2.5,1.1.54,2.35.82,3.76.82,1.3,0,2.5-.3,3.6-.9.65-.35,1.19-.81,1.65-1.36v2.01h4.65v-16.91h-4.9v8.36Z"/>
    <path class="cls-1" d="M376.7,101.86c-.65,0-1.16-.19-1.54-.58-.38-.39-.57-.94-.57-1.65v-6.88h4.21v-3.77h-4.21v-4.12h-4.9v4.12h-2.61v3.77h2.61v6.95c0,2.01.55,3.53,1.67,4.54s2.66,1.52,4.65,1.52c.75,0,1.48-.09,2.18-.27.7-.18,1.3-.45,1.81-.8l-1.32-3.46c-.55.42-1.21.63-1.98.63Z"/>
    <rect class="cls-1" x="382.77" y="88.59" width="4.9" height="16.91"/>
    <path class="cls-1" d="M385.22,80.77c-.9,0-1.63.26-2.2.79s-.85,1.17-.85,1.95.28,1.43.85,1.95,1.3.78,2.2.78,1.66-.27,2.22-.8c.55-.53.83-1.21.83-2.03s-.28-1.41-.85-1.9c-.57-.49-1.3-.74-2.2-.74Z"/>
    <path class="cls-1" d="M406.11,89.14c-1.06-.53-2.26-.8-3.6-.8-1.45,0-2.73.31-3.87.91-.57.31-1.07.68-1.51,1.12v-8.19h-4.9v23.32h4.9v-8.36c0-1.05.17-1.91.52-2.58.35-.67.83-1.17,1.45-1.49.62-.33,1.31-.49,2.09-.49,1.09,0,1.93.32,2.53.97.6.65.9,1.65.9,3.02v8.93h4.9v-9.68c0-1.72-.3-3.13-.91-4.23-.61-1.1-1.44-1.92-2.5-2.45Z"/>
    <path class="cls-1" d="M430.1,83.5l-9.81,22h5.22l1.96-4.71h10.2l1.95,4.71h5.34l-9.84-22h-5.03ZM429.08,96.92l3.5-8.42,3.49,8.42h-6.99Z"/>
    <path class="cls-1" d="M459.55,90.76c-.51-.65-1.11-1.18-1.82-1.55-1.09-.58-2.35-.86-3.77-.86-1.57,0-2.99.34-4.26,1.01-1.27.67-2.28,1.62-3.05,2.84-.77,1.23-1.15,2.67-1.15,4.32s.38,3.07,1.15,4.29c.76,1.23,1.78,2.18,3.05,2.86,1.27.68,2.69,1.02,4.26,1.02,1.43,0,2.68-.29,3.77-.88.6-.32,1.12-.75,1.57-1.26v.76c0,1.53-.39,2.68-1.18,3.46s-2.05,1.16-3.79,1.16c-1.07,0-2.15-.17-3.25-.52-1.1-.35-2.01-.81-2.72-1.4l-1.95,3.52c.98.77,2.22,1.36,3.69,1.74,1.48.39,3.01.58,4.6.58,3.06,0,5.41-.74,7.04-2.23,1.64-1.49,2.45-3.8,2.45-6.95v-14.08h-4.65v2.17ZM458.8,98.68c-.38.63-.9,1.12-1.57,1.46-.67.35-1.44.52-2.29.52s-1.62-.17-2.29-.52c-.67-.35-1.2-.83-1.59-1.46-.39-.63-.58-1.35-.58-2.17s.19-1.57.58-2.18.92-1.1,1.59-1.45c.67-.35,1.44-.52,2.29-.52s1.62.17,2.29.52c.67.35,1.19.83,1.57,1.45s.57,1.35.57,2.18-.19,1.54-.57,2.17Z"/>
    <path class="cls-1" d="M473.45,90.84v-2.25h-4.68v16.91h4.9v-7.98c0-1.61.41-2.8,1.24-3.57.83-.76,1.91-1.15,3.25-1.15.19,0,.37,0,.53.02.17.01.36.03.57.05v-4.53c-1.59,0-2.94.31-4.05.93-.72.4-1.3.93-1.76,1.58Z"/>
    <path class="cls-1" d="M494.85,89.46c-1.4-.74-3-1.12-4.78-1.12s-3.4.37-4.79,1.12c-1.39.74-2.49,1.77-3.3,3.08s-1.21,2.81-1.21,4.51.4,3.17,1.21,4.48,1.91,2.34,3.3,3.1c1.39.75,2.99,1.13,4.79,1.13s3.37-.38,4.78-1.13,2.5-1.79,3.3-3.1,1.19-2.8,1.19-4.48-.4-3.23-1.19-4.53c-.8-1.3-1.9-2.32-3.3-3.07ZM493.81,99.55c-.38.7-.89,1.24-1.54,1.62-.65.38-1.38.57-2.2.57s-1.55-.19-2.2-.57-1.17-.92-1.56-1.62c-.39-.7-.58-1.53-.58-2.5s.19-1.82.58-2.51c.39-.69.91-1.23,1.56-1.6s1.38-.56,2.2-.56,1.55.19,2.2.56c.65.38,1.16.91,1.54,1.6.38.69.57,1.53.57,2.51s-.19,1.8-.57,2.5Z"/>
  </g>
</svg>