<?xml version="1.0" encoding="UTF-8"?>
<svg id="Layer_1" xmlns="http://www.w3.org/2000/svg" viewBox="0 0 550 550">
  <defs>
    <style>
      .cls-1 {
        fill: #116530;
      }

      .cls-2 {
        fill: #d89f00;
      }
    </style>
  </defs>
  <g>
    <g>
      <path class="cls-1" d="M141.09,301.76c.04,3.34.15,5.99-.84,8.53-1.62,4.14-5.19,6.63-9.63,6.78-.77.02-1.8-.32-2.21.49-.41.8.33,1.56.75,2.27,1.41,2.41,3.08,4.66,4.32,7.17,1.09,2.22.53,5.05-1.44,6.48-1.79,1.3-3.91,1.33-5.95.76-4.79-1.33-8.37-4.4-11.19-8.37-2.41-3.37-4.55-6.91-6.25-10.7-.25-.55-.49-1.37-1.14-1.31-.77.07-.57.96-.67,1.54-.75,4.39-1.26,8.85-2.98,13.01-1.05,2.55-2.42,4.93-4.99,6.24-3.29,1.68-6.57,1.56-9.73-.39-3.1-1.91-4.66-4.98-6.01-8.19-.39-.93-.72-1.9-1.16-2.81-.54-1.14-1.1-1.19-1.74-.08-1.2,2.09-2.7,3.95-4.37,5.67-2.49,2.56-5.37,4.61-8.9,5.43-3.03.7-5.54.16-7.06-2.43-1.29-2.19-.55-4.28.64-6.25,1.26-2.08,2.56-4.13,3.83-6.2.15-.25.28-.51.38-.78.47-1.18.25-1.55-1.01-1.53-2.35.04-4.57-.44-6.56-1.65-3.49-2.12-4.83-5.47-5-9.37-.09-2.03-.02-4.07,0-6.1.03-4.24-1.48-7.93-4.03-11.25-2.62-3.41-5.73-6.34-8.81-9.31-5.07-4.89-9.79-10.07-12.31-16.81-1.6-4.29-2.47-8.77-3-13.33-.47-4.01-.31-7.97.47-11.9,1.76-8.88,6.64-15.49,14.68-19.69,5.79-3.02,11.99-3.82,18.47-3.36,4.68.33,9.17,1.42,13.59,2.82,2.3.73,4.57,1.65,6.67,2.87.95.55,1.91.66,2.93.32,3.7-1.22,7.54-1.84,11.38-2.29,3.01-.35,6.08-.3,9.13.06,2.88.35,5.86.55,8.52,1.6,3.26,1.29,5.86.23,8.63-1.14,2.44-1.21,5.08-1.93,7.7-2.65,4.44-1.21,8.95-1.85,13.55-1.73,7.28.2,13.92,2.23,19.6,6.97,5.05,4.22,8.07,9.62,9.4,16.01,1.04,4.96.93,9.91.12,14.91-.68,4.21-1.66,8.32-3.35,12.23-1.38,3.18-3.32,6.02-5.54,8.69-3.19,3.83-6.91,7.14-10.41,10.66-2.17,2.19-4.29,4.44-5.89,7.1-2.17,3.61-2.93,7.53-2.59,11.01ZM56.97,301.5c0,2.06-.05,3.44,0,4.82.13,3.19,1.97,5.36,4.98,5.85,1.32.21,2.64.37,4,.11.74-.14,1.19-.43,1.43-1.12,1.27-3.75,2.48-7.52,3.03-11.45.11-.8.05-1.56-.45-2.28-2.17-3.17-2.42-6.5-.82-10,1.56-3.42,2.47-7.04,3.01-10.76.12-.81-.09-1.43-.65-2.08-2.53-2.95-4.81-6.09-6.51-9.61-1.57-3.23-1.92-6.58-1.22-10.07,1.16-5.73,4.87-9.58,9.48-12.75.33-.22.79-.64,1.15-.16.34.46-.17.8-.47,1.08-1.38,1.3-2.55,2.78-3.64,4.32-3.88,5.46-4.44,13.07.23,18.69,2.09,2.51,4.11,5.08,6.18,7.6.4.49.61.97.45,1.6-.77,3.02-1.58,6.03-2.84,8.9-1.1,2.5-1.71,5.09-1.21,7.83.31,1.71,1.37,2.37,3.08,2.04,1.86-.36,3.7-.68,5.59-.12,1.76.52,1.78.46,1.75-1.39,0-.54-.03-1.09-.11-1.63-.16-1.06-.08-2.08.21-3.12.54-1.93,1.63-3.55,2.7-5.19.19-.3.46-.63.88-.52.51.13.43.61.47.99.19,1.91.38,3.82.57,5.74.47,4.69.94,9.38,1.4,14.07.41,4.15.79,8.3,1.21,12.45.29,2.92.67,5.84.53,8.79-.01.3.08.75-.37.78-.38.03-.51-.36-.62-.66-.07-.2-.07-.43-.11-.64-.27-1.39-.55-2.78-.82-4.16-.11-.57-.39-.96-1.05-.79-.91.24-1.72-.02-2.5-.45-.25-.14-.52-.39-.79-.14-.28.25-.01.54.09.79.77,1.8,1.64,3.56,2.3,5.4.59,1.64,1.42,3.11,2.46,4.46,2.34,3.06,6.67,2.96,8.53-.19.48-.81.86-1.69,1.15-2.58.88-2.77,1.39-5.62,1.86-8.48.64-3.86,1.3-7.72,1.9-11.59,1.18-7.6,2.23-15.21,2.55-22.91.02-.36,0-.78.46-.88.46-.1.61.31.79.61.87,1.43,1.65,2.91,2.23,4.48.39,1.07.57,2.18.37,3.32-.16.94-.09,1.88-.15,2.82-.05.89.36,1.12,1.13.82,2.06-.8,4.12-.59,6.2-.11,1.69.39,2.79-.36,3.16-2.09.42-1.95.13-3.89-.54-5.68-1.3-3.47-2.53-6.95-3.46-10.54-.22-.84-.14-1.5.45-2.2,1.87-2.21,3.65-4.51,5.52-6.73,4.44-5.3,5.04-11.06,2.09-17.23-1.02-2.14-2.41-4.05-4.15-5.69-.4-.37-.77-.77-1.14-1.17-.2-.22-.36-.51-.16-.79.21-.29.52-.18.79-.04.19.1.37.22.55.35,3.19,2.23,6.08,4.79,7.8,8.34,2.01,4.16,2.67,8.5.9,12.96-1.61,4.07-4.16,7.54-6.98,10.83-.52.61-.89,1.19-.78,2.04.48,3.85,1.49,7.55,3.06,11.08,1.53,3.43,1.33,6.69-.8,9.8-.38.55-.62,1.15-.53,1.84.53,4.2,1.71,8.23,3.17,12.18.23.63.63.93,1.3.95.4.01.79.13,1.19.14,4.47.1,7.81-1.51,7.83-6.81,0-1.6.04-3.2-.02-4.79-.22-6.04,2.02-11.18,5.69-15.82,3.21-4.05,7.16-7.39,10.72-11.1,2.59-2.69,5.11-5.44,7.02-8.68,3.07-5.21,4.27-11.01,4.84-16.91.37-3.85.28-7.77-.81-11.56-.98-3.38-2.37-6.55-4.7-9.23-4.54-5.22-10.45-7.78-17.17-8.39-7.95-.73-15.5,1.09-22.74,4.35-.86.39-.92.75-.22,1.39,1.35,1.23,2.56,2.57,3.31,4.27.19.42.57.9.05,1.26-.48.34-.88-.09-1.24-.39-2.23-1.91-4.79-3.26-7.54-4.24-7.65-2.74-15.5-3.76-23.57-2.52-4.53.7-8.98,1.72-13.11,3.84-1.68.87-3.33,1.77-4.72,3.08-.24.22-.51.48-.86.29-.41-.22-.33-.62-.24-.97.08-.31.21-.62.35-.91.6-1.27,1.61-2.23,2.55-3.23,1.37-1.45,1.39-1.42-.49-2.23-.03-.01-.07-.03-.1-.04-6.6-2.79-13.43-4.4-20.64-4.04-3.89.2-7.64,1.05-11.11,2.8-7.95,4.02-11.96,10.83-12.82,19.46-.67,6.73.5,13.31,2.8,19.67,1.86,5.16,5.42,9.14,9.11,12.99,2.96,3.09,6.19,5.92,9.03,9.13,1.68,1.9,3.3,3.88,4.52,6.11,2.22,4.05,3.16,8.4,2.8,12.33Z"/>
      <path class="cls-1" d="M77.85,263.85c-.07.39.07.98-.44,1.1-.45.1-.63-.45-.75-.79-.52-1.51-1.37-2.44-3.07-2.82-1.91-.42-3.46-2.85-3.47-4.8,0-.9.83-1.66,2-1.77,1.84-.17,3.03.83,3.84,2.31,1.15,2.1,1.49,4.44,1.88,6.78Z"/>
      <path class="cls-1" d="M120.5,254.73c2.01,0,2.93,1.08,2.46,2.79-.53,1.93-1.71,3.44-3.69,3.93-1.35.34-2.06,1.09-2.5,2.29-.09.24-.17.48-.29.7-.14.26-.34.5-.69.41-.34-.1-.42-.41-.39-.7.11-.9.25-1.79.41-2.69.34-1.87.95-3.65,2-5.24.68-1.03,1.72-1.39,2.69-1.48Z"/>
      <path class="cls-1" d="M96.76,273.64c2.79.37,5.49.99,7.8,2.74.23.17.44.38.64.59.21.21.39.47.23.77-.2.37-.55.29-.87.21-.88-.21-1.68-.64-2.57-.85-4.47-1.06-8.83-.89-13.13.78-.34.13-.73.26-.98-.14-.25-.4.05-.7.32-.93,1.87-1.61,4.11-2.4,6.49-2.87.67-.13,1.36-.19,2.06-.29Z"/>
      <path class="cls-1" d="M103.22,272.78c-1.34-.6-2.83-.89-4.34-1.1-2.98-.41-5.86-.04-8.66,1.02-.36.14-.76.49-1.04-.02-.26-.45.14-.77.44-1,2.75-2.12,5.79-3.05,9.26-2.26,1.81.41,3.45,1.11,4.85,2.33.21.19.47.41.33.74-.14.32-.46.3-.83.28Z"/>
      <path class="cls-1" d="M102.25,267.89c-.07.61-.49.55-.95.41-.9-.28-1.8-.54-2.73-.71-2.21-.4-4.31-.01-6.41.64-.4.12-.91.43-1.18-.05-.29-.53.24-.84.6-1.12,2.65-2.07,7.73-1.99,10.29.15.2.17.36.35.37.68Z"/>
    </g>
    <g>
      <path class="cls-2" d="M118.43,298.76c.96,2.03.89,5.09,1.37,7.48,1.95,9.75,6.45,16.85,9.6,21.78.32.44.31,1.02,0,1.42-.25.33-.68.49-1.11.42-1.29-.49-2.68-1.05-3.74-1.66-10.6-6.07-13.89-18.46-14.94-23.72-.46-3.14,1.25-5.98,3.74-6.78,2.55-.81,4.71.25,5.08,1.05Z"/>
      <path class="cls-2" d="M74.82,298.76c-.96,2.03-.89,5.09-1.37,7.48-1.95,9.75-6.45,16.85-9.6,21.78-.32.44-.31,1.02,0,1.42.25.33.68.49,1.11.42,1.29-.49,2.68-1.05,3.74-1.66,10.6-6.07,13.89-18.46,14.94-23.72.46-3.14-1.25-5.98-3.74-6.78-2.55-.81-4.71.25-5.08,1.05Z"/>
    </g>
  </g>
  <g>
    <path class="cls-1" d="M205.48,250.25c1.28-1.3,2.82-2.29,4.64-2.98,1.81-.69,3.83-1.03,6.03-1.03,2.5,0,4.77.48,6.81,1.43,2.04.96,3.94,2.39,5.7,4.31l9.27-8.39c-2.5-3.04-5.67-5.37-9.49-6.99s-8.17-2.43-13.03-2.43c-4.17,0-8.01.65-11.52,1.95-3.51,1.3-6.54,3.15-9.09,5.56-2.55,2.4-4.54,5.24-5.96,8.5-1.42,3.26-2.13,6.86-2.13,10.78s.71,7.52,2.13,10.78c1.42,3.26,3.4,6.1,5.92,8.5,2.53,2.4,5.53,4.26,9.01,5.56,3.48,1.3,7.26,1.95,11.33,1.95,3.73,0,7.53-.57,11.41-1.69,3.87-1.13,7.29-2.75,10.23-4.86v-21.34h-12.88v14.13c-.52.24-1.03.45-1.55.63-2.06.71-4.17,1.07-6.33,1.07s-4.13-.36-5.92-1.07c-1.79-.71-3.32-1.72-4.6-3.02-1.28-1.3-2.27-2.86-2.98-4.67-.71-1.81-1.07-3.8-1.07-5.96s.36-4.28,1.07-6.07c.71-1.79,1.7-3.34,2.98-4.64Z"/>
    <path class="cls-1" d="M258.73,276.7h21.84l4.02,10.01h15.16l-22.81-51.51h-14.35l-22.74,51.51h14.87l4.02-10.01ZM263.04,265.96l6.61-16.47,6.61,16.47h-13.22Z"/>
    <path class="cls-1" d="M350.3,254.26c0-3.92-.93-7.32-2.8-10.19-1.87-2.87-4.5-5.06-7.91-6.59-3.41-1.52-7.47-2.28-12.18-2.28h-23.55v51.51h14.57v-13.47h8.98c4.71,0,8.77-.77,12.18-2.32,3.41-1.55,6.05-3.74,7.91-6.59,1.86-2.84,2.8-6.21,2.8-10.08ZM333.34,259.78c-1.5,1.32-3.77,1.99-6.81,1.99h-8.09v-15.09h8.09c3.04,0,5.31.66,6.81,1.99,1.5,1.32,2.24,3.19,2.24,5.59s-.75,4.19-2.24,5.52Z"/>
    <path class="cls-1" d="M390.48,263.31c0,4.42-.86,7.58-2.58,9.49-1.72,1.91-4.1,2.87-7.14,2.87s-5.43-.96-7.18-2.87c-1.74-1.91-2.61-5.08-2.61-9.49v-28.11h-14.57v28.55c0,7.65,2.13,13.57,6.4,17.74,4.27,4.17,10.2,6.26,17.81,6.26s13.54-2.08,17.81-6.26c4.27-4.17,6.4-10.08,6.4-17.74v-28.55h-14.35v28.11Z"/>
    <path class="cls-1" d="M429.27,273.02h7.95l9.34,13.69h15.6l-11.13-16.22c3.11-1.48,5.55-3.54,7.31-6.19,1.86-2.82,2.8-6.17,2.8-10.05s-.93-7.32-2.8-10.19c-1.87-2.87-4.5-5.06-7.91-6.59-3.41-1.52-7.47-2.28-12.18-2.28h-23.55v51.51h14.57v-13.69ZM444.17,248.67c1.5,1.32,2.24,3.19,2.24,5.59s-.75,4.19-2.24,5.52c-1.5,1.32-3.77,1.99-6.81,1.99h-8.09v-15.09h8.09c3.04,0,5.31.66,6.81,1.99Z"/>
    <path class="cls-1" d="M474.63,280.13c2.58,2.43,5.6,4.31,9.09,5.63,3.48,1.32,7.29,1.99,11.41,1.99s7.99-.66,11.44-1.99c3.46-1.32,6.46-3.19,9.01-5.59,2.55-2.4,4.55-5.24,6-8.5,1.45-3.26,2.17-6.83,2.17-10.71s-.72-7.43-2.17-10.67c-1.45-3.24-3.45-6.07-6-8.5-2.55-2.43-5.56-4.3-9.01-5.63-3.46-1.32-7.27-1.99-11.44-1.99s-7.92.66-11.41,1.99c-3.48,1.32-6.51,3.2-9.09,5.63-2.58,2.43-4.58,5.26-6,8.5-1.42,3.24-2.13,6.8-2.13,10.67s.71,7.43,2.13,10.67c1.42,3.24,3.42,6.07,6,8.5ZM482.29,254.88c.71-1.79,1.69-3.34,2.94-4.64,1.25-1.3,2.72-2.29,4.42-2.98,1.69-.69,3.52-1.03,5.48-1.03s3.79.34,5.48,1.03c1.69.69,3.17,1.68,4.42,2.98,1.25,1.3,2.23,2.85,2.94,4.64.71,1.79,1.07,3.82,1.07,6.07s-.36,4.22-1.07,6.03c-.71,1.82-1.69,3.37-2.94,4.67-1.25,1.3-2.72,2.29-4.42,2.98-1.69.69-3.52,1.03-5.48,1.03s-3.79-.34-5.48-1.03c-1.69-.69-3.16-1.68-4.42-2.98-1.25-1.3-2.23-2.86-2.94-4.67-.71-1.81-1.07-3.83-1.07-6.03s.36-4.28,1.07-6.07Z"/>
    <path class="cls-1" d="M194.03,301.51c.63-.63,1.38-1.11,2.24-1.45.86-.34,1.81-.5,2.84-.5,1.09,0,2.1.22,3.03.65.93.43,1.77,1.08,2.52,1.94l3.28-3.03c-1.05-1.28-2.35-2.26-3.9-2.92-1.55-.66-3.28-.99-5.19-.99-1.73,0-3.31.28-4.76.84-1.45.56-2.72,1.35-3.8,2.38-1.08,1.03-1.92,2.24-2.52,3.63-.6,1.39-.9,2.91-.9,4.57s.3,3.19.9,4.58c.6,1.39,1.44,2.6,2.51,3.63,1.07,1.03,2.34,1.83,3.8,2.38,1.46.56,3.04.84,4.75.84,1.93,0,3.68-.34,5.22-1.01,1.55-.67,2.84-1.65,3.9-2.93l-3.28-3.03c-.76.88-1.6,1.54-2.52,1.97-.93.43-1.94.65-3.03.65-1.03,0-1.98-.17-2.84-.5-.86-.34-1.61-.82-2.24-1.45s-1.12-1.38-1.47-2.24c-.35-.86-.52-1.82-.52-2.87s.17-2.01.52-2.87.84-1.61,1.47-2.24Z"/>
    <polygon class="cls-1" points="220.6 311.36 213.88 295.58 208.36 295.58 217.89 317.67 222.94 317.67 232.5 295.58 227.42 295.58 220.6 311.36"/>
    <path class="cls-1" d="M249.52,301.51c.64-.63,1.4-1.11,2.29-1.45.88-.34,1.86-.5,2.93-.5s2.15.21,3.09.62,1.82,1.04,2.62,1.88l3.28-3.03c-1.07-1.24-2.39-2.19-3.96-2.84-1.57-.65-3.33-.98-5.29-.98-1.77,0-3.39.28-4.86.84-1.47.56-2.76,1.35-3.85,2.38-1.09,1.03-1.94,2.24-2.54,3.63-.6,1.39-.9,2.91-.9,4.57s.3,3.19.9,4.58c.6,1.39,1.44,2.6,2.52,3.63,1.08,1.03,2.36,1.83,3.82,2.38,1.46.56,3.07.84,4.81.84,1.58,0,3.16-.24,4.75-.73,1.59-.48,2.98-1.18,4.18-2.08v-8.96h-4.67v6.47c-.34.18-.68.33-1.03.45-.96.33-1.94.49-2.95.49s-2.01-.17-2.89-.5c-.87-.34-1.63-.83-2.27-1.47-.64-.64-1.14-1.39-1.48-2.26s-.52-1.81-.52-2.84.17-2.01.52-2.87.84-1.61,1.48-2.24Z"/>
    <path class="cls-1" d="M282.73,317.67v-9.69c0-2.59-.71-4.49-2.15-5.71s-3.44-1.83-6.03-1.83c-1.35,0-2.67.18-3.98.54-1.3.36-2.42.86-3.34,1.51l1.77,3.44c.61-.48,1.35-.87,2.22-1.15.87-.28,1.76-.43,2.67-.43,1.33,0,2.31.29,2.95.88s.96,1.41.96,2.46h-3.91c-1.72,0-3.12.22-4.2.65-1.07.43-1.86,1.03-2.35,1.78-.49.76-.74,1.64-.74,2.65s.25,1.84.76,2.62c.5.78,1.23,1.39,2.18,1.85s2.08.68,3.41.68c1.49,0,2.71-.28,3.66-.85.64-.39,1.14-.91,1.51-1.54v2.14h4.61ZM276.39,314.02c-.65.39-1.39.58-2.21.58-.86,0-1.54-.18-2.04-.55-.49-.37-.74-.87-.74-1.5,0-.57.22-1.04.65-1.42.43-.38,1.23-.57,2.38-.57h3.38v1.74c-.3.76-.77,1.33-1.42,1.72Z"/>
    <path class="cls-1" d="M289.86,292.84c-.9,0-1.64.26-2.21.79s-.85,1.18-.85,1.96.28,1.43.85,1.96c.57.53,1.3.79,2.21.79s1.67-.27,2.22-.8c.56-.54.84-1.22.84-2.04,0-.78-.28-1.41-.85-1.91-.57-.49-1.3-.74-2.21-.74Z"/>
    <path class="cls-1" d="M287.4,317.67c0,.82-.18,1.44-.55,1.85s-.86.62-1.47.62c-.82,0-1.51-.2-2.08-.6l-1.32,3.57c.48.32,1.07.55,1.77.71.69.16,1.42.24,2.18.24,2.04,0,3.62-.58,4.73-1.74s1.67-2.71,1.67-4.67v-16.94h-4.92v16.98Z"/>
    <path class="cls-1" d="M309.74,302.27c-1.43-1.22-3.44-1.83-6.03-1.83-1.35,0-2.67.18-3.98.54-1.3.36-2.42.86-3.34,1.51l1.77,3.44c.61-.48,1.35-.87,2.22-1.15.87-.28,1.76-.43,2.67-.43,1.33,0,2.31.29,2.95.88s.96,1.41.96,2.46h-3.91c-1.72,0-3.12.22-4.2.65s-1.86,1.03-2.35,1.78c-.49.76-.74,1.64-.74,2.65s.25,1.84.76,2.62c.51.78,1.23,1.39,2.18,1.85.95.45,2.08.68,3.41.68,1.49,0,2.71-.28,3.66-.85.65-.39,1.14-.91,1.51-1.54v2.14h4.61v-9.69c0-2.59-.72-4.49-2.15-5.71ZM305.54,314.02c-.65.39-1.39.58-2.21.58-.86,0-1.54-.18-2.04-.55-.49-.37-.74-.87-.74-1.5,0-.57.22-1.04.65-1.42.43-.38,1.23-.57,2.38-.57h3.38v1.74c-.3.76-.77,1.33-1.42,1.72Z"/>
    <path class="cls-1" d="M330.26,301.24c-1.06-.54-2.27-.8-3.61-.8-1.45,0-2.75.31-3.88.91-.57.31-1.08.68-1.51,1.12v-8.22h-4.92v23.41h4.92v-8.39c0-1.05.17-1.91.52-2.59.35-.67.83-1.17,1.45-1.5.62-.33,1.32-.49,2.1-.49,1.09,0,1.94.33,2.54.98.6.65.9,1.66.9,3.03v8.96h4.92v-9.72c0-1.72-.31-3.14-.91-4.24-.61-1.11-1.45-1.93-2.51-2.46Z"/>
    <path class="cls-1" d="M362.09,296.54c-1.43-.64-3.13-.96-5.11-.96h-9.56v22.09h5.11v-6.09h4.45c1.98,0,3.68-.32,5.11-.96,1.43-.64,2.54-1.56,3.31-2.76.78-1.2,1.17-2.62,1.17-4.26s-.39-3.09-1.17-4.29c-.78-1.2-1.88-2.12-3.31-2.76ZM360.22,306.4c-.78.67-1.96,1.01-3.53,1.01h-4.17v-7.67h4.17c1.58,0,2.75.34,3.53,1.01s1.17,1.62,1.17,2.84-.39,2.14-1.17,2.81Z"/>
    <path class="cls-1" d="M382.34,309.09c0,1.03-.17,1.89-.51,2.57-.34.68-.8,1.19-1.39,1.52-.59.33-1.26.49-2.02.49-1.09,0-1.94-.33-2.54-.99s-.9-1.7-.9-3.11v-8.87h-4.92v9.59c0,1.75.31,3.18.92,4.31.61,1.13,1.47,1.96,2.57,2.51,1.1.55,2.36.82,3.77.82,1.3,0,2.51-.3,3.61-.9.65-.35,1.19-.82,1.66-1.37v2.01h4.67v-16.98h-4.92v8.39Z"/>
    <path class="cls-1" d="M399.48,314.01c-.65,0-1.17-.19-1.55-.58s-.57-.94-.57-1.66v-6.91h4.23v-3.79h-4.23v-4.13h-4.92v4.13h-2.62v3.79h2.62v6.97c0,2.02.56,3.54,1.67,4.56,1.11,1.02,2.67,1.53,4.67,1.53.76,0,1.49-.09,2.19-.27s1.31-.45,1.81-.8l-1.32-3.47c-.55.42-1.21.63-1.99.63Z"/>
    <path class="cls-1" d="M408.03,292.84c-.9,0-1.64.26-2.21.79s-.85,1.18-.85,1.96.28,1.43.85,1.96c.57.53,1.3.79,2.21.79s1.67-.27,2.22-.8c.56-.54.84-1.22.84-2.04,0-.78-.28-1.41-.85-1.91-.57-.49-1.3-.74-2.21-.74Z"/>
    <rect class="cls-1" x="405.57" y="300.69" width="4.92" height="16.98"/>
    <path class="cls-1" d="M428.99,301.24c-1.06-.54-2.27-.8-3.61-.8-1.45,0-2.75.31-3.88.91-.57.31-1.08.68-1.51,1.12v-8.22h-4.92v23.41h4.92v-8.39c0-1.05.17-1.91.52-2.59.35-.67.83-1.17,1.45-1.5.62-.33,1.32-.49,2.1-.49,1.09,0,1.94.33,2.54.98.6.65.9,1.66.9,3.03v8.96h4.92v-9.72c0-1.72-.31-3.14-.91-4.24-.61-1.11-1.45-1.93-2.51-2.46Z"/>
    <path class="cls-1" d="M453.08,295.58l-9.84,22.09h5.24l1.97-4.73h10.24l1.96,4.73h5.36l-9.88-22.09h-5.05ZM452.06,309.05l3.52-8.45,3.5,8.45h-7.02Z"/>
    <path class="cls-1" d="M482.65,302.87c-.51-.65-1.11-1.18-1.83-1.56-1.09-.58-2.36-.87-3.79-.87-1.58,0-3,.34-4.28,1.01-1.27.67-2.29,1.63-3.06,2.86-.77,1.23-1.15,2.68-1.15,4.34s.38,3.08,1.15,4.31c.77,1.23,1.79,2.19,3.06,2.87,1.27.68,2.7,1.03,4.28,1.03,1.43,0,2.69-.29,3.79-.88.6-.32,1.12-.75,1.58-1.26v.76c0,1.54-.39,2.69-1.18,3.47s-2.06,1.17-3.8,1.17c-1.07,0-2.16-.17-3.27-.52-1.1-.35-2.01-.82-2.73-1.4l-1.96,3.53c.99.78,2.22,1.36,3.71,1.75,1.48.39,3.02.58,4.62.58,3.07,0,5.43-.75,7.07-2.24,1.64-1.49,2.46-3.82,2.46-6.97v-14.14h-4.67v2.18ZM481.89,310.82c-.38.63-.9,1.12-1.58,1.47-.67.35-1.44.52-2.3.52s-1.63-.17-2.3-.52c-.67-.35-1.2-.84-1.59-1.47s-.58-1.36-.58-2.18.19-1.57.58-2.19.92-1.11,1.59-1.45c.67-.35,1.44-.52,2.3-.52s1.63.17,2.3.52c.67.35,1.2.83,1.58,1.45.38.62.57,1.35.57,2.19s-.19,1.55-.57,2.18Z"/>
    <path class="cls-1" d="M496.6,302.95v-2.26h-4.7v16.98h4.92v-8.01c0-1.62.42-2.81,1.25-3.58s1.92-1.15,3.27-1.15c.19,0,.37,0,.54.02.17.01.36.03.57.05v-4.54c-1.6,0-2.96.31-4.07.93-.72.4-1.3.94-1.77,1.58Z"/>
    <path class="cls-1" d="M518.09,301.56c-1.41-.75-3.01-1.12-4.8-1.12s-3.41.37-4.81,1.12c-1.4.75-2.5,1.78-3.31,3.09-.81,1.32-1.22,2.82-1.22,4.53s.4,3.18,1.22,4.5c.81,1.32,1.91,2.35,3.31,3.11,1.4.76,3,1.14,4.81,1.14s3.39-.38,4.8-1.14c1.41-.76,2.51-1.79,3.31-3.11.8-1.31,1.2-2.81,1.2-4.5s-.4-3.24-1.2-4.54c-.8-1.3-1.9-2.33-3.31-3.08ZM517.04,311.69c-.38.7-.89,1.25-1.55,1.62-.65.38-1.39.57-2.21.57s-1.56-.19-2.21-.57c-.65-.38-1.17-.92-1.56-1.62s-.58-1.54-.58-2.51.19-1.83.58-2.52c.39-.69.91-1.23,1.56-1.61.65-.38,1.39-.57,2.21-.57s1.56.19,2.21.57c.65.38,1.17.91,1.55,1.61.38.69.57,1.53.57,2.52s-.19,1.8-.57,2.51Z"/>
  </g>
</svg>