<?xml version="1.0" encoding="UTF-8"?>
<svg id="Layer_1" xmlns="http://www.w3.org/2000/svg" viewBox="0 0 550 550">
  <defs>
    <style>
      .cls-1, .cls-2 {
        fill: #fff;
      }

      .cls-1, .cls-3 {
        opacity: .2;
      }

      .cls-4 {
        fill: #bcd84d;
      }

      .cls-5 {
        fill: #3f3f3f;
      }

      .cls-6 {
        fill: #98b936;
      }

      .cls-7 {
        fill: none;
      }

      .cls-8 {
        fill: #e2e2e0;
      }

      .cls-9 {
        fill: #825931;
      }

      .cls-10 {
        opacity: .15;
      }

      .cls-11 {
        fill: #084c0d;
      }

      .cls-12 {
        fill: #603813;
      }

      .cls-13 {
        fill: #4e4e50;
      }

      .cls-14 {
        fill: #90d395;
      }

      .cls-15 {
        fill: #739a20;
      }

      .cls-16 {
        fill: #31aa3d;
      }

      .cls-17 {
        fill: #e9ed8e;
      }

      .cls-18 {
        fill: #126b19;
      }
    </style>
  </defs>
  <g>
    <g>
      <path class="cls-6" d="M240.25,302.66s2.82,38.31-47.33,45.64c-50.14,7.32-59.72-19.72-59.72-19.72,0,0-76.62,50.14-98.6-14.09-21.97-64.23,65.92-95.22,65.92-95.22,0,0-57.47-52.4-5.63-104.8,51.83-52.4,98.03-27.04,98.03-27.04,0,0,22.54-76.06,105.92-60.29,83.39,15.78,82.26,79.44,82.26,79.44,0,0,52.96-47.89,109.3-6.2,56.34,41.69-3.94,90.15-3.94,90.15,0,0,43.38,5.07,23.1,50.71-20.28,45.64-73.81,20.85-73.81,20.85,0,0,10.14,40.57-43.38,50.71-53.52,10.14-85.64-13.52-85.64-13.52,0,0-26.48,28.17-66.48,3.38Z"/>
      <g class="cls-10">
        <path d="M486.66,190.36s60.29-48.45,3.94-90.15c-17.91-13.25-35.46-17.43-51.1-17,36.25,35.49-11.32,73.75-11.32,73.75,0,0,38.68,4.52,20.6,45.21-18.08,40.69-65.8,18.59-65.8,18.59,0,0,9.04,36.17-38.68,45.21-47.72,9.04-76.35-12.06-76.35-12.06,0,0-23.61,25.12-59.27,3.01,0,0,2.51,34.16-42.19,40.69-44.71,6.53-53.25-17.58-53.25-17.58,0,0-55.14,36.05-80.54,1.82-2.26,9.68-1.99,20.49,2.11,32.46,21.97,64.23,98.6,14.09,98.6,14.09,0,0,9.58,27.04,59.72,19.72,50.14-7.32,47.33-45.64,47.33-45.64,40,24.79,66.48-3.38,66.48-3.38,0,0,32.11,23.66,85.64,13.52,53.52-10.14,43.38-50.71,43.38-50.71,0,0,53.52,24.79,73.81-20.85,20.28-45.64-23.1-50.71-23.1-50.71Z"/>
      </g>
      <g>
        <path class="cls-9" d="M385.27,250.57s-4.95,11.8-23.86,11.8-33.66,1.51-41.84,28.81c-.22.79-.47,1.61-.68,2.44-7.97,29.6-10.98,137.67,32.62,206.78l-103.91-3.55s18.08-75.17,10.94-101.47c-7-25.94-23.61-37.49-44.53-56.19-.32-.29-.65-.57-.97-.86-21.42-19.2-19.77-46.07-19.77-46.07l8.25-11.52,8.22,31.25s7.14-34.55,18.37-45.78l9.33,3.27s-14.53,12.92-13.46,30.71c.57,9.15-.68,19.12,4.45,27.88,4.84,8.36,15.46,15.57,38.89,19.84,0,0-1.54-23.68,3.77-51.38.18-1.08.39-2.12.61-3.19,6.03-29.06-5.74-54.57-5.74-54.57l13.71-4.92s14.53,37.28,11.8,55.11c0,0,8.22-31.54,34.27-33.44,26.05-1.94,57.05-12.92,57.05-12.92l2.48,7.97Z"/>
        <path class="cls-15" d="M183.99,295.61c10.21-3.63,17.64-11.81,18.51-22.83-.04,1.32.04,2.66-.17,3.97-1.05,9.49-9.19,17.03-18.35,18.86h0Z"/>
        <g>
          <path class="cls-12" d="M220.67,277.79c.48-1.01.97-2,1.47-2.96-.52.94-1.01,1.93-1.47,2.96Z"/>
          <path class="cls-12" d="M222.34,274.47c.1-.19.21-.35.31-.54-.1.18-.21.36-.31.54Z"/>
          <path class="cls-12" d="M213.05,338.34c.32.29.65.57.97.86,4.92,4.39,9.59,8.39,13.96,12.27-5.17-4.92-10.89-9.8-17.05-15.22.7.7,1.36,1.4,2.12,2.08Z"/>
          <path class="cls-12" d="M382.8,242.61s-1.6.56-4.26,1.43l.16.51s-4.95,11.8-23.86,11.8-33.66,1.51-41.84,28.81c-.22.79-.47,1.61-.68,2.44-5.23,19.43-8.32,72.65,2.49,126.47,8.17,40.68-23.11,78.49-64.57,77.07l-1.3-.04c-.81,3.62-1.32,5.76-1.32,5.76l103.91,3.55c-43.59-69.11-40.58-177.18-32.62-206.78.22-.83.47-1.65.68-2.44,8.18-27.3,23.43-28.81,41.84-28.81s23.86-11.8,23.86-11.8l-2.48-7.97Z"/>
          <path class="cls-12" d="M222.34,274.47c-.07.12-.13.25-.19.36-.51.95-1,1.94-1.47,2.96-2.12,4.66-3.63,10.21-3.26,16.37.57,9.15-.68,19.12,4.45,27.88,1.88,3.25,4.65,6.31,8.68,9.11-.8-1-1.49-2.03-2.1-3.07-5.13-8.75-3.88-18.73-4.45-27.88-1.08-17.8,13.46-30.71,13.46-30.71l-9.27-3.24c-1.58,1.8-3.63,4.41-5.53,7.69-.1.19-.21.35-.31.54Z"/>
          <path class="cls-12" d="M222.14,274.84c.07-.12.13-.25.19-.36-.07.12-.13.24-.19.36Z"/>
          <path class="cls-12" d="M222.65,273.93c1.9-3.28,3.95-5.89,5.53-7.69l-.06-.02c-1.96,1.96-3.78,4.65-5.47,7.71Z"/>
        </g>
        <path class="cls-15" d="M251.7,238.5c14.07.72,31.64-2.44,37.56-17-.57,1.76-1.29,3.5-2.28,5.09-7.28,11.49-22.79,13.72-35.28,11.91h0Z"/>
        <path class="cls-15" d="M358.52,225.07c5.9,6.65,15.17,9.92,23.92,8.33,0,0,.65-.09.65-.09,0,0-.12.65-.12.65-2.31,15.04,9.09,24.04,22.58,27.03-14.13-2.09-26.1-11.82-23.49-27.24,0,0,.53.56.53.56-8.94,1.58-18.54-2.03-24.07-9.24h0Z"/>
        <path class="cls-15" d="M217.42,257.84c7.12,9.42,19.82,11.91,31,11.06,1.64-.16,3.27-.36,4.93-.5-1.61.36-3.24.66-4.87.99-4.1.49-8.37.66-12.46,0-7.31-1.24-14.77-4.96-18.59-11.54h0Z"/>
      </g>
      <g>
        <g>
          <path class="cls-15" d="M287.29,141.75s12.83-8.28,3.93-23.48c0,0-12.87,7.64-3.93,23.48Z"/>
          <path class="cls-15" d="M287.38,141.46s-4.29-14.66-21.39-10.45c0,0,3.67,14.51,21.39,10.45Z"/>
        </g>
        <path class="cls-15" d="M387.01,195.89s11.89-3.73,6.73-18.15c0,0-13.28,8.25-6.73,18.15Z"/>
        <path class="cls-4" d="M350.05,139.66s9.19-8.41-1.59-19.3c0,0-8.54,13.1,1.59,19.3Z"/>
        <path class="cls-4" d="M183.49,127.92s9.19-8.41-1.59-19.3c0,0-8.54,13.1,1.59,19.3Z"/>
        <path class="cls-15" d="M269.63,205.71s5.84-11-7.96-17.65c0,0-3.65,15.2,7.96,17.65Z"/>
        <path class="cls-15" d="M272.87,92.13s5.84-11-7.96-17.65c0,0-3.65,15.2,7.96,17.65Z"/>
        <path class="cls-4" d="M398.68,242.37s5.84-11-7.96-17.65c0,0-3.65,15.2,7.96,17.65Z"/>
        <path class="cls-4" d="M327.69,177.21s-12.07-3.09-15.28,11.9c0,0,15.63-.03,15.28-11.9Z"/>
      </g>
      <g>
        <g>
          <path class="cls-4" d="M150.51,196.99s-12.83-8.28-3.93-23.48c0,0,12.87,7.64,3.93,23.48Z"/>
          <path class="cls-4" d="M150.42,196.69s4.29-14.66,21.39-10.45c0,0-3.67,14.51-21.39,10.45Z"/>
        </g>
        <path class="cls-15" d="M411.61,146.07s-11.89-3.73-6.73-18.15c0,0,13.28,8.25,6.73,18.15Z"/>
        <path class="cls-15" d="M129.83,158.36s-11.89-3.73-6.73-18.15c0,0,13.28,8.25,6.73,18.15Z"/>
        <path class="cls-4" d="M87.75,194.89s-9.19-8.41,1.59-19.3c0,0,8.54,13.1-1.59,19.3Z"/>
        <path class="cls-4" d="M331.35,65.41s-9.19-8.41,1.59-19.3c0,0,8.54,13.1-1.59,19.3Z"/>
        <path class="cls-15" d="M168.18,260.95s-5.84-11,7.96-17.65c0,0,3.65,15.2-7.96,17.65Z"/>
        <path class="cls-4" d="M69.72,278.15s-5.84-11,7.96-17.65c0,0,3.65,15.2-7.96,17.65Z"/>
        <path class="cls-4" d="M110.11,232.44s12.07-3.09,15.28,11.9c0,0-15.63-.03-15.28-11.9Z"/>
      </g>
      <g>
        <path class="cls-4" d="M168.07,85.65s10.47-6.76,3.21-19.17c0,0-10.5,6.24-3.21,19.17Z"/>
        <path class="cls-4" d="M168.14,85.41s-3.5-11.96-17.46-8.53c0,0,2.99,11.84,17.46,8.53Z"/>
      </g>
      <path class="cls-4" d="M222.08,167.23s-9.85-2.52-12.47,9.71c0,0,12.76-.02,12.47-9.71Z"/>
      <g>
        <path class="cls-15" d="M40.27,269.32s4.97-11.43-7.95-17.73c0,0-5.29,11.01,7.95,17.73Z"/>
        <path class="cls-15" d="M40.2,269.08s-9.54-8.02-19.26,2.57c0,0,9.05,8.2,19.26-2.57Z"/>
      </g>
      <g>
        <path class="cls-15" d="M509.68,208.47s7.69,9.81,19.38,1.43c0,0-7.18-9.88-19.38-1.43Z"/>
        <path class="cls-15" d="M509.93,208.52s11.59-4.58,6.89-18.17c0,0-11.52,4.07-6.89,18.17Z"/>
      </g>
      <g>
        <path class="cls-15" d="M451.26,87.65s12.46.05,13.14-14.32c0,0-12.2-.5-13.14,14.32Z"/>
        <path class="cls-15" d="M451.46,87.49s3.59-11.94-9.99-16.67c0,0-3.95,11.56,9.99,16.67Z"/>
      </g>
    </g>
    <g>
      <path class="cls-6" d="M376.8,502.94s22.74-57.8-25.53-45.97c-55.96,13.71-13.28-37.09-74.36-18.95-60.76,18.05-19.1,64.91-19.1,64.91h119Z"/>
      <g>
        <path class="cls-4" d="M286.12,482.77s12.83-8.28,3.93-23.48c0,0-12.87,7.64-3.93,23.48Z"/>
        <path class="cls-4" d="M286.21,482.47s-4.29-14.66-21.39-10.45c0,0,3.67,14.51,21.39,10.45Z"/>
      </g>
      <g>
        <path class="cls-15" d="M346.97,485.26s-8.93-5.77-2.74-16.35c0,0,8.96,5.32,2.74,16.35Z"/>
        <path class="cls-15" d="M346.91,485.05s2.99-10.21,14.9-7.28c0,0-2.55,10.1-14.9,7.28Z"/>
      </g>
    </g>
  </g>
  <g>
    <g>
      <path class="cls-2" d="M373.36,259.91c-.37-3.11-.52-6.03-.52-6.03-.12-21.91-7.34-43.56-11.15-49.75-3.81-6.18-9.19-4.62-8.73-6.59.46-1.96-.87-3.7-2.43-6.18-1.56-2.48-2.02-4.45-2.02-4.45,0,0-2.32-9.64-14.83-7.32h0c-.65.12-1.29.23-1.93.32-6.13.92-10.17,3.64-11.21,8.9-1.04,5.26,2.54,6.33,2.54,6.33,0,0,5.37,2.12,4.62,8.14.75,3.89-.75,5.39-.75,5.39-3.93,4.65-4.05,12.57-4.05,12.57-.59,9.54,5.85,17.62,12.5,23.34,1.58,1.36,3.17,2.58,4.68,3.65,2.77,1.97,5.28,3.46,6.97,4.38.63.35,1.2.76,1.72,1.22,5.23,2.27,15.63,6.25,20.99,4.56,0,0-.29-4.13-4.02-7.02l-2.51-1.47c.97.57,1.72.99,2.51,1.47l3.79,2.23s.38,5.45,3.82,6.31Z"/>
      <path class="cls-1" d="M373.34,259.91c-.37-3.11-.52-6.03-.52-6.03-.12-21.91-7.34-43.56-11.15-49.75-3.81-6.18-9.19-4.62-8.73-6.59.46-1.96-.87-3.7-2.43-6.18-1.56-2.48-2.02-4.45-2.02-4.45,0,0-2.32-9.64-14.83-7.32h0c-.65.12-1.29.23-1.93.32-4.46.67-7.82,2.3-9.71,5.16,1.94-1.63,4.62-2.64,7.9-3.13.64-.1,1.28-.2,1.93-.33h0c12.51-2.32,14.83,7.32,14.83,7.32,0,0,.46,1.96,2.02,4.45,1.56,2.48,2.89,4.22,2.43,6.18-.46,1.96,4.91.4,8.73,6.59,3.81,6.18,11.04,27.83,11.15,49.75,0,0,.05,1.03.18,2.51.53.7,1.24,1.26,2.16,1.49Z"/>
      <path class="cls-3" d="M350.93,249.03c-1.81-.89-4.51-2.32-7.51-4.25-1.63-1.05-3.36-2.25-5.07-3.59-7.23-5.64-14.32-13.73-14.09-23.61,0,0-.05-2.25.46-5.11-1.73,4.22-1.8,8.74-1.8,8.74-.59,9.54,5.85,17.62,12.5,23.34,1.58,1.36,3.17,2.58,4.68,3.65,2.77,1.97,5.28,3.46,6.97,4.38.63.35,1.2.76,1.72,1.22,5.23,2.27,15.63,6.25,20.99,4.56,0,0-.13-1.83-1.32-3.91-5.45-.6-11.86-2.79-15.69-4.25-.57-.46-1.18-.86-1.86-1.19Z"/>
      <path class="cls-7" d="M365.75,251.38c-.79-.49-1.54-.91-2.51-1.47l2.51,1.47Z"/>
      <path class="cls-17" d="M348.5,186.92c.98-.75.75-2.6.75-2.6,0,0,1.16-.64,1.73-2.08s-2.66-1-2.66-1c0,0,3.01-2.3,5.2-3.97,2.2-1.68,1.16-4.57,0-2.89-1.16,1.68-12.25,6.65-8.15,3.24,4.1-3.41,1.73-4.45,1.73-4.45-2.02,3.42-7.84,5.4-13.44,6.44h0c12.51-2.32,14.83,7.32,14.83,7.32Z"/>
    </g>
    <g>
      <path class="cls-8" d="M373.36,259.91c-3.44-.86-3.82-6.31-3.82-6.31l-3.79-2.23c3.73,2.89,4.02,7.02,4.02,7.02-5.35,1.69-15.75-2.29-20.99-4.56,4.83,4.29,5.15,13.07,7.03,16.2,2.08,3.47,4.33,1.91,6.85.78,2.51-1.13,5.11,4.25,7.11,3.29,1.99-.95,2.08-1.04,3.99-1.82,1.91-.78,1.56-3.38.52-7.11-.39-1.41-.7-3.38-.92-5.28Z"/>
      <g class="cls-3">
        <path d="M370.84,272.57c-1.99.95-4.59-4.42-7.11-3.29-2.51,1.13-4.77,2.69-6.85-.78-1.51-2.52-2.02-8.69-4.67-13.24-1.28-.5-2.45-.99-3.43-1.41,4.83,4.29,5.15,13.07,7.03,16.2,2.08,3.47,4.33,1.91,6.85.78,2.51-1.13,5.11,4.25,7.11,3.29,1.99-.95,2.08-1.04,3.99-1.82.73-.3,1.13-.86,1.28-1.65-.07.04-.14.07-.22.1-1.91.78-1.99.87-3.99,1.82Z"/>
      </g>
      <path class="cls-13" d="M337.49,253.43s-.2.85-4,2.56c-1.12.5-1.93,1.86-1.33,2.94.09.16.19.3.32.41,0,0,1.25-3.02,6.38-3.47,1.36-.12,2.41-.14,3.22-.09.86.06,1.45.21,1.85.44.63.36.77.93.74,1.64l.55-.35c.51-.32.65-1,.31-1.5-.05-.07-.11-.15-.17-.22-.28-.34-1.11-1.06-1.65-1.29-.45-.2-2.78-1.03-3.47-1.01l-.15-5.25c-1.51-1.08-3.1-2.3-4.68-3.65l2.09,8.85Z"/>
      <g class="cls-3">
        <path d="M343.62,255.51c-.39-.23-.98-.38-1.85-.44-.81-.05-1.86-.03-3.22.09-4.23.36-5.82,2.49-6.25,3.22-.07.12-.25.14-.33.02,0,0,0,0,0,0,.03.18.09.36.18.53.09.16.19.3.32.41,0,0,1.25-3.02,6.38-3.47,1.36-.12,2.41-.14,3.22-.09.86.06,1.45.21,1.85.44.18.1.31.22.42.35-.07-.44-.27-.8-.71-1.06Z"/>
      </g>
    </g>
    <g>
      <path class="cls-5" d="M327.36,199.66c-.48,1.75-2.96,3.15-2.96,3.15,1.13,1.36,3.29.48,3.29.48.18-1.42.01-2.62-.34-3.63Z"/>
      <path class="cls-13" d="M327.36,199.66c-1.14-3.27-4.28-4.51-4.28-4.51-5.14,5.98.81,10.14.81,10.14-.58-1.85.52-2.48.52-2.48,0,0,2.47-1.39,2.96-3.15Z"/>
    </g>
    <circle class="cls-2" cx="328.88" cy="192.37" r="1.52"/>
    <circle cx="328.74" cy="192.41" r="1.38"/>
    <g>
      <ellipse class="cls-1" cx="328.38" cy="192.67" rx=".46" ry=".49" transform="translate(-49.59 146.87) rotate(-23.49)"/>
      <ellipse class="cls-1" cx="329.1" cy="192.09" rx=".23" ry=".25" transform="translate(-49.29 147.11) rotate(-23.49)"/>
    </g>
    <g class="cls-3">
      <path d="M365.75,251.38c-11.77-4.95-23.3-13.74-27.31-26.32-.51-1.8-.84-3.63-.97-5.48,2.7,14.87,15.72,24.96,28.28,31.8h0Z"/>
    </g>
    <g class="cls-3">
      <path d="M369.54,253.6c-1.03-12.08-3.32-23.98-6.3-35.72,4.3,11.35,6.64,23.57,6.3,35.72h0Z"/>
    </g>
    <g class="cls-3">
      <path class="cls-2" d="M323.11,195.88c-.69,3.19-.62,5.21.12,8.22-3.41-1.32-3.46-6.79-.12-8.22h0Z"/>
    </g>
    <g class="cls-3">
      <path d="M355.14,257.59c1.77,3.32,2.89,6.95,3.03,10.72-1.48-3.47-2.56-6.97-3.03-10.72h0Z"/>
    </g>
    <g class="cls-3">
      <path d="M360.36,268.78c-1.45-3.21-2.08-6.55-2.67-9.99,1.89,2.94,2.57,6.52,2.67,9.99h0Z"/>
    </g>
    <g class="cls-3">
      <path d="M362.38,268.78c-1.45-3.21-2.08-6.55-2.67-9.99,1.89,2.94,2.57,6.52,2.67,9.99h0Z"/>
    </g>
    <g class="cls-3">
      <path d="M370.04,271.72c-1.57-3.49-2.32-7.12-3.01-10.86,1.99,3.24,2.78,7.09,3.01,10.86h0Z"/>
    </g>
    <g class="cls-3">
      <path d="M371.38,271.14c-1.51-3.39-2.19-6.92-2.84-10.54,1.95,3.13,2.67,6.89,2.84,10.54h0Z"/>
    </g>
    <g class="cls-3">
      <path d="M372.71,270.72c-1.53-3.47-2.24-7.11-2.92-10.81,1.97,3.22,2.72,7.06,2.92,10.81h0Z"/>
    </g>
    <g class="cls-3">
      <path d="M374.05,270.26c-1.49-3.4-2.15-6.96-2.79-10.59,1.94,3.15,2.65,6.92,2.79,10.59h0Z"/>
    </g>
    <g class="cls-3">
      <path d="M367.72,269.65c-1.29-2.86-1.79-5.85-2.26-8.92,1.77,2.58,2.32,5.82,2.26,8.92h0Z"/>
    </g>
    <g class="cls-3">
      <path d="M365.5,268.31c-1.18-2.58-1.6-5.26-1.98-8.03,1.67,2.28,2.16,5.25,1.98,8.03h0Z"/>
    </g>
    <g class="cls-3">
      <path d="M364.04,267.94c-1.36-2.75-1.96-5.6-2.43-8.6,1.76,2.48,2.42,5.59,2.43,8.6h0Z"/>
    </g>
    <g class="cls-3">
      <path class="cls-2" d="M336.43,247.31c1.61,1.84,2.26,4.23,2.42,6.61-.85.68-1.89,1.3-3.02,1.13.55-.62,1.06-1.44,1.51-2.1,0,0-.21.79-.21.79-.82-2.04-1.23-4.25-.71-6.43h0Z"/>
    </g>
    <g class="cls-3">
      <path d="M340.17,178.5c1.64-2.47,3.84-3.86,6.82-4.03-.17,3.22-3.92,5.48-6.82,4.03h0Z"/>
    </g>
    <g class="cls-3">
      <path d="M353.9,174.7c-.77,3.01-3.7,4.88-6.63,5.27-.98.11-2,.05-3.02-.34.75-.83,1.49-1.36,2.23-1.88,2.34-1.52,4.6-2.53,7.42-3.04h0Z"/>
    </g>
    <g class="cls-3">
      <path d="M350.54,181.8c-1.33,1.08-2.75,1.34-4.29.52.76-1.85,3.22-2.11,4.29-.52h0Z"/>
    </g>
  </g>
  <g>
    <g>
      <polygon class="cls-18" points="274.73 496.39 275.5 494.86 276.77 411.15 275.73 411.94 274.73 496.39"/>
      <polygon class="cls-14" points="276.77 411.15 275.14 411.15 275.73 411.94 276.77 411.15"/>
      <polygon class="cls-11" points="274.73 496.39 273.29 496.16 273.29 488.05 262.09 485.82 273.98 411.94 275.73 411.94 274.73 496.39"/>
      <g>
        <polygon class="cls-18" points="210.17 495.02 211.41 495.37 210.17 507.91 212.02 507.12 213.38 495.94 260.28 509.42 258.4 524.37 260.17 525 261.34 523.72 275.73 411.94 274.63 410.07 220.01 412.55 210.17 495.02"/>
        <polygon class="cls-16" points="208.76 507.32 210.17 507.91 211.41 495.37 260.28 509.42 258.4 524.37 260.17 525 274.63 410.07 220.01 412.55 208.76 507.32"/>
      </g>
    </g>
    <g>
      <path class="cls-2" d="M239.53,466.07l-1.48,9.95-7.2-1.07c-.09-.01-.18-.03-.28-.05l.23-8.9.03-1.22,8.69,1.29Z"/>
      <polygon class="cls-2" points="241.76 448.16 240.97 449.27 236.89 454.98 236.13 456.03 229.24 449.93 233.9 443.43 241.18 447.81 241.76 448.16"/>
      <path class="cls-2" d="M252.79,445.81l-.76,1.8h0s-2.76,6.59-2.76,6.59l-5.51-2.47-1.97-.88,1.45-.66-.94-2.78-7.87-4.63c.92-.98,2.09-1.61,3.35-1.77l7.34-.93c2.49-.32,4.8,1.25,5.67,3.84l.82,2.43,1.18-.54Z"/>
      <path class="cls-2" d="M256.42,466.14l-3.18,7.54c-1.08,2.56-3.51,4.06-5.96,3.7l-2.2-.33-.22,1.5-1.06-1.68-3.56-5.68,4.93-4.29,1.63-1.42-.24,1.62,2.52.37,7.81-5.18c.21,1.28.05,2.63-.46,3.84Z"/>
      <path class="cls-2" d="M230.01,464.65l-.18,10.03c-1.08-.4-2.02-1.18-2.68-2.23l-4.17-6.66c-1.41-2.25-1.28-5.33.3-7.55l1.48-2.07-1-.89,1.8-.23,6.34-.81.69,6.73.24,2.33-1.17-1.03-1.69,2.37h.03Z"/>
      <path class="cls-2" d="M256.7,461.47l-7.22,4.64-.71.46-.52-1.55-2.04-6.05-.5-1.49,8.38-3.82.5,1.5,2.05,6.07c.03.08.05.16.08.24Z"/>
    </g>
  </g>
</svg>