<?xml version="1.0" encoding="UTF-8"?>
<svg xmlns="http://www.w3.org/2000/svg" xmlns:xlink="http://www.w3.org/1999/xlink" viewBox="0 0 550 550">
  <defs>
    <style>
      .cls-1 {
        fill: #449935;
      }

      .cls-2 {
        fill: #ffbb43;
      }

      .cls-3 {
        fill: #c10d08;
      }

      .cls-4 {
        fill: #ffb583;
      }

      .cls-5 {
        fill: #ff7900;
      }

      .cls-6 {
        fill: #ffe0a9;
      }

      .cls-7 {
        fill: #f7941d;
      }

      .cls-8 {
        fill: #ffcfae;
      }

      .cls-9 {
        fill: #5dba3e;
      }

      .cls-10 {
        fill: #0952d3;
      }

      .cls-11 {
        fill: #fff;
      }

      .cls-12 {
        fill: #46a83b;
      }

      .cls-13 {
        fill: none;
      }

      .cls-14 {
        fill: #303030;
      }

      .cls-15 {
        fill: #3c2415;
      }

      .cls-16 {
        fill: #2d7210;
      }

      .cls-17 {
        fill: #e0ffd4;
      }

      .cls-18 {
        fill: #ff9b57;
      }

      .cls-19 {
        clip-path: url(#clippath-1);
      }

      .cls-20 {
        fill: #00c642;
      }

      .cls-21 {
        fill: #f6954f;
      }

      .cls-22 {
        fill: #231f20;
      }

      .cls-23 {
        isolation: isolate;
      }

      .cls-24 {
        fill: #fffbe9;
      }

      .cls-25 {
        fill: #00912c;
      }

      .cls-26 {
        fill: #d9ebff;
        mix-blend-mode: screen;
        opacity: .6;
      }

      .cls-27 {
        fill: #ffdb9c;
      }

      .cls-28 {
        fill: #4c9b2f;
      }

      .cls-29 {
        fill: #efefef;
        stroke: #231f20;
        stroke-miterlimit: 10;
        stroke-width: .25px;
      }

      .cls-30 {
        fill: #facd74;
      }

      .cls-31 {
        fill: #008e2b;
      }

      .cls-32 {
        fill: #3e7cd6;
        mix-blend-mode: multiply;
      }

      .cls-33 {
        fill: #232323;
      }

      .cls-34 {
        fill: #414042;
      }

      .cls-35 {
        fill: #f6261a;
      }

      .cls-36 {
        fill: #00f94c;
      }

      .cls-37 {
        fill: #ffb32c;
      }

      .cls-38 {
        fill: #ffc183;
      }

      .cls-39 {
        clip-path: url(#clippath);
      }

      .cls-40 {
        fill: #4fc658;
      }

      .cls-41 {
        fill: #f47e2f;
      }
    </style>
    <clipPath id="clippath">
      <path class="cls-13" d="M372.49,452.88c-206.41,72.36-312.95,3.26-338.08-75.26C-12.59,230.71,159.11,230.14,199.33,183.27c35.4-41.26,134.46-96.48,218.7-56.42,11.46,5.45,22.81,12.35,33.9,20.89,92.64,71.33,126.97,232.78-79.44,305.14Z"/>
    </clipPath>
    <clipPath id="clippath-1">
      <path class="cls-13" d="M372.49,452.88c-206.41,72.36-312.95,3.26-338.08-75.26C-12.59,230.71,129.61,187.64,169.83,140.77c35.4-41.26,121.66-93.23,211.21-67.09,27.12,7.92,59.79,65.52,70.89,74.06,92.64,71.33,126.97,232.78-79.44,305.14Z"/>
    </clipPath>
  </defs>
  <g class="cls-23">
    <g id="Layer_1">
      <g>
        <g class="cls-39">
          <rect class="cls-17" x="-73.43" y="50.37" width="702.67" height="473.38"/>
        </g>
        <g class="cls-19">
          <g>
            <path class="cls-11" d="M400.15,297.22h-24.4c.06-.56.09-1.13.09-1.7,0-9.34-7.57-16.92-16.92-16.92-.67,0-1.33.04-1.99.12-3.05-9.4-11.88-16.2-22.3-16.2-12.95,0-23.45,10.5-23.45,23.45,0,.75.04,1.49.11,2.22,0,0,0,0,0,0-.85-.14-1.73-.2-2.62-.2-6.57,0-12.28,3.75-15.08,9.24h-18.12c-2.35,0-4.48.96-6.02,2.49-1.54,1.54-2.49,3.67-2.49,6.02,0,4.7,3.81,8.52,8.51,8.52h124.68c2.35,0,4.48-.95,6.03-2.5s2.49-3.67,2.49-6.02c0-4.7-3.81-8.51-8.52-8.51Z"/>
            <path class="cls-11" d="M36.21,236.74h-18.37c.04-.42.06-.85.06-1.28,0-7.03-5.7-12.73-12.73-12.73-.51,0-1,.03-1.49.09-2.3-7.08-8.94-12.19-16.79-12.19-9.75,0-17.65,7.9-17.65,17.65,0,.56.03,1.12.08,1.67,0,0,0,0,0,0-.64-.1-1.3-.15-1.97-.15-4.95,0-9.24,2.83-11.35,6.95h-13.63c-1.77,0-3.37.72-4.53,1.87-1.16,1.16-1.87,2.76-1.87,4.53,0,3.54,2.86,6.41,6.41,6.41H36.21c1.77,0,3.37-.71,4.54-1.88s1.87-2.76,1.87-4.53c0-3.54-2.87-6.41-6.41-6.41Z"/>
            <g>
              <path class="cls-28" d="M154.2,516.71s7.74-28.42-5.22-37.76c-12.96-9.34,2.83-21.01-9.32-30.77-12.15-9.77,4.15-21.68-10.67-30.65,0,0-20.06,8.36-7.23,21.98,12.83,13.62-14.01,16.71,6.78,33.24,22.84,18.16-7.16,28.86,25.65,43.97Z"/>
              <path class="cls-28" d="M154.17,516.18c.98,2.27,24.05-2.2,21.51-19.86-2.54-17.66,19.44-6.1,14.23-26.41-5.21-20.31,12.72-10.28,7.45-27.39,0,0-17.65-7.12-16.96,9.67.69,16.79-21.66,7.11-17.01,27.65,4.65,20.55-20.05,11.33-9.22,36.34Z"/>
              <path class="cls-9" d="M154.19,516.62s19.04-11.09,12.27-25.9c-6.77-14.81,14.07-19.29,4.97-32.3-9.1-13.02,7.16-24.78.15-36.42-7.01-11.64,12.25-12.28.86-34.88,0,0-19.13,5.64-15.52,21.4,3.61,15.76-13.39,10.41-6.51,30.43,6.88,20.02-16.21,24.56-7.69,34.45,8.52,9.88-8.73,27.09,11.47,43.23Z"/>
              <path class="cls-1" d="M169.35,395.45c-1.14,4.61-2.25,9.22-3.24,13.86-1.04,4.63-2.01,9.27-2.91,13.92-1.81,9.31-3.45,18.65-4.75,28.03-1.37,9.38-2.3,18.81-2.99,28.26-.22,4.73-.55,9.46-.52,14.2-.19,4.74.11,9.47.19,14.22-.36-4.73-.79-9.47-.81-14.22-.16-4.75.06-9.5.16-14.26.11-2.37.28-4.75.45-7.12.09-1.19.15-2.37.26-3.56l.35-3.55.35-3.55c.11-1.18.24-2.37.39-3.54l.89-7.07c1.41-9.4,3.03-18.77,5.05-28.05,1.02-4.64,2.09-9.27,3.26-13.87.59-2.3,1.21-4.59,1.84-6.88.63-2.29,1.29-4.57,2-6.83Z"/>
            </g>
            <g>
              <path class="cls-28" d="M364.83,504.83s7.74-28.42-5.22-37.76c-12.96-9.34,2.83-21.01-9.32-30.77-12.15-9.77,4.15-21.68-10.67-30.65,0,0-20.06,8.36-7.23,21.98,12.83,13.62-14.01,16.71,6.78,33.24,22.84,18.16-7.16,28.86,25.65,43.97Z"/>
              <path class="cls-28" d="M364.81,504.3c.98,2.27,24.05-2.2,21.51-19.86-2.54-17.66,19.44-6.1,14.23-26.41-5.21-20.31,12.72-10.28,7.45-27.39,0,0-17.65-7.12-16.96,9.67.69,16.79-21.66,7.11-17.01,27.65,4.65,20.55-20.05,11.33-9.22,36.34Z"/>
              <path class="cls-9" d="M364.82,504.74s19.04-11.09,12.27-25.9c-6.77-14.81,14.07-19.29,4.97-32.3-9.1-13.02,7.16-24.78.15-36.42-7.01-11.64,12.25-12.28.86-34.88,0,0-19.13,5.64-15.52,21.4,3.61,15.76-13.39,10.41-6.51,30.43,6.88,20.02-16.21,24.56-7.69,34.45,8.52,9.88-8.73,27.09,11.47,43.23Z"/>
              <path class="cls-1" d="M379.98,383.57c-1.14,4.61-2.25,9.22-3.24,13.86-1.04,4.63-2.01,9.27-2.91,13.92-1.81,9.31-3.45,18.65-4.75,28.03-1.37,9.38-2.3,18.81-2.99,28.26-.22,4.73-.55,9.46-.52,14.2-.19,4.74.11,9.47.19,14.22-.36-4.73-.79-9.47-.81-14.22-.16-4.75.06-9.5.16-14.26.11-2.37.28-4.75.45-7.12.09-1.19.15-2.37.26-3.56l.35-3.55.35-3.55c.11-1.18.24-2.37.39-3.54l.89-7.07c1.41-9.4,3.03-18.77,5.05-28.05,1.02-4.64,2.09-9.27,3.26-13.87.59-2.3,1.21-4.59,1.84-6.88.63-2.29,1.29-4.57,2-6.83Z"/>
            </g>
            <g>
              <ellipse class="cls-28" cx="26.34" cy="412.84" rx="32.99" ry="12.54" transform="translate(-326.66 197.15) rotate(-54.92)"/>
              <ellipse class="cls-28" cx="-5.69" cy="413.26" rx="12.54" ry="32.99" transform="translate(-249.16 79.28) rotate(-36.88)"/>
              <ellipse class="cls-9" cx="10.01" cy="397.06" rx="44.64" ry="17.2" transform="translate(-387.13 402.17) rotate(-89.29)"/>
              <path class="cls-28" d="M9.92,363.35c.73,5.93,1.16,11.9,1.47,17.89.18,2.99.25,5.99.36,8.99.07,3,.11,6.01.13,9.02,0,3.01-.05,6.02-.1,9.03-.12,3.01-.18,6.03-.4,9.04-.38,6.01-.91,12.07-2.1,17.94.21-6.03.22-12,.25-17.98,0-5.98.01-11.95-.02-17.93.03-2.99,0-5.98,0-8.98.02-2.99,0-5.99.04-8.99.04-6,.13-12,.37-18.03Z"/>
            </g>
            <g>
              <ellipse class="cls-28" cx="526.48" cy="359.42" rx="32.99" ry="12.54" transform="translate(-70.21 583.73) rotate(-54.92)"/>
              <ellipse class="cls-28" cx="494.45" cy="359.84" rx="12.54" ry="32.99" transform="translate(-117.01 368.75) rotate(-36.88)"/>
              <ellipse class="cls-9" cx="510.16" cy="343.63" rx="44.64" ry="17.2" transform="translate(160.27 849.51) rotate(-89.29)"/>
              <path class="cls-28" d="M510.07,309.92c.73,5.93,1.16,11.9,1.47,17.89.18,2.99.25,5.99.36,8.99.07,3,.11,6.01.13,9.02,0,3.01-.05,6.02-.1,9.03-.12,3.01-.18,6.03-.4,9.04-.38,6.01-.91,12.07-2.1,17.94.21-6.03.22-12,.25-17.98,0-5.98.01-11.95-.02-17.93.03-2.99,0-5.98,0-8.98.02-2.99,0-5.99.04-8.99.04-6,.13-12,.37-18.03Z"/>
            </g>
            <path class="cls-21" d="M386.91,229.6s-6.5,16.52-13.2,33.06c-5.71,14.08-16.45,16.84-28.08,21.11-2.02.74-4.07,1.53-6.13,2.44-6.26,2.76-15.38,6.95-24.48,11.63-11.05,5.67-22.09,12.05-27.98,17.4-10.73,9.74-27.51,8.61-27.51,8.61,0,0-13.7,6.62-17.39,6.96-3.69.34-4.58-2.27-4.58-2.27-4.4-.82-4.33-4.2-4.33-4.2-2.81.91-5.75.22-4.83-3.25.93-3.48,25.06-14,25.06-14-5.83-.24-17.49,4.25-19.59,4.86-2.09.61-4.11-.44-3.75-3.03.36-2.59,17.62-9.48,25.27-8.39,7.65,1.09,13.15-2.1,13.15-2.1-.43-4.28-14.88-8.35-9.06-11.95,5.81-3.6,20.89,9.77,20.89,9.77,17.75-8.03,66.36-48.88,66.36-48.88.07-5.17,8.46-30.89,8.46-30.89l16.57,6.85,15.16,6.27Z"/>
            <path class="cls-41" d="M386.91,229.6s-6.5,16.52-13.2,33.06c-5.71,14.08-16.45,16.84-28.08,21.11,36.41-27.01,19.48-58.69,19.48-58.69,0,0,2.89-.76,6.64-1.76l15.16,6.27Z"/>
            <path class="cls-22" d="M384.16,102.7s6.44-.69,9.42,5.75-3.47,15.37-3.47,15.37c0,0,4.07-.79,6.94,4.56s-5.55,12.39-5.55,12.39l-16.76-24.99-.89-6.64,10.31-6.44Z"/>
            <path class="cls-41" d="M386.92,127.83s7.06,26.5,30.2,25.57c0,0,3.57,9.65-14.15,17.19-17.71,7.54-19.3-4.49-19.3-4.49,0,0,1.98-9.65-4.76-13.35-6.74-3.7,8.01-24.91,8.01-24.91Z"/>
            <path class="cls-20" d="M268.06,274.7l-29.55,5.82s-5.78-2.71-8.46-7.23c-.56-.95-.99-1.98-1.19-3.08-1.19-6.34,4.56-8.26,7.6-6.81,0,0-2.64-12.49,7.74-16.53,10.38-4.03,15.73.53,15.73.53l.07.26,8.06,27.05Z"/>
            <path class="cls-36" d="M260,247.65c-3.96-.05-17.85.81-18.19,15.21-.26,10.88-6.83,10.94-11.76,10.42-.56-.95-.99-1.98-1.19-3.08-1.19-6.34,4.56-8.26,7.6-6.81,0,0-2.64-12.49,7.74-16.53,10.38-4.03,15.73.53,15.73.53l.07.26Z"/>
            <path class="cls-25" d="M260.62,249.05s3.97,22.41-19.33,26.67c-23.3,4.26,11.9,35,28.81,16.89,8.16-8.74-3.92-28.09-4.02-28.49s-5.45-15.07-5.45-15.07Z"/>
            <path class="cls-29" d="M296.94,264.71l-16.05,4.36-16.54,4.5c-1.38-2.44-2.47-4.78-3.31-7.01-7.42-19.7,4.3-31.32,4.3-31.32l-1.98-8.2c2.74-2.82,9.8-3.52,9.8-3.52l2.76,8.49c.89.02,1.73.1,2.55.24,2.25.37,4.23,1.15,5.96,2.25,12.14,7.64,12.51,30.22,12.51,30.22Z"/>
            <path class="cls-24" d="M288.1,247.96s9.09,21.75,3.23,31.57l-18.05,14.18c-1.38-2.44-11.39-24.91-12.24-27.15,12.31-9.37,16.3-27.24,17.43-34.31,2.25.37,4.23,1.15,5.96,2.25.72.82,1.22,1.54,1.28,2,.2,1.73,2.39,11.46,2.39,11.46Z"/>
            <g>
              <path class="cls-7" d="M246.15,280.19c0,2.36-.47,4.61-1.32,6.66,0,.03-.02.05-.03.08-2.63,6.29-8.85,10.71-16.1,10.71-4.41,0-8.43-1.63-11.5-4.33-1.93-1.68-3.48-3.79-4.51-6.17-.93-2.13-1.44-4.48-1.44-6.95,0-9.64,7.81-17.45,17.45-17.45,3.31,0,6.41.93,9.05,2.53,5.04,3.06,8.4,8.6,8.4,14.93Z"/>
              <path class="cls-5" d="M246.15,280.19c0,2.36-.47,4.61-1.32,6.66,0,.03-.02.05-.03.08-2.04,4.78-16.91,6.67-27.6,6.38-1.93-1.68-3.48-3.79-4.51-6.17.24-.07.48-.14.74-.22,20.09-5.8,23.73-16.73,24.32-21.66,5.04,3.06,8.4,8.6,8.4,14.93Z"/>
              <path class="cls-38" d="M212.55,281.05c0,5.79,2.82,10.92,7.16,14.09-5.07-3.05-8.46-8.61-8.46-14.96,0-9.64,7.81-17.45,17.45-17.45,3.85,0,7.41,1.25,10.29,3.36-2.62-1.58-5.71-2.49-8.99-2.49-9.64,0-17.45,7.81-17.45,17.45Z"/>
              <path class="cls-15" d="M218.42,256.45l3.7.73s-5.68,5.29-1.32,14.28l-1.65.33s-3.5-8.92-.73-15.34Z"/>
              <path class="cls-5" d="M223.57,267.42s-.73,4.96-8.16,4.66c0,0,7.7,3.47,8.16-4.66Z"/>
            </g>
            <g>
              <path class="cls-7" d="M278.49,285.14c0,2.36-.47,4.61-1.32,6.66,0,.03-.02.05-.03.08-2.63,6.29-8.85,10.71-16.1,10.71-4.41,0-8.43-1.63-11.5-4.33-1.93-1.68-3.48-3.79-4.51-6.17-.93-2.13-1.44-4.48-1.44-6.95,0-9.64,7.81-17.45,17.45-17.45,3.31,0,6.41.93,9.05,2.53,5.04,3.06,8.4,8.6,8.4,14.93Z"/>
              <path class="cls-5" d="M278.49,285.14c0,2.36-.47,4.61-1.32,6.66,0,.03-.02.05-.03.08-2.04,4.78-16.91,6.67-27.6,6.38-1.93-1.68-3.48-3.79-4.51-6.17.24-.07.48-.14.74-.22,20.09-5.8,23.73-16.73,24.32-21.66,5.04,3.06,8.4,8.6,8.4,14.93Z"/>
              <path class="cls-38" d="M244.89,286c0,5.79,2.82,10.92,7.16,14.09-5.07-3.05-8.46-8.61-8.46-14.96,0-9.64,7.81-17.45,17.45-17.45,3.85,0,7.41,1.25,10.29,3.36-2.62-1.58-5.71-2.49-8.99-2.49-9.64,0-17.45,7.81-17.45,17.45Z"/>
              <path class="cls-15" d="M250.76,261.4l3.7.73s-5.68,5.29-1.32,14.28l-1.65.33s-3.5-8.92-.73-15.34Z"/>
              <path class="cls-3" d="M255.92,272.37s-.73,4.96-8.16,4.66c0,0,7.7,3.47,8.16-4.66Z"/>
            </g>
            <path class="cls-31" d="M327.8,271.94s9.25-1.35,12.22-7.08c2.97-5.73-1.98-9.23-5.31-8.71,0,0,6.14-11.2-2.63-18.05-8.77-6.86-15.21-4.04-15.21-4.04l-15.67,23.79,26.61,14.1Z"/>
            <path class="cls-20" d="M317.89,287.78s-8.46-3.97-9.65-10.31c-1.19-6.35,4.56-8.26,7.6-6.81,0,0-2.64-12.49,7.73-16.52,10.38-4.03,15.73.53,15.73.53l8.13,27.3-29.55,5.82Z"/>
            <path class="cls-21" d="M334.09,126.43s14.81,45.21,38.6,33.05,12.29-37.94,12.29-37.94l-19.04-13.75-31.86,18.64Z"/>
            <rect class="cls-30" x="260.97" y="221.34" width="12.89" height="4.36" rx="2.18" ry="2.18" transform="translate(-54.5 89.95) rotate(-17.36)"/>
            <path class="cls-6" d="M273.28,220.69c-.08,0-.15.02-.23.05l-9.98,3.12c-.64.2-1,.88-.8,1.53l.57,1.82c-.57.06-1.12-.28-1.29-.84l-.58-1.84c-.2-.64.16-1.32.8-1.53l9.98-3.12c.64-.2,1.32.16,1.52.8v.02Z"/>
            <path class="cls-21" d="M375.14,118.63s.73-13.29,12.03-10.84c11.3,2.45,9.58,18.44-3.9,21.22,0,0-7.54-4.96-8.13-10.38Z"/>
            <ellipse class="cls-41" cx="291.6" cy="255.4" rx="51.46" ry="15.76" transform="translate(.09 510.9) rotate(-82.45)"/>
            <path class="cls-18" d="M306.26,215.33c-1.69-4.16-3.92-6.69-6.59-7.05-8.63-1.14-18.66,20.77-22.39,48.94-2.25,16.98-1.7,32.35.98,42.14-3.76-9.26-4.85-26.6-2.27-46.03,3.74-28.18,13.76-50.08,22.39-48.94,3.43.45,6.12,4.48,7.89,10.94Z"/>
            <path class="cls-21" d="M287,224.46s7.36-4.21,15.57.59c0,0-10.18-1.65-15.57-.59Z"/>
            <path class="cls-21" d="M283.4,232.82s10.68-6.12,22.6.86c0,0-14.78-2.4-22.6-.86Z"/>
            <path class="cls-21" d="M280.87,240.85s12.39-7.1,26.21,1c0,0-17.14-2.78-26.21-1Z"/>
            <path class="cls-21" d="M279.66,250.56s12.39-7.1,26.21,1c0,0-17.14-2.78-26.21-1Z"/>
            <path class="cls-21" d="M278.87,261.73s12.39-7.1,26.21,1c0,0-17.14-2.78-26.21-1Z"/>
            <path class="cls-21" d="M332.43,235.92c-1.22,4.56-2.73,9.32-4.52,14.17-4.08,11.03-8.97,20.79-13.88,28.21-6.95,10.51-13.95,16.36-18.74,14.59-4.25-1.57-5.92-8.83-5.15-19.18.19-2.59.53-5.37,1.02-8.3,1.32-7.9,3.73-16.92,7.18-26.26,9.85-26.66,24.45-45.83,32.62-42.81,6.68,2.47,6.99,19.03,1.48,39.57Z"/>
            <path class="cls-41" d="M332.43,235.92c-1.22,4.56-2.73,9.32-4.52,14.17-4.08,11.03-8.97,20.79-13.88,28.21-8.97-.07-18.6-1.98-23.89-4.58.19-2.59.53-5.37,1.02-8.3.5-.19,1.04-.38,1.62-.57,19.54-6.25,33.27-20.87,39.66-28.93Z"/>
            <path class="cls-4" d="M335.76,204.31c-.86-1.84-2.03-3.09-3.52-3.64-8.17-3.02-22.77,16.15-32.62,42.81-6.88,18.63-9.62,35.98-7.86,45.78-3.87-8.23-1.49-28.3,6.56-50.1,9.85-26.66,24.45-45.83,32.62-42.81,2.46.91,4.06,3.73,4.82,7.96Z"/>
            <path class="cls-22" d="M414.01,334.02s-12.2,79.12-4.76,120.47l42.24-18.44s3.57-42.24,8.33-69.6l-1.78,71.68,52.05-35.99-5.06-72.58-91.02,4.46Z"/>
            <path class="cls-10" d="M227.41,332.73s-30.49-10.74-54.24-24.79c-6.38-3.77-12.28-7.79-16.96-11.9-3.1-2.72-5.68-5.49-7.52-8.25l30.17-25.55,5.46-4.63s7.57,16.32,17.75,30.86c3.21,4.58,6.68,8.99,10.25,12.66,3.01,3.07,6.08,5.63,9.13,7.32l5.95,24.29Z"/>
            <path class="cls-32" d="M227.41,332.73s-30.49-10.74-54.24-24.79c9.53.94,29.59,1.72,39.16-6.81,3.01,3.07,6.08,5.63,9.13,7.32l5.95,24.29Z"/>
            <path class="cls-30" d="M349.75,286.4c-2.1-6.75-4.15-13.11-5.87-18.36-2.72-8.29-4.63-13.83-4.63-13.83-23.99,1.79-127.51,31.13-127.51,31.13,0,4.61,3.48,17.85,7.78,32.5,2.68,9.12,5.69,18.79,8.38,27.25,4.33,13.64,7.84,24.13,7.84,24.13,35.1-4.76,126.52-34.11,126.52-34.11-1.1-10.33-6.97-30.9-12.5-48.71ZM310.1,277.6s-40.45,15.47-61.67,16.85l-2.58-5.15s24.98-16.78,64.25-16.72v5.02Z"/>
            <path class="cls-22" d="M338.95,126.09s-5.29,9.85-19.69,5.7c-14.41-4.15-14.93-39.29,15.34-37.63,0,0,1.76-12.02,13.89-13.68,12.13-1.66,19.69,8.29,19.69,8.29,0,0,7.98-3.52,13.68,3.11,5.7,6.63,2.59,10.78,2.59,10.78,0,0-7.33,5.99-8.69,12.79,0,0,.19,8.15,7.55,16.65,0,0-11.82,1.76-13.06-14.62,0,0-4.25,4.15-9.43,4.72-5.18.57-7.31-2.18-7.31-2.18,0,0-8.34,14.15-14.56,6.06Z"/>
            <path class="cls-12" d="M505.03,329.56s-27.37,14.87-91.02,4.46c0,0,.51-2.45,1.12-6.68,1.12-7.85,2.56-21.84,1.63-37.65-.46-7.71-1.49-15.85-3.39-23.92-.98-4.16-2.21-8.31-3.7-12.37-1.33-3.6-2.87-7.13-4.67-10.54-2.53-4.81-5.55-9.39-9.16-13.6-.94-1.1-1.92-2.17-2.94-3.22,0,0-.47,1.36-1.21,3.44-2.37,6.65-7.53,20.62-8.94,20.42-1.85-.26-24.46-13.22-34.37-12.36,0,0,.04-.65.16-1.83.27-2.89.94-8.95,2.32-16.34,3.72-20,12.61-49.8,32.82-53.28,0,0,2.1,1.22,5.38,2.07,5.99,1.54,15.94,1.82,24.3-8.9,1.3-1.67,2.57-3.61,3.77-5.85,0,0,25.45-9.05,51.82,12.56,12.85,10.53,22.87,39.95,29.22,72.07,2.29,11.57,4.1,23.49,5.4,35.01,2.49,22.14,3.08,42.77,1.47,56.52Z"/>
            <path class="cls-40" d="M498.15,238.03s0-.04-.01-.06c-28.71-99.97-72.98-81.65-84.8-78.71,1.3-1.67,2.57-3.61,3.77-5.85,0,0,25.45-9.05,51.82,12.56,12.85,10.53,22.87,39.95,29.22,72.07Z"/>
            <path class="cls-16" d="M451.48,165.81s-12.29,41.39-12.56,41.79c-.26.4-8.2,24.46-8.46,25.25-.26.8-4.89,17.32-4.89,17.32,0,0-8.47,2.3-15.92,3.23-1.33-3.6-2.87-7.13-4.67-10.54,10.51-12.55,7.84-23.38,14.51-45.31,7.27-23.92,31.99-31.74,31.99-31.74Z"/>
            <path class="cls-16" d="M460.52,239.91c-17.34,34.57-29.69,46.14-43.49,49.79-.46-7.71-1.49-15.85-3.39-23.92,2.91-4.7,5.41-8.17,5.41-8.17,0,0,22.94-41.37,22.77-43.75-.17-2.38,18.69-46.73,18.69-46.73,0,0,20.05,32.81,0,72.79Z"/>
            <path class="cls-2" d="M362.25,335.11s-91.42,29.35-126.52,34.11c0,0-3.51-10.49-7.84-24.13,76,19.64,112.23-39.39,121.85-58.69,5.53,17.81,11.4,38.38,12.5,48.71Z"/>
            <path class="cls-21" d="M451.48,232s-7.13,16.26-14.47,32.52c-6.25,13.85-17.09,16.19-28.88,20.01-2.05.67-4.13,1.38-6.22,2.2-6.36,2.51-15.64,6.35-24.91,10.67-11.26,5.24-22.54,11.19-28.63,16.3-11.1,9.32-27.82,7.54-27.82,7.54,0,0-13.95,6.08-17.65,6.28-3.7.2-4.49-2.45-4.49-2.45-4.36-.99-4.16-4.36-4.16-4.36-2.85.8-5.75,0-4.7-3.44,1.06-3.44,25.58-13.02,25.58-13.02-5.82-.46-17.65,3.57-19.76,4.1-2.11.53-4.09-.6-3.63-3.17.46-2.58,17.98-8.79,25.58-7.4,7.6,1.39,13.22-1.59,13.22-1.59-.26-4.3-14.54-8.92-8.59-12.29,5.95-3.37,20.49,10.57,20.49,10.57,18.04-7.33,68.21-46.27,68.21-46.27.27-5.16,9.65-30.54,9.65-30.54l16.29,7.49,14.91,6.86Z"/>
            <path class="cls-41" d="M451.48,232s-7.13,16.26-14.47,32.52c-6.25,13.85-17.09,16.19-28.88,20.01,37.43-25.57,21.74-57.89,21.74-57.89,0,0,2.91-.65,6.7-1.5l14.91,6.86Z"/>
            <path class="cls-12" d="M457.04,237.75c-7.07.67-18.81-4.61-27.69-9.34h0s0,0,0,0c-6.81-3.63-11.93-6.92-11.93-6.92,2.18-33.38,22.47-52,34.06-55.67,0,0,.01,0,.01,0,2.24-.71,4.16-.86,5.56-.45,19.43,5.75,0,72.38,0,72.38Z"/>
            <path class="cls-41" d="M380.03,119.63s.33-7.4,6.54-6.61,1.88,8.99-1.27,11.04c0,0,2.59-8.33-5.27-4.43Z"/>
            <path class="cls-34" d="M375.3,146.19c-.7,3.61-4.68,7.62-8.95,8.27-1.8.27-3.3.29-4.54.13-2.95-.37-4.44-1.74-5.04-3.07-1.35-2.97,5.49-4,6.68-8.43s7.07-4.69,10.77-.99c1.1,1.1,1.39,2.56,1.09,4.09Z"/>
            <path class="cls-41" d="M313.11,217.65s9.56-.78,15.62,3.5c0,0-9.28-3.24-15.62-3.5Z"/>
            <path class="cls-41" d="M307.57,229.54s9.56-.78,15.62,3.5c0,0-9.28-3.24-15.62-3.5Z"/>
            <path class="cls-41" d="M304.18,241.12s9.56-.78,15.62,3.5c0,0-9.28-3.24-15.62-3.5Z"/>
            <path class="cls-41" d="M300.27,253.12s9.56-.78,15.62,3.5c0,0-9.28-3.24-15.62-3.5Z"/>
            <path class="cls-22" d="M36.65,406.69s1.78,22.61,4.36,40.85c2.58,18.24,41.84,13.88,41.84,13.88l2.38-28.95,3.57,29.41s17.25,12.83,42.63,8.86c0,0-7.56-28.3-6.35-54.93l-88.44-9.12Z"/>
            <path class="cls-33" d="M163.75,180.83l-2.69,8.41-.89,2.77-9.03,28.28c-3.41-13-1.09-22.33,2.21-28.5.76-1.43,1.58-2.69,2.4-3.79,2.92-3.94,5.76-5.77,5.76-5.77l2.24-1.41Z"/>
            <path class="cls-21" d="M165.01,197.95s-3.7-11.17-14.28-5.35c-10.58,5.82-2.58,21.35,4.63,19.96,7.2-1.39,9.65-14.61,9.65-14.61Z"/>
            <path class="cls-10" d="M184.32,257.6c-1.7,1.91-3.35,3.82-4.95,5.73-9.18,10.96-16.82,21.94-23.16,32.7-1.15,1.95-2.26,3.9-3.33,5.83-1.74,3.14-3.36,6.27-4.88,9.36-2.25,4.58-4.28,9.09-6.11,13.53-2.93,7.12-5.35,14.04-7.34,20.66-2.4,8-4.17,15.58-5.47,22.6-5.39,29.19-2.61,48.79-2.61,48.79-33.31,1.39-89.83-10.11-89.83-10.11-.29-3.51-.53-6.95-.71-10.33-1.15-21.4-.15-40.39,2.34-57.17,0,0,0,0,0-.02,9.91-66.73,43.36-98.31,58.25-105.99,9.06-4.67,18.97-4.76,26.9-3.54,8.91,1.36,15.34,4.37,15.34,4.37,13.52-1.18,26.92,7.22,35.65,14.32,6.09,4.95,9.9,9.27,9.9,9.27Z"/>
            <path class="cls-26" d="M202.07,288.46c-11.83-6.79-18.74-16.76-22.71-25.14-.18-.37-.35-.74-.51-1.1-2.98-6.62-4.12-12.08-4.44-13.89,6.09,4.95,9.9,9.27,9.9,9.27,0,0,7.57,16.32,17.75,30.86Z"/>
            <path class="cls-32" d="M152.88,301.86c-1.74,3.14-3.36,6.27-4.88,9.36-8.01.74-16.42.87-16.46.93-.1.15-3.48-1.98-5.26-6.86-1.78-4.89-4.96-14.4-9.12-23.92-4.16-9.52-9.72-38.72-9.72-38.72,0,0,22.57,47.97,45.44,59.21Z"/>
            <path class="cls-32" d="M141.89,324.75c-2.93,7.12-5.35,14.04-7.34,20.66-39.91-20.28-57.06-70.59-57.06-70.59l61.27,46.54s1.25,1.31,3.12,3.39Z"/>
            <path class="cls-21" d="M151.14,221.28s-3.06,10.19-12.38,12.73c0,0,1.14,13.65,9.92,13.38s2.45-26.11,2.45-26.11Z"/>
            <path class="cls-37" d="M146.5,173.79s2.56,5.87,9.23,14.13c.95,1.18,2.49.22,3.61,1.49,1.44,1.62,3.02,2.14,4.76,3.87,8.26,8.21,19.51,20.71,35.74,28.51,6.47,3.11,13.66,6.01,21.62,8.55,0,0-15.37-28.09-33.71-37.41-18.34-9.32-41.25-19.14-41.25-19.14Z"/>
            <path class="cls-21" d="M207.58,211.97s-14.81,37.54-40.32,31.86c-25.51-5.68-13.09-43.63-13.09-43.63l25.19-18.38,28.22,30.14Z"/>
            <path class="cls-14" d="M182.4,192.53s-.92,1.95-3.52,3.48c-1.34.78-3.13,1.45-5.47,1.68-6.88.66-14.81,17.98-17.25,17.38-2.45-.59,7.69-18.01,7.6-18.9-.07-.67-1.18-2.78-3.57-4.16-.75-.44-1.63-.8-2.64-1.01-.53-.11-.94-.31-1.24-.57-.65-.56-.8-1.42-.55-2.42.56-2.22,3.1-5.11,6.42-6.78,5.49-2.78,18.9,8.6,20.23,11.31Z"/>
            <path class="cls-33" d="M182.4,192.53s-.92,1.95-3.52,3.48c-6.53-6.26-12.88-7.37-17.81-6.77-1.8.22-3.41.67-4.77,1.18-1.18.45-1.95.51-2.71.94.76-1.43,1.35-2.26,2.16-3.36.56-2.22,3.1-5.11,6.42-6.78,5.49-2.78,18.9,8.6,20.23,11.31Z"/>
            <path class="cls-30" d="M221.46,230.34c-22.08-29.22-74.96-56.54-74.96-56.54h0c5.95-7.9,16.65-1.89,21.81.63,5.15,2.51,12.29-10.71,19.56-10.97,4.18-.15,10.84,3.1,17.16,7.32,4.68,3.13,9.16,6.79,12.31,9.99,7.39,7.54,3.98,14.81-.78,20.76-4.76,5.95,5.42,19.04,5.55,23.54.13,4.49-.66,5.28-.66,5.28Z"/>
            <path class="cls-14" d="M179.83,243.21s-4.42,6.48-10.86,11.86c-3.89,3.25-8.51,6.1-13.34,6.87,0,0,3.69-7.07.99-8.39s-7.14,4.33-7.14,4.33c0,0-5.06-11.16-2.3-25.68.72-3.78,1.97-7.8,3.98-11.9,0,0,4.54-.4,5.46,4.23.93,4.63,4.89,14.08,9.52,9.91l7.01,4.1s-1.95,5.97,6.69,4.67Z"/>
            <path class="cls-33" d="M173.87,225.95l-2.18,3.12c-5.7-6.4-14.62-7.04-14.62-7.04,6.59-2.2,12.6.98,15.31,2.8.96.65,1.5,1.12,1.5,1.12Z"/>
            <path class="cls-33" d="M186.41,242.65s-1.04-2.9-4.95-6.32c0,0,0,0,0,0-1.62-1.41-3.72-2.91-6.45-4.34l2.68-3.62s5.01,3.65,7.44,9.08c.71,1.6,1.21,3.34,1.28,5.19Z"/>
            <path class="cls-34" d="M177.39,234.47c-.38,1.54-1.58,2.09-3.07,2.01-2.53-.13-5.95-2.02-7.78-3.8-.38-.37-.67-.76-.87-1.15-1.34-2.59,1.02-5.22,3.36-2.77,2.69,2.83,8.38,5.7,8.38,5.7Z"/>
            <path class="cls-35" d="M375.3,146.19c-.7,3.61-4.68,7.62-8.95,8.27-1.8.27-3.3.29-4.54.13.97-1.92,4.3-6.79,13.5-8.4Z"/>
            <path class="cls-35" d="M174.31,236.49c-2.53-.13-5.95-2.02-7.78-3.8-.38-.37-.67-.76-.87-1.15,1.69.15,6.27.93,8.66,4.95Z"/>
            <path class="cls-21" d="M281.61,326.51s2.11,3.51-2.25,5.09c0,0,1.52,2.24-2.11,3.83-1.66.73-4.15,1.55-7.15,2.27-3.55.85-7.84,1.55-12.35,1.76,0,0-20.92,4.36-37.58-2.97l1.14-9.51.81-6.75s11.9,4.23,17.18.93c5.29-3.3,9.12-8.26,12.23-10.31,1.29-.85,3.05-1.79,4.77-2.66,2.41-1.23,4.72-2.32,5.42-2.82.1-.07.19-.09.28-.06,1.04.28,1.55,6.41-3.39,8.72-5.35,2.51-3.57,5.49.26,4.1,3.84-1.39,18.38-10.31,20.16-9.52,1.78.79,3.7,2.38,1.65,4.29-2.05,1.92-12.68,9.05-19.29,12.16.46-.16,18.41-6.63,21.61-3.76,3.24,2.91-.33,4.89-1.39,5.22Z"/>
            <path class="cls-41" d="M270.1,337.71c-3.55.85-7.84,1.55-12.35,1.76,0,0-20.92,4.36-37.58-2.97l1.14-9.51c6.86,5.96,22.75,15.89,48.74,10.73.02,0,.03,0,.05,0Z"/>
            <path class="cls-41" d="M158.2,199.37s-1.19-6.05-6.1-3.57c-4.91,2.48-4.46,8.38.94,11.1,0,0-2.83-7.98,5.16-7.54Z"/>
            <path class="cls-10" d="M219.73,344.63c-2.62.71-39.65-1.67-65.55-6.41-9.96-1.82-18.28-4-22.36-6.48-14.67-8.92-54.33-56.91-54.33-56.91,0,0,3.57-20.12,29.94-32.17,0,0,20.45,49.03,38.19,62.31,0,0,72.23,11.5,76.51,14.28.75.48,1.28,1.55,1.61,2.97,1.59,6.73-1.02,21.59-4.01,22.41Z"/>
            <path class="cls-16" d="M505.03,329.56s-27.37,14.87-91.02,4.46c0,0,.51-2.45,1.12-6.68,62.08-2.92,82.36-38.13,88.43-54.3,2.49,22.14,3.08,42.77,1.47,56.52Z"/>
            <path class="cls-16" d="M395.83,229.26c-.94-1.1-1.92-2.17-2.94-3.22,0,0,2.78-5.25,4.16-10.61,0,0,2.52,9.37-1.22,13.83Z"/>
            <path class="cls-16" d="M391.68,229.48c-2.37,6.65-7.53,20.62-8.94,20.42-1.85-.26-24.46-13.22-34.37-12.36,0,0,.04-.65.16-1.83,28.07,7.51,39.69-2.16,43.15-6.23Z"/>
            <path class="cls-41" d="M294.5,319.97s8.92-6.48,21.35-9.91c0,0-18.97,8-21.35,9.91Z"/>
            <path class="cls-41" d="M299.13,324.4s7.4-5.49,18.57-9.06c0,0-15.14,7.4-18.57,9.06Z"/>
            <path class="cls-41" d="M317.7,309.78s-.86,3.02,1.87,4.76c0,0-2-2.33-1.87-4.76Z"/>
            <path class="cls-41" d="M320.11,316.37s-.25,2.43,1.14,3.12c0,0-1.14-2.58-1.14-3.12Z"/>
            <path class="cls-41" d="M316.84,304.57s-.92,2.23.73,4.07c0,0-.88-3.17-.73-4.07Z"/>
            <path class="cls-41" d="M317.57,298.67s-1.94,1.93-.49,4.36c0,0-.41-2.92.49-4.36Z"/>
            <path class="cls-41" d="M377,297.39c-11.26,5.24-22.54,11.19-28.63,16.3-11.1,9.32-27.82,7.54-27.82,7.54,0,0,18.03-1.92,26.9-9.52,8.78-7.53,29.18-14.2,29.56-14.32Z"/>
            <path class="cls-41" d="M279.66,326.19l-17.35,2.38s14.48-.79,17.35-2.38Z"/>
            <path class="cls-41" d="M277.97,331.34s-7.44,2.88-15.17,1.88c0,0,8.13,2.68,15.17-1.88Z"/>
            <path class="cls-27" d="M343.88,268.04c-86.85-11.9-116.74,33.98-124.36,49.8-4.3-14.65-7.78-27.9-7.78-32.5,0,0,103.51-29.35,127.51-31.13,0,0,1.91,5.54,4.63,13.83Z"/>
            <path class="cls-40" d="M389.04,168.16c-24.81,8.63-38.2,51.21-38.2,51.21,3.72-20,12.61-49.8,32.82-53.28,0,0,2.1,1.22,5.38,2.07Z"/>
            <path class="cls-40" d="M429.35,228.41s0,0,0,0c-6.81-3.63-11.93-6.92-11.93-6.92,2.18-33.38,22.47-52,34.06-55.67,0,0,.01,0,.01,0-36.04,24.86-22.32,62.08-22.13,62.59Z"/>
            <path class="cls-32" d="M126.47,416.81c-33.31,1.39-89.83-10.11-89.83-10.11-.29-3.51-.53-6.95-.71-10.33,58.71,11.49,83.2-11.1,93.15-28.35-5.39,29.19-2.61,48.79-2.61,48.79Z"/>
            <path class="cls-32" d="M219.73,344.63c-2.62.71-39.65-1.67-65.55-6.41,20.57,1.25,58.74,1.08,69.56-15.99,1.59,6.73-1.02,21.59-4.01,22.41Z"/>
            <path class="cls-26" d="M123.43,229.64c-66.83,19.67-84.87,108.14-85.15,109.54,9.91-66.73,43.36-98.31,58.25-105.99,9.06-4.67,18.97-4.76,26.9-3.54Z"/>
            <path class="cls-27" d="M205.04,170.77c-5.85-2.49-13.01-3.18-16.83.41-5.35,5.02-15.53,9.15-24.46,4.69-8.78-4.39-16.98-2.15-17.25-2.08,5.95-7.89,16.65-1.88,21.81.63,5.15,2.51,12.29-10.71,19.56-10.97,4.18-.15,10.84,3.1,17.16,7.32Z"/>
            <path class="cls-2" d="M217.35,220.3c-1.45-2.64-6.99-8.46-3.69-18.51,1.26-3.83,8.13-11.9,1.72-17.18,0,0-7.23,15.2-15.58,17.18l17.55,18.51Z"/>
            <path class="cls-2" d="M212.47,183.41s-2.2,11.57-13.99,17.15c0,0-8.35-7.9-13.77-9.35,0,0,20.29,5.75,27.76-7.8Z"/>
            <path class="cls-33" d="M155.63,261.93s3.69-7.07.99-8.39-7.14,4.33-7.14,4.33c0,0-5.06-11.16-2.3-25.68.6,4.18,2.73,13.2,9.89,13.39,8.41.22,11.25,5.05,11.91,9.49-3.89,3.25-8.51,6.1-13.34,6.87Z"/>
            <path class="cls-33" d="M186.41,242.65s-1.04-2.9-4.95-6.32c1.11.52,2.41.99,3.66,1.12.71,1.6,1.21,3.34,1.28,5.19Z"/>
            <path class="cls-33" d="M173.87,225.95l-2.18,3.12c-5.7-6.4-14.62-7.04-14.62-7.04,0,0,6.79-.05,9.9,1.77,2.13,1.24,4.27,1.19,5.41,1.03.96.65,1.5,1.12,1.5,1.12Z"/>
            <path class="cls-8" d="M261.99,305.3c-.19.56-1.35,2.71-4.08,3.5-.95.28-1.17-.53-1.62-.61,2.41-1.23,4.72-2.32,5.42-2.82.1-.07.19-.09.28-.06Z"/>
            <path class="cls-8" d="M279.26,308.71s-2.11.85-3.17,1.71c-1.06.86.8,2.71,1.72,2.94s3.69-1.65,3.69-1.65c0,0,.96-2.1-2.24-3Z"/>
            <path class="cls-8" d="M282.72,321.09s-3.71.04-4.01.67-.27,3.44.49,3.93,4.48-.55,4.48-.55c0,0,.93-.98.77-2.12-.17-1.13-1.09-1.95-1.73-1.94Z"/>
            <path class="cls-8" d="M277.73,327.97s3.33-.95,4.11-.98.82,2.28-.34,3.23-3.62.63-3.62.63c0,0-.27-2.28-.15-2.87Z"/>
            <path class="cls-8" d="M279.54,331.96l-2.68,1.04s-.64,1.19,0,1.61,2.11-.29,2.11-.29c0,0,1.23-.69.56-2.36Z"/>
            <path class="cls-2" d="M253.24,295.95s31.55-2.58,51.83-13.78c0,0-23.52,18.24-51.83,13.78Z"/>
            <g>
              <path class="cls-9" d="M259.33,503c-17.62-1.53-40.59-25.24-36.49-32.27,6.63-11.37,18.5,6.82,23.53,1.83,5.46-5.41-27.5-24.22-17.82-42.68,2.56-4.88,11.58-6.02,14.79-.18,3.34,6.07,5.11,15.16,9.68,13.34,7.99-3.17-11.61-43.54,7.42-44.31,10.78-.43,13.45,9.49,12.86,20.74-.41,7.76-4.2,21-.86,22.41,5.15,2.16,17.39-26.58,24.68-14.07,9,15.43-27.68,37.14-23.99,44.76,2.3,4.73,26.73-15.84,29.3-6.69,3.38,12.02-24.79,38.71-43.1,37.13Z"/>
              <path class="cls-28" d="M283.8,479.02c-2.69,1.33-5.35,2.7-8.01,4.08-2.64,1.41-5.3,2.79-7.92,4.24-2.22,1.21-4.43,2.43-6.63,3.68.55-4.02,1.04-8.04,1.47-12.07.46-4.02.79-8.06,1.14-12.09.04-.47.07-.95.1-1.42,2.44-2.16,4.78-4.42,7.12-6.68,2.36-2.33,4.69-4.7,6.93-7.15,2.25-2.45,4.43-4.97,6.46-7.6,2-2.65,3.99-5.38,5.28-8.46-1.74,2.82-3.92,5.3-6.14,7.74-1.11,1.22-2.24,2.41-3.4,3.59-1.14,1.19-2.3,2.36-3.48,3.51-2.34,2.32-4.72,4.6-7.12,6.86-1.79,1.71-3.61,3.38-5.43,5.05.17-2.52.33-5.04.46-7.56.11-2.02.18-4.05.24-6.07.05-2.03.16-4.05.16-6.08l.03-6.08c0-2.03-.07-4.06-.12-6.08-.27-8.1-.84-16.23-2.4-24.18.66,8.07.74,16.14.69,24.2l-.09,6.05-.18,6.05c-.05,2.02-.15,4.03-.23,6.05-.07,2.02-.16,4.03-.29,6.04-.13,2.82-.28,5.64-.44,8.46-.12-.07-.23-.14-.34-.21-.63-.41-1.26-.85-1.88-1.29-1.24-.9-2.47-1.81-3.69-2.75-2.43-1.88-4.81-3.84-7.13-5.86-2.3-2.04-4.57-4.12-6.66-6.38-1.05-1.12-2.04-2.3-2.96-3.53-.89-1.24-1.74-2.55-2.2-4.04.25,1.54.94,2.99,1.72,4.35.78,1.36,1.7,2.64,2.66,3.88,1.94,2.46,4.08,4.76,6.32,6.93,2.23,2.19,4.58,4.25,6.99,6.23,1.21.99,2.43,1.96,3.7,2.89.63.46,1.27.92,1.94,1.37.33.22.67.44,1.03.66.11.07.24.13.36.2-.27,4.43-.56,8.86-.85,13.29l-.86,12.45c-1.66-.86-3.33-1.71-5.01-2.53-1.96-.99-3.95-1.94-5.93-2.89-1.98-.95-3.98-1.87-5.99-2.78-2.01-.9-4.03-1.79-6.07-2.62,1.85,1.2,3.73,2.35,5.62,3.48,1.89,1.13,3.79,2.24,5.7,3.33,1.91,1.09,3.83,2.17,5.76,3.22,1.91,1.06,3.83,2.09,5.76,3.11l-.65,9.43c.56-3.09,1.05-6.2,1.51-9.3l.21-.11c2.63-1.43,5.24-2.9,7.85-4.38,2.61-1.46,5.19-3,7.78-4.5,2.57-1.54,5.14-3.08,7.69-4.66,2.54-1.59,5.08-3.19,7.57-4.88-2.75,1.22-5.44,2.54-8.13,3.87Z"/>
            </g>
          </g>
        </g>
      </g>
    </g>
  </g>
</svg>