<?xml version="1.0" encoding="UTF-8"?>
<svg id="Layer_1" xmlns="http://www.w3.org/2000/svg" viewBox="0 0 550 550">
  <defs>
    <style>
      .cls-1 {
        fill: #fff;
      }

      .cls-2 {
        fill: #d89f00;
      }
    </style>
  </defs>
  <g>
    <path class="cls-1" d="M176.04,237.95c-1.42-6.77-4.69-12.35-9.75-16.58-5.53-4.61-12.13-6.96-20.15-7.18-.4,0-.78-.02-1.18-.02-4.06,0-8.26.59-12.49,1.76-2.31.62-5.19,1.4-7.82,2.7-1.57.77-3.11,1.47-4.67,1.47-.71,0-1.42-.14-2.15-.43-2.45-.96-5.04-1.26-7.55-1.53l-1.18-.14c-1.69-.2-3.38-.3-5.02-.3-1.44,0-2.88.08-4.26.24-3.16.37-7.33.95-11.4,2.3-.18.06-.35.08-.51.08-.25,0-.51-.08-.79-.24-1.98-1.14-4.22-2.11-6.85-2.95-5.14-1.62-9.46-2.52-13.61-2.81-1.14-.09-2.27-.12-3.34-.12-5.85,0-10.94,1.17-15.56,3.59-8.27,4.3-13.39,11.17-15.21,20.38-.78,4-.94,8.08-.48,12.1.62,5.28,1.58,9.52,3.02,13.36,2.58,6.91,7.48,12.25,12.38,16.99l.53.51c2.84,2.73,5.52,5.31,7.83,8.31,2.39,3.11,3.54,6.29,3.51,9.72l-.02,1.27c-.02,1.55-.04,3.15.03,4.74.21,4.85,2.14,8.42,5.75,10.62,1.76,1.07,3.76,1.69,5.97,1.84-.39.62-.77,1.25-1.16,1.87-.73,1.18-1.46,2.36-2.19,3.55-1.16,1.92-2.5,4.82-.63,8,1.37,2.33,3.54,3.56,6.29,3.56.81,0,1.69-.11,2.61-.32,3.42-.79,6.54-2.69,9.54-5.78,1.38-1.42,2.55-2.83,3.54-4.3.13.34.27.68.42,1.01,1.29,3.1,2.98,6.59,6.57,8.81,1.93,1.19,3.95,1.79,5.99,1.79,1.77,0,3.54-.45,5.29-1.34,3.18-1.62,4.73-4.6,5.73-7.01,1.36-3.28,1.97-6.68,2.51-10.01,1.34,2.58,2.96,5.19,4.9,7.92,3.31,4.64,7.19,7.52,11.88,8.82.99.28,1.95.43,2.86.43,1.7,0,3.23-.48,4.53-1.44,2.61-1.9,3.46-5.62,1.98-8.65-.8-1.62-1.77-3.13-2.7-4.58-.49-.77-.99-1.54-1.45-2.32,4.96-.25,8.98-3.13,10.78-7.76,1.03-2.62.99-5.25.95-8.3v-.76s-.02-.08-.02-.08c-.3-3.2.5-6.58,2.27-9.52,1.47-2.46,3.48-4.58,5.42-6.52,1-1.01,2.01-1.99,3.03-2.98,2.43-2.35,4.93-4.79,7.17-7.47,2.54-3.07,4.38-5.97,5.64-8.87,1.51-3.48,2.59-7.39,3.38-12.3.9-5.49.85-10.43-.12-15.13ZM174.31,252.78c-.66,4.08-1.6,8.06-3.25,11.85-1.33,3.08-3.22,5.83-5.36,8.42-3.09,3.71-6.69,6.91-10.08,10.33-2.11,2.12-4.15,4.31-5.7,6.88-2.11,3.5-2.84,7.3-2.52,10.67.04,3.24.15,5.82-.81,8.27-1.57,4.01-5.02,6.43-9.33,6.57-.75.02-1.75-.31-2.14.46-.41.78.32,1.52.72,2.2,1.37,2.33,2.99,4.52,4.18,6.95,1.06,2.16.51,4.9-1.4,6.29-1.73,1.27-3.79,1.28-5.77.73-4.64-1.29-8.1-4.26-10.85-8.1-2.32-3.27-4.41-6.69-6.05-10.37-.25-.54-.48-1.32-1.1-1.27-.75.07-.56.93-.65,1.49-.73,4.25-1.22,8.56-2.89,12.59-1.02,2.47-2.34,4.78-4.84,6.05-3.18,1.62-6.36,1.51-9.42-.38-3-1.86-4.52-4.82-5.83-7.93-.39-.91-.71-1.84-1.12-2.73-.53-1.11-1.07-1.16-1.68-.08-1.17,2.03-2.62,3.83-4.24,5.49-2.41,2.48-5.2,4.47-8.61,5.26-2.95.68-5.37.15-6.85-2.35-1.25-2.12-.54-4.15.62-6.06,1.23-2.02,2.48-4,3.72-6.01.14-.24.26-.49.37-.76.45-1.13.25-1.5-.98-1.48-2.27.04-4.42-.43-6.35-1.61-3.38-2.06-4.68-5.3-4.84-9.08-.08-1.96-.03-3.94,0-5.91.03-4.11-1.44-7.69-3.9-10.9-2.54-3.3-5.55-6.15-8.54-9.03-4.91-4.74-9.49-9.76-11.92-16.29-1.56-4.16-2.39-8.5-2.91-12.92-.45-3.88-.29-7.72.45-11.53,1.7-8.6,6.44-15.01,14.23-19.07,5.62-2.94,11.62-3.7,17.9-3.26,4.53.32,8.88,1.38,13.17,2.74,2.22.71,4.42,1.6,6.47,2.78.92.53,1.84.63,2.83.31,3.59-1.19,7.31-1.79,11.03-2.22,2.91-.34,5.89-.29,8.84.07,2.79.33,5.68.53,8.26,1.55,3.16,1.25,5.67.23,8.37-1.1,2.37-1.17,4.92-1.88,7.47-2.57,4.3-1.18,8.67-1.79,13.12-1.67,7.06.19,13.49,2.15,19,6.74,4.89,4.09,7.82,9.32,9.11,15.51,1,4.82.9,9.61.11,14.45Z"/>
    <path class="cls-1" d="M168.87,238.04c-.53-1.85-1.15-3.47-1.89-4.93-.74-1.44-1.59-2.7-2.57-3.84-4.06-4.67-9.55-7.35-16.33-7.97-7-.64-14.12.73-21.8,4.18-.27.12-.37.2-.39.24.02,0,.08.11.31.32,1.11,1.02,2.49,2.43,3.31,4.31.03.06.06.12.08.18.17.33.56,1.08-.2,1.61-.72.51-1.34-.03-1.67-.31l-.1-.09c-1.97-1.7-4.31-3.01-7.17-4.03-7.65-2.74-15.26-3.55-22.59-2.42-3.6.56-8.27,1.46-12.56,3.67-1.54.79-3.14,1.67-4.48,2.92-.24.22-.73.7-1.37.35-.75-.39-.55-1.17-.47-1.46.09-.36.23-.69.37-.98.55-1.14,1.39-2.03,2.21-2.89l.41-.42c.3-.32.6-.64.72-.81-.18-.12-.61-.31-1.05-.49-.04-.02-.09-.04-.13-.06-6.96-2.94-13.44-4.2-19.81-3.89-3.93.21-7.49,1.1-10.57,2.67-7.21,3.64-11.31,9.86-12.16,18.47-.6,6.02.27,12.19,2.68,18.86,1.77,4.9,5.14,8.67,8.72,12.42,1.14,1.19,2.35,2.36,3.52,3.5,1.76,1.71,3.58,3.47,5.23,5.35,1.59,1.79,3.22,3.76,4.46,6.01,2.14,3.92,3.13,8.26,2.77,12.23,0,.63,0,1.23,0,1.78,0,1.09-.02,1.94.02,2.81.11,2.89,1.73,4.79,4.43,5.22,1.12.18,2.42.35,3.72.11.6-.12.86-.32,1.02-.78,1.23-3.65,2.38-7.25,2.92-11.01.11-.79,0-1.36-.36-1.89-2.18-3.17-2.45-6.58-.83-10.15,1.36-2.98,2.3-6.35,2.88-10.29.09-.64-.05-1.1-.52-1.63-2.84-3.31-4.86-6.31-6.37-9.42-1.53-3.14-1.94-6.52-1.22-10.06,1.01-4.93,3.98-8.95,9.38-12.65l.09-.07c.26-.19,1.09-.76,1.66.02.54.74-.13,1.34-.39,1.57l-.11.1c-1.15,1.08-2.22,2.34-3.47,4.12-3.3,4.65-4.51,11.87.2,17.53,1.16,1.4,2.29,2.8,3.43,4.21.85,1.06,1.7,2.1,2.56,3.15.33.42.76,1.07.54,1.96-.76,2.98-1.55,5.9-2.78,8.7-1.2,2.71-1.56,5.03-1.14,7.31.12.68.38,1.15.76,1.41.4.27.95.34,1.67.2,1.7-.33,3.63-.7,5.65-.1.36.1.95.28,1.1.25,0-.08,0-.66-.02-1.13,0-.49-.03-1.02-.1-1.52-.15-1.08-.09-2.12.23-3.21.51-1.82,1.51-3.37,2.48-4.87l.18-.28c.15-.23.6-.9,1.37-.7.75.18.78.87.8,1.2l.06.71c.16,1.67.33,3.34.5,5.01.45,4.55.91,9.09,1.35,13.64.2,2.05.4,4.11.59,6.17.19,1.96.38,3.93.58,5.89l.1.99c.26,2.48.53,5.04.42,7.59v.12c0,.25.03,1.02-.78,1.1-.72.05-.98-.66-1.09-.97-.07-.17-.08-.33-.09-.48,0-.07-.02-.13-.03-.2l-.8-4.03c-.07-.31-.15-.39-.18-.41-.04-.02-.12-.02-.25,0-1.17.29-2.14-.12-2.78-.47,0,0-.02,0-.03-.02,0,0,0,.02,0,.02.25.59.5,1.15.76,1.71.52,1.16,1.06,2.36,1.49,3.58.54,1.5,1.29,2.88,2.31,4.2,1.01,1.32,2.54,2.07,4.08,1.97,1.42-.08,2.65-.86,3.4-2.11.42-.71.77-1.52,1.08-2.42.83-2.63,1.32-5.36,1.78-8.15l.29-1.75c.52-3.15,1.05-6.32,1.55-9.48,1.09-6.99,2.14-14.51,2.46-22.14.02-.42.06-1.13.83-1.3.71-.15,1.04.43,1.2.7l.07.11c.95,1.57,1.68,3.01,2.2,4.43.44,1.2.57,2.36.38,3.45-.09.56-.1,1.1-.1,1.68,0,.34,0,.67-.03,1.01-.02.31.05.41.05.42h.04s.16,0,.37-.09c2.26-.88,4.45-.55,6.29-.12.66.16,1.2.1,1.61-.16.42-.26.73-.77.88-1.5.35-1.63.18-3.4-.5-5.25-1.4-3.74-2.5-6.92-3.36-10.25-.27-1.01-.11-1.79.53-2.55.95-1.13,1.89-2.29,2.82-3.45.83-1.04,1.67-2.07,2.52-3.08,4.1-4.9,4.76-10.35,1.96-16.19-.96-2.02-2.28-3.83-3.92-5.38-.4-.36-.77-.75-1.14-1.14-.59-.65-.32-1.17-.18-1.36.21-.29.62-.57,1.36-.18.22.11.4.24.59.37,2.62,1.82,5.85,4.41,7.71,8.26,2.22,4.61,2.51,8.84.89,12.93-1.73,4.36-4.57,7.98-6.85,10.63-.48.57-.73.99-.64,1.61.45,3.68,1.44,7.25,2.93,10.6,1.57,3.52,1.29,6.87-.82,9.95-.36.54-.49.99-.42,1.46.44,3.57,1.41,7.29,3.04,11.7.16.43.38.59.83.6.21,0,.42.04.63.08.17.02.35.06.52.06,2.52.06,4.39-.48,5.54-1.6,1.03-1,1.55-2.52,1.56-4.52v-1.1c.02-1.16.04-2.36,0-3.53-.21-5.5,1.63-10.61,5.62-15.64,2.08-2.62,4.49-4.98,6.84-7.24,1.19-1.15,2.42-2.34,3.58-3.55,2.39-2.48,4.87-5.17,6.73-8.32,2.53-4.29,3.96-9.28,4.63-16.2.41-4.21.15-7.82-.77-11.02ZM86.58,264.28c0,.07,0,.15-.02.24,0,.34-.04,1.04-.76,1.21-.08.02-.15.02-.22.02-.67,0-.93-.76-1.04-1.08-.51-1.44-1.27-2.14-2.64-2.45-2.13-.48-3.73-3.1-3.73-5.12,0-1.14.99-2.06,2.37-2.19,1.77-.18,3.18.67,4.17,2.48,1.09,2,1.45,4.21,1.81,6.34l.08.45-.02.08ZM98.29,268.02c.05-.5.51-.83.76-1.02l.09-.07c2.76-2.15,7.88-2.08,10.56.16.22.19.43.43.51.81,0,0,0,0,0,.02.06.09.09.19.09.32-.03.22-.11.27-.14.29,0,0-.03.02-.06.03-.03,0-.06,0-.09,0-.14,0-.32-.06-.48-.1-1.06-.31-2.01-.59-3.02-.77-.69-.12-1.38-.18-2.09-.18-1.54,0-3.15.27-5.1.89l-.25.09c-.15.05-.36.12-.53.12-.06,0-.09,0-.13-.02-.05-.03-.09-.07-.14-.15-.08-.14-.1-.26.02-.43ZM97.22,271.41h0c2.96-2.28,6.02-3.02,9.37-2.28,1.99.45,3.6,1.23,4.9,2.37.21.19.72.62.43,1.27-.26.62-.93.58-1.27.55l-.16-.05c-1.27-.58-2.71-.83-4.08-1.03-2.74-.38-5.48-.05-8.15.98-.05.02-.1.05-.16.08-.14.07-.4.19-.67.19-.25,0-.54-.11-.76-.49-.47-.79.26-1.37.54-1.59ZM113.25,277.88c-.22.42-.57.51-.87.51-.2,0-.38-.04-.5-.07-.44-.11-.87-.27-1.27-.43-.42-.15-.8-.3-1.22-.4-4.4-1.05-8.46-.81-12.43.74-.25.1-1.06.42-1.52-.33-.31-.5-.18-1.01.41-1.51,1.63-1.42,3.7-2.34,6.51-2.89.47-.08.93-.15,1.42-.21l.68-.09h.07c2.62.37,5.38.95,7.77,2.77.24.18.45.39.66.6.44.45.54.89.31,1.31ZM127.4,254.89h.05c1.47,0,2.19.55,2.54,1,.31.42.61,1.15.29,2.3-.61,2.22-1.97,3.65-3.92,4.14-1.08.26-1.68.82-2.09,1.92-.09.25-.19.5-.31.74-.29.53-.63.67-.93.67-.1,0-.19,0-.27-.04-.51-.14-.78-.59-.73-1.18.12-.89.26-1.77.42-2.64.38-2.06,1.03-3.78,2-5.26.63-.95,1.62-1.51,2.96-1.64Z"/>
    <g>
      <path class="cls-2" d="M125.44,298.03c.93,1.97.86,4.94,1.33,7.25,1.89,9.45,6.25,16.32,9.3,21.1.31.43.3.99,0,1.38-.25.32-.66.47-1.07.41-1.25-.47-2.59-1.02-3.62-1.61-10.28-5.88-13.46-17.89-14.48-22.98-.44-3.04,1.21-5.8,3.62-6.57,2.47-.79,4.56.24,4.93,1.02Z"/>
      <path class="cls-2" d="M83.18,298.03c-.93,1.97-.86,4.94-1.33,7.25-1.89,9.45-6.25,16.32-9.3,21.1-.31.43-.3.99,0,1.38.25.32.66.47,1.07.41,1.25-.47,2.59-1.02,3.62-1.61,10.28-5.88,13.46-17.89,14.48-22.98.44-3.04-1.21-5.8-3.62-6.57-2.47-.79-4.56.24-4.93,1.02Z"/>
    </g>
  </g>
  <g>
    <path class="cls-1" d="M209.78,251.01c1.24-1.26,2.73-2.22,4.49-2.89,1.76-.67,3.71-1,5.85-1,2.42,0,4.62.46,6.6,1.39,1.97.93,3.81,2.32,5.53,4.17l8.98-8.13c-2.42-2.95-5.49-5.21-9.2-6.77-3.71-1.57-7.92-2.35-12.62-2.35-4.04,0-7.76.63-11.16,1.89-3.4,1.26-6.34,3.05-8.81,5.38-2.47,2.33-4.4,5.07-5.78,8.24-1.38,3.16-2.07,6.64-2.07,10.45s.69,7.29,2.07,10.45c1.38,3.16,3.29,5.91,5.74,8.24,2.45,2.33,5.36,4.13,8.74,5.38,3.37,1.26,7.03,1.89,10.98,1.89,3.61,0,7.3-.55,11.05-1.64,3.75-1.09,7.06-2.66,9.91-4.71v-20.68h-12.48v13.69c-.5.23-1,.43-1.5.61-2,.69-4.04,1.03-6.13,1.03s-4.01-.34-5.74-1.03c-1.74-.69-3.22-1.66-4.46-2.92-1.24-1.26-2.2-2.77-2.89-4.53-.69-1.76-1.03-3.68-1.03-5.78s.34-4.15,1.03-5.88c.69-1.73,1.65-3.23,2.89-4.49Z"/>
    <path class="cls-1" d="M261.38,276.65h21.17l3.89,9.7h14.69l-22.11-49.92h-13.9l-22.03,49.92h14.4l3.89-9.7ZM265.56,266.24l6.41-15.96,6.41,15.96h-12.81Z"/>
    <path class="cls-1" d="M350.12,254.9c0-3.8-.9-7.1-2.71-9.88-1.81-2.78-4.36-4.91-7.67-6.38-3.31-1.47-7.24-2.21-11.8-2.21h-22.82v49.92h14.12v-13.05h8.7c4.56,0,8.5-.75,11.8-2.25,3.3-1.5,5.86-3.62,7.67-6.38,1.81-2.76,2.71-6.01,2.71-9.77ZM333.68,260.25c-1.45,1.28-3.65,1.93-6.6,1.93h-7.84v-14.62h7.84c2.95,0,5.14.64,6.6,1.93,1.45,1.28,2.18,3.09,2.18,5.42s-.73,4.06-2.18,5.35Z"/>
    <path class="cls-1" d="M389.05,263.67c0,4.28-.83,7.34-2.49,9.2-1.67,1.86-3.97,2.78-6.92,2.78s-5.27-.93-6.95-2.78c-1.69-1.85-2.53-4.92-2.53-9.2v-27.24h-14.12v27.67c0,7.42,2.07,13.14,6.2,17.18,4.14,4.04,9.89,6.06,17.26,6.06s13.12-2.02,17.26-6.06c4.14-4.04,6.2-9.77,6.2-17.18v-27.67h-13.9v27.24Z"/>
    <path class="cls-1" d="M426.63,273.08h7.71l9.05,13.26h15.12l-10.79-15.72c3.02-1.43,5.38-3.43,7.08-6,1.81-2.73,2.71-5.98,2.71-9.73s-.9-7.1-2.71-9.88c-1.81-2.78-4.36-4.91-7.67-6.38-3.31-1.47-7.24-2.21-11.8-2.21h-22.82v49.92h14.12v-13.26ZM441.07,249.48c1.45,1.28,2.18,3.09,2.18,5.42s-.73,4.06-2.18,5.35c-1.45,1.28-3.65,1.93-6.6,1.93h-7.84v-14.62h7.84c2.95,0,5.14.64,6.6,1.93Z"/>
    <path class="cls-1" d="M470.59,279.97c2.5,2.35,5.43,4.17,8.81,5.45,3.37,1.28,7.06,1.93,11.05,1.93s7.74-.64,11.09-1.93,6.26-3.09,8.74-5.42c2.47-2.33,4.41-5.07,5.81-8.24,1.4-3.16,2.1-6.62,2.1-10.38s-.7-7.2-2.1-10.34c-1.4-3.14-3.34-5.88-5.81-8.24s-5.38-4.17-8.74-5.45-7.05-1.93-11.09-1.93-7.68.64-11.05,1.93c-3.38,1.28-6.31,3.1-8.81,5.45-2.49,2.35-4.43,5.1-5.81,8.24-1.38,3.14-2.07,6.59-2.07,10.34s.69,7.2,2.07,10.34c1.38,3.14,3.32,5.88,5.81,8.24ZM478.01,255.51c.69-1.73,1.64-3.23,2.85-4.49s2.64-2.22,4.28-2.89c1.64-.67,3.41-1,5.31-1s3.67.33,5.31,1,3.07,1.63,4.28,2.89c1.21,1.26,2.16,2.76,2.85,4.49.69,1.74,1.03,3.7,1.03,5.88s-.34,4.09-1.03,5.85c-.69,1.76-1.64,3.27-2.85,4.53-1.21,1.26-2.64,2.22-4.28,2.89s-3.41,1-5.31,1-3.67-.33-5.31-1c-1.64-.67-3.07-1.63-4.28-2.89s-2.16-2.77-2.85-4.53c-.69-1.76-1.03-3.71-1.03-5.85s.34-4.15,1.03-5.88Z"/>
    <path class="cls-1" d="M198.69,300.69c.61-.61,1.33-1.08,2.17-1.41.84-.32,1.75-.49,2.75-.49,1.06,0,2.04.21,2.93.63.9.42,1.71,1.05,2.45,1.88l3.18-2.94c-1.02-1.24-2.28-2.19-3.78-2.83s-3.17-.96-5.03-.96c-1.67,0-3.21.27-4.62.81-1.41.54-2.63,1.31-3.68,2.31-1.05,1-1.87,2.17-2.45,3.52-.58,1.34-.87,2.82-.87,4.43s.29,3.09.87,4.43c.58,1.35,1.39,2.52,2.43,3.52,1.04,1,2.27,1.77,3.68,2.31,1.42.54,2.95.81,4.6.81,1.88,0,3.56-.33,5.06-.98,1.5-.65,2.76-1.6,3.78-2.84l-3.18-2.94c-.73.86-1.55,1.49-2.45,1.91-.9.42-1.88.63-2.93.63-1,0-1.92-.16-2.75-.49-.84-.33-1.56-.79-2.17-1.41-.61-.61-1.09-1.34-1.42-2.17s-.5-1.76-.5-2.78.17-1.95.5-2.78c.34-.84.81-1.56,1.42-2.17Z"/>
    <polygon class="cls-1" points="224.43 310.23 217.92 294.94 212.57 294.94 221.81 316.35 226.7 316.35 235.96 294.94 231.04 294.94 224.43 310.23"/>
    <path class="cls-1" d="M252.46,300.69c.62-.61,1.36-1.08,2.22-1.41.86-.32,1.8-.49,2.84-.49s2.08.2,3,.6c.92.4,1.76,1,2.54,1.82l3.18-2.94c-1.04-1.2-2.32-2.12-3.84-2.75-1.52-.63-3.23-.95-5.12-.95-1.71,0-3.28.27-4.71.81-1.43.54-2.67,1.31-3.73,2.31-1.06,1-1.88,2.17-2.46,3.52-.58,1.34-.87,2.82-.87,4.43s.29,3.09.87,4.43c.58,1.35,1.4,2.52,2.45,3.52,1.05,1,2.28,1.77,3.7,2.31,1.42.54,2.97.81,4.66.81,1.53,0,3.06-.23,4.6-.7s2.89-1.14,4.05-2.02v-8.68h-4.53v6.27c-.33.17-.66.32-.99.44-.93.32-1.88.47-2.86.47s-1.95-.16-2.8-.49c-.85-.33-1.58-.8-2.2-1.42s-1.1-1.35-1.44-2.19c-.34-.84-.5-1.75-.5-2.75s.17-1.95.5-2.78c.34-.84.82-1.56,1.44-2.17Z"/>
    <path class="cls-1" d="M284.64,316.35v-9.39c0-2.51-.69-4.35-2.08-5.53s-3.33-1.77-5.84-1.77c-1.3,0-2.59.17-3.85.52s-2.34.84-3.24,1.47l1.71,3.33c.59-.47,1.31-.84,2.16-1.12.85-.27,1.71-.41,2.58-.41,1.28,0,2.24.29,2.86.86.62.57.93,1.36.93,2.38h-3.79c-1.67,0-3.03.21-4.07.63-1.04.42-1.8.99-2.28,1.73-.48.73-.72,1.59-.72,2.57s.24,1.79.73,2.54c.49.76,1.19,1.35,2.11,1.79.92.44,2.02.66,3.3.66,1.45,0,2.63-.27,3.55-.83.63-.37,1.11-.88,1.47-1.49v2.07h4.46ZM278.49,312.81c-.63.38-1.35.57-2.14.57-.84,0-1.49-.18-1.97-.53-.48-.36-.72-.84-.72-1.45,0-.55.21-1.01.63-1.38s1.19-.55,2.31-.55h3.27v1.68c-.29.73-.74,1.29-1.38,1.67Z"/>
    <path class="cls-1" d="M289.16,316.35c0,.79-.18,1.39-.54,1.79-.36.4-.83.6-1.42.6-.79,0-1.47-.2-2.02-.58l-1.28,3.46c.47.31,1.04.53,1.71.69.67.15,1.38.23,2.11.23,1.98,0,3.51-.56,4.59-1.68,1.08-1.12,1.62-2.63,1.62-4.53v-16.42h-4.77v16.45Z"/>
    <path class="cls-1" d="M291.55,292.28c-.88,0-1.59.26-2.14.77s-.83,1.14-.83,1.9.27,1.39.83,1.9,1.26.76,2.14.76,1.62-.26,2.16-.78.81-1.18.81-1.97-.28-1.37-.83-1.85c-.55-.48-1.26-.72-2.14-.72Z"/>
    <path class="cls-1" d="M310.81,301.43c-1.39-1.18-3.33-1.77-5.84-1.77-1.3,0-2.59.17-3.85.52s-2.34.84-3.24,1.47l1.71,3.33c.59-.47,1.31-.84,2.16-1.12.85-.27,1.71-.41,2.58-.41,1.28,0,2.24.29,2.86.86.62.57.93,1.36.93,2.38h-3.79c-1.67,0-3.03.21-4.07.63-1.04.42-1.8.99-2.28,1.73-.48.73-.72,1.59-.72,2.57s.24,1.79.73,2.54c.49.76,1.19,1.35,2.11,1.79.92.44,2.02.66,3.3.66,1.45,0,2.63-.27,3.55-.83.63-.37,1.11-.88,1.47-1.49v2.07h4.46v-9.39c0-2.51-.69-4.35-2.08-5.53ZM306.74,312.81c-.63.38-1.35.57-2.14.57-.84,0-1.49-.18-1.97-.53-.48-.36-.72-.84-.72-1.45,0-.55.21-1.01.63-1.38s1.19-.55,2.31-.55h3.27v1.68c-.29.73-.74,1.29-1.38,1.67Z"/>
    <path class="cls-1" d="M330.7,300.43c-1.03-.52-2.2-.78-3.5-.78-1.41,0-2.66.3-3.76.89-.55.3-1.04.66-1.47,1.09v-7.96h-4.77v22.69h4.77v-8.13c0-1.02.17-1.86.5-2.51.34-.65.8-1.14,1.41-1.45.6-.32,1.28-.47,2.03-.47,1.06,0,1.88.32,2.46.95.58.63.87,1.61.87,2.93v8.68h4.77v-9.42c0-1.67-.3-3.04-.89-4.11-.59-1.07-1.4-1.86-2.43-2.38Z"/>
    <path class="cls-1" d="M361.53,295.88c-1.39-.62-3.04-.93-4.95-.93h-9.26v21.4h4.95v-5.9h4.31c1.92,0,3.57-.31,4.95-.93,1.39-.62,2.46-1.51,3.21-2.68s1.13-2.54,1.13-4.13-.38-2.99-1.13-4.16c-.75-1.16-1.82-2.05-3.21-2.67ZM359.73,305.43c-.76.65-1.9.98-3.42.98h-4.04v-7.43h4.04c1.53,0,2.67.33,3.42.98.75.65,1.13,1.57,1.13,2.75s-.38,2.07-1.13,2.72Z"/>
    <path class="cls-1" d="M381.16,308.03c0,1-.16,1.83-.49,2.49-.33.66-.77,1.15-1.35,1.47-.57.32-1.22.47-1.96.47-1.06,0-1.88-.32-2.46-.96s-.87-1.64-.87-3.01v-8.59h-4.77v9.29c0,1.69.3,3.08.89,4.17.59,1.09,1.42,1.9,2.49,2.43,1.07.53,2.29.79,3.65.79,1.26,0,2.43-.29,3.5-.87.63-.34,1.16-.79,1.61-1.33v1.95h4.53v-16.45h-4.77v8.13Z"/>
    <path class="cls-1" d="M397.76,312.8c-.63,0-1.13-.19-1.5-.57-.37-.38-.55-.91-.55-1.6v-6.7h4.1v-3.67h-4.1v-4.01h-4.77v4.01h-2.54v3.67h2.54v6.76c0,1.96.54,3.43,1.62,4.42s2.59,1.48,4.53,1.48c.73,0,1.44-.09,2.13-.26.68-.17,1.27-.43,1.76-.78l-1.28-3.36c-.53.41-1.17.61-1.93.61Z"/>
    <rect class="cls-1" x="403.66" y="299.9" width="4.77" height="16.45"/>
    <path class="cls-1" d="M406.05,292.28c-.88,0-1.59.26-2.14.77s-.83,1.14-.83,1.9.27,1.39.83,1.9,1.26.76,2.14.76,1.62-.26,2.16-.78c.54-.52.81-1.18.81-1.97s-.28-1.37-.83-1.85c-.55-.48-1.26-.72-2.14-.72Z"/>
    <path class="cls-1" d="M426.37,300.43c-1.03-.52-2.2-.78-3.5-.78-1.41,0-2.66.3-3.76.89-.55.3-1.04.66-1.47,1.09v-7.96h-4.77v22.69h4.77v-8.13c0-1.02.17-1.86.5-2.51.34-.65.8-1.14,1.41-1.45.6-.32,1.28-.47,2.03-.47,1.06,0,1.88.32,2.46.95.58.63.87,1.61.87,2.93v8.68h4.77v-9.42c0-1.67-.3-3.04-.89-4.11-.59-1.07-1.4-1.86-2.43-2.38Z"/>
    <path class="cls-1" d="M449.71,294.94l-9.54,21.4h5.07l1.91-4.59h9.92l1.9,4.59h5.2l-9.57-21.4h-4.89ZM448.72,308l3.41-8.19,3.39,8.19h-6.8Z"/>
    <path class="cls-1" d="M478.36,302c-.49-.63-1.08-1.14-1.77-1.51-1.06-.56-2.28-.84-3.67-.84-1.53,0-2.91.33-4.14.98-1.23.65-2.22,1.57-2.97,2.77-.74,1.19-1.12,2.59-1.12,4.2s.37,2.98,1.12,4.17c.74,1.19,1.73,2.12,2.97,2.78,1.23.66,2.61.99,4.14.99,1.39,0,2.61-.29,3.67-.86.58-.31,1.09-.73,1.53-1.22v.73c0,1.49-.38,2.61-1.15,3.36s-1.99,1.13-3.68,1.13c-1.04,0-2.09-.17-3.16-.51-1.07-.34-1.95-.79-2.64-1.36l-1.9,3.42c.96.75,2.16,1.32,3.59,1.7,1.44.38,2.93.56,4.48.56,2.98,0,5.26-.72,6.85-2.17,1.59-1.45,2.39-3.7,2.39-6.76v-13.7h-4.53v2.11ZM477.62,309.71c-.37.61-.88,1.09-1.53,1.42-.65.34-1.4.51-2.23.51s-1.58-.17-2.23-.51c-.65-.34-1.17-.81-1.54-1.42-.38-.61-.57-1.31-.57-2.11s.19-1.52.57-2.12.89-1.07,1.54-1.41c.65-.34,1.4-.5,2.23-.5s1.58.17,2.23.5c.65.34,1.16.81,1.53,1.41s.55,1.31.55,2.12-.18,1.5-.55,2.11Z"/>
    <path class="cls-1" d="M491.87,302.09v-2.19h-4.56v16.45h4.77v-7.77c0-1.57.4-2.73,1.21-3.47.8-.74,1.86-1.12,3.16-1.12.18,0,.36,0,.52.01.16.01.35.03.55.05v-4.4c-1.55,0-2.86.3-3.94.9-.7.39-1.26.91-1.71,1.53Z"/>
    <path class="cls-1" d="M512.69,300.74c-1.37-.72-2.91-1.09-4.65-1.09s-3.31.36-4.66,1.09c-1.36.72-2.43,1.72-3.21,3s-1.18,2.74-1.18,4.39.39,3.08,1.18,4.36,1.85,2.28,3.21,3.01c1.36.73,2.91,1.1,4.66,1.1s3.28-.37,4.65-1.1,2.44-1.74,3.21-3.01,1.16-2.73,1.16-4.36-.39-3.14-1.16-4.4c-.77-1.27-1.84-2.26-3.21-2.98ZM511.68,310.55c-.37.68-.87,1.21-1.5,1.57-.63.37-1.35.55-2.14.55s-1.51-.18-2.14-.55-1.14-.89-1.51-1.57c-.38-.68-.57-1.49-.57-2.43s.19-1.77.57-2.45c.38-.67.88-1.19,1.51-1.56s1.35-.55,2.14-.55,1.51.18,2.14.55c.63.37,1.13.89,1.5,1.56.37.67.55,1.49.55,2.45s-.18,1.75-.55,2.43Z"/>
  </g>
</svg>