<svg width="740" height="874" viewBox="0 0 740 874" fill="none" xmlns="http://www.w3.org/2000/svg">
<path d="M251.39 419.3V216.6H294.48C295.03 208.25 295.48 201.31 296.02 193.45H394.23L395.78 215.96H438.68V419.37H464.52V348.37H502.12V308.89H581.73V348.02H619V786.34H71.3101V348.49H107.83V308.88H187.39V347.94H225.04V419.3H251.39ZM603.71 643.91C603.71 635.65 603.71 628.19 603.71 620.73C603.71 602.73 601.99 601.53 584.05 606.57V643.91H603.71ZM517.71 605V643.61H536.6V605H517.71ZM504.54 601.06C495.54 605.14 485.48 606.87 484.7 610.58C482.43 621.24 483.89 632.7 483.89 645.36C492.35 642.36 502.49 650.54 504.23 638.22C505.69 627.63 504.5 616.66 504.5 601.06H504.54ZM583.7 584.84H602.64V546.74H583.7V584.84ZM187.37 528.72C194.91 526.42 205.71 525.4 206.22 522.55C208.22 511.18 207.05 499.24 207.05 487.94H187.37V528.72ZM583.63 526.13H602.74V488.25H583.63V526.13ZM484.84 664.13V702.58H503.64V664.1L484.84 664.13ZM503.84 488.03H484.67V526.03H503.88L503.84 488.03ZM536.5 526.32V487.97H517.66V526.29L536.5 526.32ZM108.23 702.66V680.26C108.23 661.63 107.65 661.17 88.2302 665.15V702.66H108.23ZM173.5 488.04H153.36C153.36 496.25 153.36 503.7 153.36 511.15C153.36 528.61 155.56 530.09 173.51 524.72L173.5 488.04ZM187.5 605.58V643.65H206.1C206.595 642.137 206.959 640.585 207.19 639.01C207.32 633.12 207.35 627.23 207.35 621.35C207.36 603.49 207.35 603.49 187.5 605.58ZM120.95 527.08L140.41 526.08V488.08H120.95V527.08ZM88.2302 487.92V529.73C96.1302 526.41 106.46 524.85 107.23 521.21C109.55 510.6 108.06 499.16 108.06 487.92H88.2302ZM569.84 526.16V488.16H551.03V526.16H569.84ZM140.43 585.1V546.83H121.43V585.1H140.43ZM154.23 546.32V584.92H173.23V546.32H154.23ZM154.41 605.78V644.05H174.25C174.25 635.96 174.25 628.51 174.25 621.05C174.28 603.24 174.23 603.24 154.44 605.78H154.41ZM140.6 605.29H121.6V643.8H140.6V605.29ZM187.23 583.95L190.23 588.15C195.9 585.31 205.6 583.37 206.48 579.45C208.78 569.14 207.26 557.98 207.26 546.79H187.23V583.95ZM504.58 546.56H484.98V586.68C492.35 583.12 502.87 592.04 504.31 579.03C505.45 568.68 504.54 558.11 504.54 546.56H504.58ZM517.52 587.28C525.08 585.48 536.01 584.77 536.35 582.5C538.1 570.6 537.17 558.3 537.17 546.68H517.48L517.52 587.28ZM550.98 546.54V589.49C559.17 585.41 568.92 583.49 569.81 579.55C572.13 569.23 570.59 558.05 570.59 546.55L550.98 546.54ZM88.3802 605.88V644.01H108.23C108.23 635.84 108.23 628.4 108.23 620.95C108.23 603.14 108.09 603.05 88.3802 605.88ZM108.1 546.61H88.2302V585.69C95.7602 583.76 105.94 592.22 107.82 578.9C109.23 568.67 108.1 558.08 108.1 546.61ZM88.2302 429.22V466.94H107.4V429.22H88.2302ZM121.13 429.16V467.22H140.33V429.16H121.13ZM205.75 467.21V429.67H187.75V467.21H205.75ZM536.64 467.21V429.66H517.91V467.19L536.64 467.21ZM569.93 467.49V429.39H550.73V467.49H569.93ZM154.51 370.66V408.41H173.56V370.66H154.51ZM140.65 370.86H121.13V408.26H140.65V370.86ZM583.92 370.61V408.55H602.67V370.61H583.92ZM550.83 370.61V408.15H569.74V370.59L550.83 370.61ZM517.59 370.61V408.3H536.77V370.57L517.59 370.61ZM503.93 370.81H484.83V408.49H503.93V370.81ZM154.13 470.81C162.13 467.55 172.5 466.06 173.3 462.43C175.64 451.88 174.13 440.48 174.13 429.33H154.13V470.81ZM503.85 429.65H484.85V467.21H503.85V429.65ZM583.99 429.2V467.31H602.82V429.13L583.99 429.2ZM274.9 371.5V399.11C299.65 402.11 302.13 405.67 297.23 371.5H274.9ZM187.59 370.66V408.66H206.38V370.66H187.59ZM107.43 408.78V370.78H88.5402V408.78H107.43ZM274.91 270.34L297.44 270.49L297.29 243.37H274.76L274.91 270.34ZM298.23 356.81V328.49H274.93V356.77L298.23 356.81ZM297.44 311.34V286.84H274.91V311.34H297.44ZM394.17 720.05V747.78H417.23V720.05H394.17ZM377.17 748.3V720.3H355.54V748.3H377.17ZM416.68 705.15V677.87H394.11V705.15H416.68ZM377.68 678.08H355.23V704.86H377.63L377.68 678.08ZM394.03 634.73V661.66H416.65C421.29 633.26 418.58 630.08 393.98 634.73H394.03ZM377.34 661.99V633.99H354.34V661.99H377.34ZM377.23 356.58V328.25H354.23V356.58H377.23ZM418.18 328.64H394.18V356.37H418.18V328.64ZM355.07 284.95C354.94 314.84 351.5 313.84 377.07 312.4V284.95H355.07ZM393.97 590.89V618.6H417.41V590.89H393.97ZM298.02 748.31V720.1H274.9V748.31H298.02ZM298.42 705.2V677.49H274.99V705.2H298.42ZM394.29 309.91H416.71L416.3 285.3H394.18L394.29 309.91ZM298.03 662V634.16H274.85V662H298.03ZM377.45 243.37H354.82L354.94 270.49H377.45V243.37ZM377.45 399.84V371.7H354.37V399.84H377.45ZM393.82 401.4C402.28 400.14 413.91 401.4 416.3 397.35C419.88 391.21 419.67 379.61 415.89 373.57C413.41 369.57 401.81 371.29 393.82 370.4V401.4ZM377.54 618.95V591.17H354.17V618.95H377.54ZM394.29 242.95V270.49H416.37V242.95H394.29ZM274.75 618.32H298.23V590.95H274.75V618.32ZM353.84 487.26H377.56V460.19H353.84V487.26ZM298.47 444.36V416.99H274.91V444.36H298.47ZM354.35 416.7V443.96H377.45V416.7H354.35ZM417.23 573.9V546.08H394.13V573.9H417.23ZM394.23 502.78V530.16H417.23V502.78H394.23ZM377.39 573.49V546.19H353.95V573.49H377.39ZM377.54 503.16H354.05V530.49H377.54V503.16ZM298.61 546.16H274.72V573.11H298.61V546.16ZM298.1 530.49V503.23H274.85V530.49H298.1ZM394.1 416.54V444.44H417.23V416.49L394.1 416.54ZM298.57 459.95H274.79V486.95H298.61L298.57 459.95ZM417.57 459.83H394.11V487.07H417.58L417.57 459.83ZM315.07 372.07V399.73H336.81C341.32 365.27 338.5 369.62 315.08 372.06L315.07 372.07ZM336.63 270.49V243.37H314.98C314.98 253.961 314.98 270.49 314.98 270.49H336.63ZM337.45 356.64V328.38H314.74V356.61L337.45 356.64ZM314.64 704.86H337.79V677.22H314.64V704.86ZM314.96 285.3V313.03H336.63L336.64 285.3H314.96ZM314.96 719.98V748.21H337.63V719.98H314.96ZM314.74 590.49V618.67H337.4V590.49H314.74ZM314.44 661.62H337.84V633.8H314.44V661.62ZM314.83 459.62V487.13H337.63V459.64L314.83 459.62ZM314.99 416.56V444.23H337.53V416.58L314.99 416.56ZM337.49 530.56V503.3H314.91V530.49L337.49 530.56ZM337.64 573.74V546.34H314.76V573.74H337.64Z" fill="#666666"/>
<path d="M623.465 355.867C623.465 355.867 621.815 351.587 618.385 352.197C613.465 353.077 612.385 367.297 622.135 367.297" fill="#F3B2A7"/>
<g style="mix-blend-mode:multiply" opacity="0.24">
<g style="mix-blend-mode:multiply" opacity="0.24">
<g style="mix-blend-mode:multiply" opacity="0.24">
<path d="M705.425 269.717C705.425 269.717 712.875 275.807 713.895 279.557L713.735 273.277C713.735 273.277 707.825 270.867 705.425 269.717Z" fill="#F3B2A7"/>
</g>
</g>
</g>
<g style="mix-blend-mode:multiply" opacity="0.55">
<g style="mix-blend-mode:multiply" opacity="0.55">
<g style="mix-blend-mode:multiply" opacity="0.55">
<path d="M593.895 558.017C593.895 558.017 597.745 555.377 609.075 554.557L607.625 559.057C605.09 567.026 603.828 575.345 603.885 583.707C603.885 587.437 603.655 591.167 602.795 593.267C600.655 598.507 596.795 611.057 596.795 611.057L583.305 598.057L584.495 568.527L593.895 558.017Z" fill="#024386"/>
</g>
</g>
</g>
<path d="M579.565 571.637L578.305 591.837C578.185 593.821 578.677 595.793 579.715 597.487L585.615 607.107C586.321 608.262 587.295 609.229 588.455 609.927C590.544 611.244 592.731 612.401 594.995 613.387C596.275 613.847 596.655 612.497 596.715 611.057C596.743 610.241 596.588 609.428 596.259 608.68C595.93 607.932 595.436 607.268 594.815 606.737L591.905 604.197C591.418 603.775 591.087 603.201 590.965 602.567L588.805 591.707C588.751 591.435 588.779 591.152 588.886 590.896C588.992 590.64 589.173 590.421 589.405 590.267L590.765 589.367C590.965 589.237 591.195 589.159 591.433 589.141C591.671 589.124 591.91 589.167 592.126 589.267C592.343 589.367 592.531 589.52 592.673 589.713C592.814 589.905 592.904 590.13 592.935 590.367L594.305 599.127C594.351 599.427 594.482 599.706 594.683 599.934C594.883 600.161 595.144 600.326 595.435 600.41C595.726 600.494 596.035 600.494 596.325 600.408C596.616 600.322 596.876 600.156 597.075 599.927L598.175 598.677C598.713 598.07 599.082 597.332 599.245 596.537L601.155 587.067C601.503 585.365 601.241 583.595 600.415 582.067L594.325 570.827L579.565 571.637Z" fill="#F3B2A7"/>
<path d="M440.135 489.337C432.635 485.887 423.565 482.697 421.225 473.337C418.885 463.977 425.365 474.457 427.775 477.337C430.185 480.217 442.315 486.507 440.135 489.337Z" fill="#42210B"/>
<g style="mix-blend-mode:multiply" opacity="0.42">
<g style="mix-blend-mode:multiply" opacity="0.42">
<g style="mix-blend-mode:multiply" opacity="0.42">
<path d="M92.8149 557.867L97.1149 616.137L84.5349 701.437L74.7349 659.427L92.8149 557.867Z" fill="#042644"/>
</g>
</g>
</g>
<g style="mix-blend-mode:multiply" opacity="0.24">
<g style="mix-blend-mode:multiply" opacity="0.24">
<g style="mix-blend-mode:multiply" opacity="0.24">
<path d="M81.8347 292.557C81.8347 292.557 72.3347 291.797 69.0447 293.787L73.4647 289.397C73.4647 289.397 79.3147 291.767 81.8347 292.557Z" fill="#B46B33"/>
</g>
</g>
</g>
<path d="M209.505 551.197L223.505 567.747C224.881 569.37 225.722 571.378 225.915 573.497L227.015 585.557C227.146 587.002 226.927 588.456 226.375 589.797C225.422 592.269 224.286 594.666 222.975 596.967C222.165 598.177 220.975 597.257 219.975 596.067C219.427 595.384 219.039 594.586 218.842 593.733C218.645 592.879 218.642 591.992 218.835 591.137L219.705 587.137C219.856 586.464 219.775 585.759 219.475 585.137L214.375 574.417C214.244 574.148 214.037 573.923 213.779 573.77C213.521 573.617 213.224 573.543 212.925 573.557L211.185 573.657C210.931 573.669 210.685 573.745 210.469 573.878C210.253 574.011 210.075 574.197 209.95 574.417C209.825 574.638 209.758 574.887 209.755 575.14C209.753 575.394 209.814 575.644 209.935 575.867L214.365 584.267C214.517 584.555 214.583 584.88 214.557 585.204C214.53 585.528 214.412 585.838 214.216 586.097C214.019 586.357 213.753 586.555 213.448 586.668C213.144 586.781 212.813 586.805 212.495 586.737L210.755 586.367C209.902 586.191 209.112 585.791 208.465 585.207L200.745 578.297C199.363 577.053 198.458 575.367 198.185 573.527L196.185 559.977L209.505 551.197Z" fill="#B46B33"/>
<path d="M113.715 869.487C113.806 870.747 114.044 871.993 114.425 873.197H144.945C145.475 871.977 144.695 870.337 144.855 869.057C145.265 865.817 144.275 862.557 143.545 859.627C140.135 846.067 138.225 835.987 138.225 835.987L120.225 836.447C120.225 836.447 118.905 852.027 114.895 859.447C112.795 863.347 113.425 866.287 113.715 869.487Z" fill="black"/>
<path d="M144.985 869.517H113.575C113.66 870.778 113.898 872.024 114.285 873.227H144.945C145.343 872.025 145.357 870.728 144.985 869.517Z" fill="#333333"/>
<path d="M115.635 857.797C115.635 857.797 133.305 853.797 141.365 858.977V856.067C141.365 856.067 126.505 848.867 115.635 857.797Z" fill="#333333"/>
<path d="M117.675 853.307C117.675 853.307 128.955 848.157 139.895 853.307L138.645 850.367C138.645 850.367 125.575 845.427 117.675 853.307Z" fill="#333333"/>
<path d="M26.8947 869.297C26.8882 870.537 26.9616 871.777 27.1147 873.007H90.1147C90.1147 871.767 90.1147 870.517 90.0347 869.297C89.4632 858.823 87.4716 848.475 84.1147 838.537L68.3847 831.787C67.0247 839.897 63.5347 845.077 59.1647 848.457C58.038 849.336 56.8329 850.109 55.5647 850.767C54.9847 851.077 54.4047 851.367 53.8047 851.627C52.5079 852.217 51.1712 852.715 49.8047 853.117C44.2447 854.807 38.6247 855.117 34.6847 855.767C27.8947 856.807 26.8947 864.567 26.8947 869.297Z" fill="black"/>
<path d="M26.8947 869.297C26.8882 870.537 26.9616 871.777 27.1147 873.007H90.1147C90.1147 871.767 90.1147 870.517 90.0347 869.297H26.8947Z" fill="#333333"/>
<path d="M55.5347 850.767L64.2646 853.567L66.1147 850.367L59.1147 848.457C57.9943 849.335 56.796 850.108 55.5347 850.767Z" fill="#333333"/>
<path d="M49.7549 853.117L55.6449 857.027L59.2649 855.607L53.7749 851.607C52.4721 852.205 51.1287 852.709 49.7549 853.117Z" fill="#333333"/>
<path d="M99.5648 546.617V603.627L84.4848 701.757L88.3048 840.667L55.1848 841.637L38.8748 698.497L45.1048 555.167L49.8748 524.347L77.4648 522.137L94.2048 531.767L99.5648 546.617Z" fill="#042644"/>
<path d="M135.475 506.647C135.475 506.647 146.715 530.237 148.295 563.647C149.875 597.057 148.405 842.167 148.405 842.167L114.675 840.997L90.1747 521.867L90.0847 522.127L135.475 506.647Z" fill="#042644"/>
<path d="M146.795 399.567L154.265 396.487C154.265 396.487 150.745 378.237 123.715 372.397C92.2147 365.597 84.4947 370.557 74.3147 383.147" fill="#1A1A1A"/>
<path d="M124.735 368.567L126.905 366.967L126.085 379.737C126.003 381.02 126.307 382.298 126.957 383.406C127.608 384.515 128.575 385.403 129.735 385.957L138.735 390.277C138.735 390.277 123.175 401.727 109.035 399.207C94.8947 396.687 82.2646 387.417 82.2646 387.417L89.6447 384.997C90.8113 384.612 91.8439 383.903 92.6215 382.951C93.399 382 93.8893 380.847 94.0347 379.627L96.0347 362.337L124.735 368.567Z" fill="#B46B33"/>
<g style="mix-blend-mode:multiply" opacity="0.74">
<path d="M124.735 368.567L126.375 375.217C126.375 375.217 118.195 385.297 106.805 385.447C95.4148 385.597 92.7048 382.887 92.7048 382.887C92.7048 382.887 94.3648 380.077 95.4548 365.597L124.735 368.567Z" fill="#F3B2A7"/>
</g>
<path d="M110.115 312.657C110.115 312.657 93.7947 303.147 89.6647 310.657C85.5347 318.167 89.1247 318.517 85.2247 323.037C82.1247 326.627 81.1547 331.357 83.8247 337.037C84.8204 339.184 85.2668 341.544 85.1237 343.906C84.9805 346.268 84.2523 348.557 83.0047 350.567C82.9777 350.633 82.9406 350.694 82.8947 350.747C76.0647 358.527 84.8947 369.187 89.7747 368.747C98.9447 367.917 101.695 371.747 101.165 374.167C100.635 376.587 120.995 372.577 120.995 372.577C120.995 372.577 130.255 375.167 134.525 374.827C138.795 374.487 144.665 373.037 144.775 367.197C144.885 361.357 138.335 358.487 143.125 354.757C147.915 351.027 154.985 341.317 149.235 333.377C142.565 324.167 131.075 320.317 131.075 320.317L110.115 312.657Z" fill="#221E1F"/>
<path d="M138.745 340.707C138.495 325.887 131.295 312.707 113.835 312.707C86.9847 312.807 84.9247 357.527 98.1447 372.347C106.145 381.347 120.685 381.347 127.615 373.537C134.545 365.727 138.955 352.647 138.745 340.707Z" fill="#B46B33"/>
<path d="M97.3247 312.417C97.3247 312.417 101.705 330.017 108.225 329.687C114.745 329.357 117.695 327.637 119.665 329.917C121.635 332.197 120.665 337.917 125.795 338.487C130.925 339.057 133.895 336.157 135.895 339.867C137.895 343.577 145.635 348.377 147.515 343.867C149.395 339.357 147.715 348.377 147.715 348.377C147.715 348.377 155.465 339.147 148.875 331.567C143.895 325.867 146.895 324.867 146.585 319.417C146.275 313.967 141.995 309.907 133.835 309.747C125.675 309.587 124.055 300.357 116.375 302.677C108.695 304.997 110.175 307.437 104.805 306.437C99.4347 305.437 93.0747 305.377 89.6647 310.697C86.2547 316.017 97.3247 312.417 97.3247 312.417Z" fill="#221E1F"/>
<path d="M53.8948 312.527C53.8948 312.527 60.9948 306.607 67.6148 303.997C74.2348 301.387 76.2848 301.997 81.9448 299.797C87.6048 297.597 96.9448 296.187 96.8448 295.227C96.7448 294.267 95.8448 290.897 91.4948 291.637C87.1448 292.377 82.5648 292.777 82.5648 292.777L97.4048 279.307C97.4048 279.307 103.305 274.057 101.025 271.937C98.7448 269.817 88.0248 281.777 87.0248 280.997C85.5648 279.887 91.9048 272.457 91.9048 272.457C91.9048 272.457 99.0348 264.737 96.7948 262.577C94.5548 260.417 83.7948 274.847 83.7948 274.847C83.7948 274.847 81.5548 276.847 81.4448 274.847C81.3348 272.847 90.7848 262.047 89.1548 259.707C87.5248 257.367 80.5548 267.457 80.5548 267.457C80.5548 267.457 77.3148 273.777 75.7948 271.807C74.2748 269.837 80.2648 260.027 78.3448 258.977C76.4248 257.927 72.2448 265.867 71.0648 269.027C69.6073 272.716 67.3969 276.06 64.5748 278.847C61.8348 281.397 58.2748 284.847 58.4448 289.107L47.8948 296.107L53.8948 312.527Z" fill="#B46B33"/>
<path d="M133.895 343.197C133.895 343.197 136.265 335.557 141.195 340.257C146.125 344.957 141.855 360.017 132.965 354.307" fill="#B46B33"/>
<path d="M89.0447 343.467C89.0447 343.467 88.7346 336.177 92.3746 336.347C96.9846 336.547 97.7147 333.077 97.4547 329.147C97.0147 322.587 103.695 331.787 110.605 329.497C114.885 328.087 113.345 319.987 113.345 319.987L109.085 314.047L94.7147 313.127L86.9946 324.417L89.0447 343.467Z" fill="#221E1F"/>
<path d="M93.3148 339.867C93.3148 339.867 92.4048 333.097 87.5848 336.357C82.7648 339.617 84.2448 352.907 92.5348 349.357" fill="#B46B33"/>
<path d="M136.185 389.577C136.185 389.577 125.965 397.627 107.565 393.577C89.1649 389.527 88.3149 385.437 88.3149 385.437L72.5449 390.077L62.6649 408.397C62.6649 408.397 55.2649 424.107 55.2649 425.457C55.2649 426.807 59.2649 447.457 59.2649 447.457L52.7549 519.737C52.7549 519.737 64.3149 535.177 94.4449 539.217C124.575 543.257 143.345 531.857 143.345 531.857V401.677L145.235 390.447L136.185 389.577Z" fill="#FFF9E2"/>
<path d="M146.265 430.277C146.265 430.277 119.005 440.207 63.605 427.137V456.207C63.605 456.207 100.475 471.597 146.265 460.617V430.277Z" fill="#EAC428"/>
<path d="M143.575 478.267C143.575 478.267 116.305 488.207 60.9148 475.127V504.207C60.9148 504.207 97.7848 519.597 143.575 508.607V478.267Z" fill="#EAC428"/>
<path d="M140.895 527.617C140.895 527.617 113.625 537.547 58.2349 524.477V553.547C58.2349 553.547 95.0949 568.937 140.895 557.947V527.617Z" fill="#EAC428"/>
<path d="M90.4449 383.137C90.4449 383.137 92.4449 385.847 90.6549 401.217C88.8649 416.587 92.8149 430.077 91.1949 445.827C89.5749 461.577 95.9949 477.317 88.4749 497.187C80.9549 517.057 80.7249 567.667 80.7249 567.667L77.5849 574.417C77.5849 574.417 45.7149 574.037 33.3449 563.917C33.3449 563.917 31.8449 546.297 35.2149 532.427C38.5849 518.557 48.3349 494.567 49.0849 476.757C49.8349 458.947 48.1549 435.007 48.1549 435.007L61.0849 396.007L54.3349 375.247C54.3349 375.247 68.2149 387.637 90.4449 383.137Z" fill="#1A1A1A"/>
<path d="M79.3848 392.217L74.6048 384.797C64.8348 378.497 51.3648 369.897 45.6948 359.797L40.4648 350.467L70.4648 306.027C70.4648 306.027 56.8948 296.617 52.7948 288.367C52.7948 288.367 20.9748 309.167 8.22476 328.757L0.354763 343.177C0.354763 343.177 -1.52523 399.337 58.0848 442.827L79.3848 392.217Z" fill="#FA9900"/>
<path d="M138.775 390.277C138.775 390.277 132.695 396.337 129.315 410.207C125.935 424.077 121.065 441.327 120.695 460.447C120.325 479.567 120.695 511.057 120.695 520.807C120.695 530.557 116.045 578.917 116.045 578.917C116.045 578.917 148.815 580.417 153.685 572.917C153.685 572.917 149.565 536.177 149.185 526.427C148.805 516.677 148.815 509.557 148.435 493.427C148.055 477.297 154.055 458.937 153.685 447.317C153.315 435.697 162.305 406.457 162.305 406.457C162.305 406.457 152.725 389.097 138.775 390.277Z" fill="#1A1A1A"/>
<path d="M145.275 406.467L154.275 396.467C154.275 396.467 166.445 401.197 169.445 421.467C172.445 441.737 181.445 486.327 181.445 486.327C181.445 486.327 189.315 496.077 192.695 502.817C196.075 509.557 214.065 552.687 214.065 552.687C214.065 552.687 200.195 563.177 193.065 563.557C193.065 563.557 153.755 518.557 145.295 502.067C136.835 485.577 145.275 406.467 145.275 406.467Z" fill="#FA9900"/>
<g style="mix-blend-mode:multiply">
<path d="M80.7247 385.447L74.3147 383.147C74.3147 383.147 76.1747 386.377 78.6347 390.217C82.5898 396.356 85.9198 402.875 88.5747 409.677L80.7247 385.447Z" fill="#FA9900"/>
</g>
<g style="mix-blend-mode:multiply">
<path d="M147.655 395.467L154.265 397.077C154.265 397.077 147.555 401.017 143.925 404.587C141.435 407.047 136.125 411.207 130.125 419.407L147.655 395.467Z" fill="#FA9900"/>
</g>
<path d="M127.725 384.457C132.275 401.107 128.295 413.717 126.375 422.147C126.375 422.147 138.775 401.147 154.265 396.487C154.265 396.487 123.805 370.137 127.725 384.457Z" fill="#1A1A1A"/>
<path d="M93.2947 380.657C89.7547 392.567 90.2947 415.447 90.2947 415.447C90.2947 415.447 85.1247 396.817 82.0647 392.217C76.4047 383.717 74.3047 383.147 74.3047 383.147C74.3047 383.147 97.1447 367.747 93.2947 380.657Z" fill="#1A1A1A"/>
<path d="M126.375 377.317C126.375 377.317 133.905 381.407 129.825 399.567C129.825 399.567 130.035 387.387 127.725 384.457C127.725 384.457 125.145 381.067 126.375 377.317Z" fill="#1A1A1A"/>
<path d="M94.5947 375.207C94.5947 375.207 94.2946 381.387 92.7046 382.887L91.4147 390.447C91.4147 390.447 89.8947 380.557 94.5947 375.207Z" fill="#1A1A1A"/>
<g style="mix-blend-mode:multiply">
<path d="M148.645 454.087V507.747L164.775 529.607L154.265 497.857L148.645 454.087Z" fill="#FA9900"/>
</g>
<g style="mix-blend-mode:multiply">
<path d="M23.7148 408.627C23.7148 408.627 47.9748 420.917 52.5648 428.837C58.7548 439.517 50.2248 471.587 50.2248 471.587L48.4548 435.257C48.4548 435.257 31.7748 421.177 23.7148 408.627Z" fill="#FA9900"/>
</g>
<g style="mix-blend-mode:multiply">
<path d="M32.4749 365.597L40.3349 350.427L43.1049 355.377L32.4749 365.597Z" fill="#FA9900"/>
</g>
<g style="mix-blend-mode:multiply">
<path d="M181.425 486.317L173.295 480.017L180.795 483.167L181.425 486.317Z" fill="#FA9900"/>
</g>
<path d="M53.5548 869.517C53.5483 870.757 53.6218 871.997 53.7748 873.227H116.775C116.775 871.977 116.775 870.737 116.685 869.517C116.119 859.043 114.131 848.695 110.775 838.757L95.0349 831.997C93.6849 840.117 90.1948 845.287 85.8148 848.667C84.6937 849.554 83.4879 850.327 82.2148 850.977C81.6348 851.287 81.0648 851.577 80.4648 851.847C79.1678 852.436 77.8313 852.934 76.4648 853.337C70.9148 855.027 65.2848 855.337 61.3548 855.977C54.5748 857.027 53.5548 864.777 53.5548 869.517Z" fill="black"/>
<path d="M53.5548 869.517C53.5483 870.757 53.6218 871.997 53.7748 873.227H116.775C116.775 871.977 116.775 870.737 116.685 869.517H53.5548Z" fill="#333333"/>
<path d="M82.1748 850.977L90.9148 853.777L92.7548 850.577L85.7548 848.667C84.64 849.553 83.4409 850.326 82.1748 850.977Z" fill="#333333"/>
<path d="M76.3948 853.337L82.2848 857.247L85.8948 855.867L80.4048 851.867C79.104 852.45 77.7641 852.941 76.3948 853.337Z" fill="#333333"/>
<path d="M294.105 869.517C294.196 870.778 294.434 872.023 294.815 873.227H336.755C337.271 872.033 337.666 870.79 337.935 869.517C342.065 849.447 314.195 824.867 314.195 824.867L305.355 836.667C305.355 836.667 306.355 855.557 298.885 859.497C294.395 861.867 293.815 866.317 294.105 869.517Z" fill="black"/>
<path d="M337.895 869.517H294.105C294.195 870.777 294.434 872.023 294.815 873.227H336.755C337.257 872.032 337.639 870.789 337.895 869.517Z" fill="#333333"/>
<path d="M300.805 858.007C300.805 858.007 318.475 854.007 326.525 859.197V856.277C326.525 856.277 311.665 849.057 300.805 858.007Z" fill="#333333"/>
<path d="M304.305 853.527C304.305 853.527 315.585 848.367 326.525 853.527L325.275 850.587C325.275 850.587 312.205 845.647 304.305 853.527Z" fill="#333333"/>
<path d="M72.5547 691.097C72.5547 707.967 87.5547 845.487 87.5547 845.487C96.5785 846.386 105.687 845.876 114.555 843.977C118.665 774.287 119.065 714.347 119.065 714.347L190.845 660.537L191.025 660.407C191.025 660.407 191.295 661.627 191.785 663.807C195.335 679.587 210.385 745.677 216.645 760.807C223.785 778.047 301.785 850.577 301.785 850.577C316.275 848.577 328.575 838.077 328.575 838.077C300.575 791.627 262.385 745.077 262.385 745.077C259.385 728.347 257.275 691.077 256.005 663.297L255.945 662.007C255.095 643.157 254.675 628.937 254.675 628.937L267.835 601.937L184.245 571.217L165.515 595.217C165.515 595.217 161.225 599.217 154.515 605.557L153.585 606.417C128.385 630.067 72.5547 683.537 72.5547 691.097Z" fill="#1A1A1A"/>
<path d="M255.945 663.277L255.885 661.987C238.285 652.427 241.235 637.177 241.285 636.987L240.195 636.767C240.145 636.957 236.995 653.337 255.945 663.277Z" fill="black"/>
<path d="M192.075 649.757C191.443 653.324 191.012 656.923 190.785 660.537L190.965 660.407C190.965 660.407 191.235 661.627 191.725 663.807C192.495 637.667 203.275 622.227 203.415 622.047L202.495 621.407C202.385 621.537 195.585 631.407 192.295 648.497C179.585 637.207 192.035 614.067 192.165 613.847L191.165 613.317C191.055 613.557 177.895 638.047 192.075 649.757Z" fill="black"/>
<path d="M153.475 606.397C153.475 606.397 153.535 606.397 153.565 606.447C154.119 606.649 154.705 606.748 155.295 606.737C161.455 606.737 171.785 598.107 172.295 597.737L171.565 596.897C168.205 599.737 158.845 606.557 154.425 605.587L153.475 606.397Z" fill="black"/>
<path d="M261.895 458.077C261.895 458.077 236.475 453.977 223.735 462.077C210.995 470.177 194.265 491.387 194.265 491.387C194.265 491.387 214.125 494.017 216.375 507.497C216.395 507.527 230.825 473.177 261.895 458.077Z" fill="#333333"/>
<path d="M300.165 471.337C310.925 477.147 328.905 498.977 329.715 512.407C330.505 525.497 320.805 537.537 314.265 547.777C293.865 579.717 272.385 607.947 263.265 645.417C263.205 645.657 216.595 664.147 161.885 598.417C161.885 598.417 192.795 556.827 203.475 521.417C207.825 506.997 212.245 491.687 220.595 478.987C229.795 464.987 245.545 456.767 261.925 458.097C275.785 459.197 289.575 465.607 300.165 471.337Z" fill="#FFC300"/>
<path d="M304.685 457.937C304.685 457.937 297.805 469.687 300.985 476.147C300.985 476.147 277.375 484.297 277.375 471.147C277.375 471.147 281.825 461.247 280.145 454.847L304.685 457.937Z" fill="#B46B33"/>
<g filter="url(#filter0_i_589_21)">
<path d="M252.27 538.84C252.27 538.84 265.4 542.57 268.72 547.22C272.04 551.87 274.94 562.29 274.94 562.29H252.27L248 554.43L239.5 539.84L252.27 538.84Z" fill="#B46B33"/>
</g>
<path d="M273.895 444.867C273.895 444.867 264.675 440.997 270.645 413.277C274.645 394.897 280.285 392.157 283.965 391.997C283.965 391.997 288.465 385.217 304.065 388.467C314.755 390.687 323.285 397.177 327.065 409.197C330.985 421.737 323.145 448.607 312.825 451.287L273.895 444.867Z" fill="black"/>
<path d="M271.755 426.087C271.755 426.087 265.945 418.007 263.755 425.977C261.205 435.207 269.125 440.397 271.285 437.687C273.445 434.977 271.755 426.087 271.755 426.087Z" fill="#B46B33"/>
<path d="M320.365 434.607C320.365 434.607 328.465 428.817 327.985 437.077C327.425 446.637 318.265 449.017 317.085 445.747C315.905 442.477 320.365 434.607 320.365 434.607Z" fill="#B46B33"/>
<g filter="url(#filter1_d_589_21)">
<path d="M289.755 464.027C274.325 461.477 267.275 449.967 272.265 419.737C274.835 404.147 284.345 395.897 301.625 398.737C318.905 401.577 324.625 412.347 322.035 427.937C316.675 460.427 305.695 466.657 289.755 464.027Z" fill="#B46B33"/>
</g>
<path d="M280.975 405.707C280.975 405.707 298.395 418.317 320.255 419.277L319.635 438.737C319.635 438.737 340.005 401.197 299.705 394.547C259.405 387.897 271.145 429.867 271.145 429.867C271.145 429.867 272.395 411.747 280.975 405.707Z" fill="black"/>
<path d="M271.525 405.757C300.815 393.047 328.465 419.407 328.465 419.407C328.465 419.407 331.685 398.047 326.045 393.047C324.584 391.752 323.015 390.584 321.355 389.557C308.425 381.397 291.215 381.557 283.355 384.357C282.036 384.761 280.818 385.443 279.785 386.357C275.085 391.207 271.525 405.757 271.525 405.757Z" fill="#333333"/>
<path d="M275.085 401.007C275.085 401.007 299.685 396.137 322.625 411.317C322.625 411.317 324.085 397.537 321.355 389.557C308.425 381.397 291.215 381.557 283.355 384.357C278.725 389.607 275.085 401.007 275.085 401.007Z" fill="#FFC300"/>
<path d="M326.045 416.867C326.045 416.867 322.145 400.297 316.885 395.637C308.145 387.877 283.585 385.207 270.685 389.877C257.785 394.547 270.685 408.647 270.685 408.647C270.685 408.647 291.255 393.937 326.045 416.867Z" fill="#333333"/>
<g filter="url(#filter2_d_589_21)">
<path d="M288.055 526.967C288.055 526.967 277.995 542.537 260.895 551.697C260.895 551.697 239.475 533.107 211.705 534.777C211.705 534.777 234.705 576.307 254.485 580.907C264.875 583.327 302.435 558.457 302.435 558.457C302.435 558.457 294.895 532.017 288.055 526.967Z" fill="#B46B33"/>
</g>
<path d="M325.085 498.727C315.885 483.727 294.655 505.897 287.425 521.727C280.195 537.557 274.895 540.867 274.895 540.867C274.895 540.867 296.105 549.727 295.955 565.627C295.995 565.637 345.155 531.417 325.085 498.727Z" fill="#333333"/>
<g filter="url(#filter3_d_589_21)">
<path d="M262 542.84C262 542.84 248.951 530.613 206.046 514.664L211.591 498.03C206.673 491.84 197.623 491.84 197.623 491.84C197.623 491.84 175.635 521.481 179.443 530.333C181.766 535.849 227.66 541.654 262 542.84Z" fill="#B46B33"/>
</g>
<g filter="url(#filter4_d_589_21)">
<path d="M214.355 519.777C213.985 518.332 213.337 516.973 212.445 515.777C210.875 513.557 211.305 509.527 210.745 508.277C210.185 507.027 206.835 501.917 204.615 500.927C202.395 499.937 199.495 498.307 198.875 501.117C198.255 503.927 202.875 503.117 204.875 507.187C204.875 507.187 200.365 505.727 196.785 506.577C193.205 507.427 192.195 510.697 196.615 510.577C200.145 510.487 204.685 513.007 204.685 513.007C204.685 513.007 200.095 513.697 200.835 515.817C201.895 518.717 207.495 516.917 214.355 519.777Z" fill="#B46B33"/>
</g>
<path d="M176.895 268.127C179.315 268.127 186.345 270.967 186.345 270.967C191.505 274.137 194.345 275.867 197.805 276.157C201.265 276.447 202.625 282.327 202.625 282.327C202.625 282.327 216.085 285.267 216.845 276.777C216.845 276.777 209.315 266.127 208.845 264.697C207.775 261.837 209.715 257.537 206.695 252.697C203.675 247.857 202.215 240.367 202.215 240.367C202.215 240.367 199.215 239.427 198.895 242.367C198.575 245.307 200.785 249.417 200.235 250.687C200.129 250.942 199.995 251.183 199.835 251.407C199.835 251.407 199.835 251.407 199.835 251.467C199.584 251.868 199.25 252.209 198.854 252.468C198.459 252.727 198.012 252.898 197.545 252.967C197.48 252.989 197.41 252.989 197.345 252.967C193.975 252.887 188.065 248.217 185.635 245.907C182.265 242.667 177.365 238.477 176.265 241.317C175.165 244.157 178.835 243.977 184.985 252.507L184.365 253.387C184.775 254.037 178.295 250.797 173.115 246.737C169.555 243.957 168.805 247.267 169.425 248.737C170.045 250.207 174.025 252.467 176.585 254.507C178.285 255.837 180.065 257.217 181.135 258.027L180.805 259.417C171.995 257.487 170.625 254.177 168.745 256.017C166.865 257.857 172.405 261.577 175.205 262.227C177.045 262.858 178.803 263.704 180.445 264.747C173.445 264.597 171.705 262.347 170.535 264.137C169.365 265.927 174.445 268.087 176.895 268.127Z" fill="#FFCDC2"/>
<path d="M199.285 261.617C197.155 257.617 199.435 252.157 199.735 251.497C199.484 251.898 199.15 252.24 198.754 252.499C198.359 252.757 197.912 252.928 197.445 252.997C195.605 258.667 199.285 261.617 199.285 261.617Z" fill="#E0A4AB"/>
<path d="M454.625 676.167L428.765 516.047L376.985 521.867L325.205 516.077L299.345 676.167L286.895 831.467C286.895 831.467 290.895 844.337 316.675 835.467C316.675 835.467 335.835 691.467 338.805 688.257C341.775 685.047 372.195 590.997 372.195 590.997H381.715C381.715 590.997 412.145 685.077 415.115 688.257C418.085 691.437 437.235 835.467 437.235 835.467C463.075 844.357 467.015 831.467 467.015 831.467L454.625 676.167Z" fill="#C7B299"/>
<path d="M360.675 360.987C363.945 364.177 380.035 369.917 388.535 360.987L394.295 366.647C394.295 366.647 387.725 382.097 376.195 382.647C364.665 383.197 356.335 368.867 356.335 368.867L360.675 360.987Z" fill="#42210B"/>
<path d="M338.835 358.057C344.565 354.437 373.335 373.677 373.335 373.677C373.335 373.677 410.735 353.817 419.505 357.677C419.505 357.677 427.415 368.257 430.595 395.467C433.775 422.677 433.985 534.667 433.985 534.667C433.985 534.667 408.835 543.557 374.825 543.557C336.055 543.557 315.195 532.437 315.195 532.437C315.195 532.437 308.275 377.387 338.835 358.057Z" fill="#F2F2F2"/>
<path d="M362.195 355.147C362.195 355.147 366.335 368.147 362.195 373.197C362.195 373.197 366.495 382.197 374.195 382.627C383.135 383.087 386.195 373.197 386.195 373.197C386.195 373.197 381.465 360.617 386.195 356.197L362.195 355.147Z" fill="#FFCDC2"/>
<path d="M351.895 342.327C351.895 342.327 343.175 325.547 344.895 307.617C346.615 289.687 373.635 285.617 391.845 294.387C391.845 294.387 386.445 289.097 388.555 287.627C390.665 286.157 394.315 295.557 394.315 295.557C394.315 295.557 400.065 293.797 400.945 295.557C401.825 297.317 395.055 298.287 395.055 298.287C395.055 298.287 406.805 304.797 395.825 339.477L351.895 342.327Z" fill="#1A1A1A"/>
<path d="M351.125 331.697C351.125 331.697 344.625 325.207 343.825 332.797C342.895 341.577 350.875 345.117 352.435 342.327C353.995 339.537 351.125 331.697 351.125 331.697Z" fill="#FFCDC2"/>
<path d="M395.155 332.157C395.155 332.157 401.655 325.667 402.455 333.247C403.375 342.037 395.395 345.577 393.845 342.777C392.295 339.977 395.155 332.157 395.155 332.157Z" fill="#FFCDC2"/>
<g filter="url(#filter5_d_589_21)">
<path d="M372.625 363.517C358.205 363.517 350.065 354.097 350.065 325.847C350.065 311.267 357.485 302.327 373.635 302.327C389.785 302.327 396.635 311.267 396.635 325.847C396.595 356.207 387.525 363.517 372.625 363.517Z" fill="#FFCDC2"/>
</g>
<path d="M395.095 335.357C395.095 335.357 394.645 319.677 388.535 307.617C388.535 307.617 377.765 312.617 375.405 311.417C373.045 310.217 377.655 307.617 377.655 307.617C377.655 307.617 359.895 313.467 358.825 312.297C357.755 311.127 364.715 307.617 364.715 307.617L353.645 311.417C353.645 311.417 350.235 325.527 351.645 335.357C351.645 335.357 346.895 327.157 346.305 321.487C345.715 315.817 348.215 299.667 364.875 298.487C381.535 297.307 390.875 301.087 395.035 308.747C399.195 316.407 398.655 325.867 395.095 335.357Z" fill="#1A1A1A"/>
<path d="M391.095 365.117C391.095 365.117 417.205 446.117 419.685 512.117C419.685 512.117 429.105 514.717 439.685 500.267C450.265 485.817 443.985 371.397 423.685 352.347C423.695 352.307 414.475 350.207 391.095 365.117Z" fill="#603813"/>
<path d="M395.355 379.287C395.355 379.287 400.025 368.437 397.955 360.987C395.885 353.537 388.535 360.987 388.535 360.987C388.535 360.987 391.505 373.177 395.355 379.287Z" fill="#42210B"/>
<path d="M345.045 357.667C325.785 349.377 263.555 327.337 263.555 327.337C263.555 327.337 221.625 273.397 213.095 265.617C213.095 265.617 202.535 271.617 201.815 283.957C201.815 283.957 228.165 338.017 242.815 354.537C257.465 371.057 331.615 406.757 331.615 406.757L345.045 357.667Z" fill="#42210B"/>
<path d="M358.105 365.117C358.105 365.117 332.005 446.117 329.525 512.117C329.525 512.117 320.095 514.717 309.525 500.267C298.955 485.817 305.225 371.397 325.525 352.347C325.515 352.307 334.735 350.207 358.105 365.117Z" fill="#603813"/>
<path d="M353.895 379.287C353.895 379.287 349.225 368.437 351.295 360.987C353.365 353.537 360.715 360.987 360.715 360.987C360.715 360.987 357.705 373.177 353.895 379.287Z" fill="#42210B"/>
<path d="M490.075 873.227H438.245C434.625 852.627 440.405 831.997 440.405 831.997L464.095 827.937C466.255 840.937 468.855 846.087 472.455 848.737C475.075 850.647 478.205 851.267 482.125 852.627C483.936 853.177 485.599 854.133 486.985 855.422C488.372 856.711 489.445 858.3 490.125 860.067C492.475 866.157 490.075 873.227 490.075 873.227Z" fill="#42210B"/>
<path d="M490.145 860.067C477.365 861.667 449.295 864.407 451.005 857.007C452.425 850.827 464.275 849.157 472.455 848.737C475.075 850.647 478.205 851.267 482.125 852.627C483.94 853.174 485.606 854.129 486.996 855.418C488.386 856.708 489.463 858.298 490.145 860.067Z" fill="#603813"/>
<path d="M316.505 873.227H264.675C263.681 869.993 263.378 866.586 263.785 863.227C264.056 860.789 265.036 858.483 266.603 856.595C268.171 854.708 270.257 853.321 272.605 852.607C277.095 851.047 280.545 850.467 283.365 847.827C286.435 844.937 288.725 839.607 290.655 827.917L314.345 831.977C314.345 831.977 320.105 852.627 316.505 873.227Z" fill="#42210B"/>
<path d="M263.785 863.247C264.056 860.809 265.036 858.503 266.603 856.616C268.171 854.728 270.257 853.342 272.605 852.627C277.095 851.067 280.545 850.487 283.365 847.847C289.925 849.847 299.105 853.577 301.945 859.207C305.895 866.917 275.615 865.697 263.785 863.247Z" fill="#603813"/>
<path d="M431.115 397.027C450.375 405.327 455.825 416.607 455.825 416.607C455.825 416.607 419.465 472.457 427.995 480.237C427.995 480.237 438.995 487.697 441.755 476.167C441.755 476.167 503.945 419.077 489.295 402.567C474.645 386.057 439.955 352.207 420.895 352.207C413.005 352.207 431.115 397.027 431.115 397.027Z" fill="#42210B"/>
<path d="M310.615 489.337C318.105 485.887 327.185 482.697 329.515 473.337C331.845 463.977 325.375 474.457 322.975 477.337C320.575 480.217 308.425 486.507 310.615 489.337Z" fill="#42210B"/>
<path d="M491.895 855.587C490.485 854.717 487.705 852.587 486.895 850.997C484.605 844.407 486.125 843.197 484.625 835.217C483.125 827.237 482.165 821.487 468.625 820.617C455.475 819.767 453.865 834.397 458.085 846.237H457.895C457.445 855.687 458.275 864.417 462.615 872.937C473.685 871.937 483.785 873.937 494.875 872.937C496.665 866.867 498.025 859.367 491.895 855.587Z" fill="#CFD8DC"/>
<path d="M508.235 735.977C507.995 753.377 505.345 765.187 498.955 781.757C492.445 798.627 485.075 819.687 479.045 837.647C471.615 845.647 466.365 840.257 461.665 832.647C460.135 809.097 459.555 771.997 467.665 751.547C475.775 731.097 492.675 735.507 508.235 735.977Z" fill="#E2976D"/>
<path d="M673.455 705.337C669.755 747.977 653.795 795.337 647.925 836.067C641.575 840.137 634.135 839.847 627.425 835.947C628.715 806.237 629.595 745.947 636.625 720.277C643.655 694.607 657.365 702.927 673.455 705.337Z" fill="#FF8B66"/>
<path d="M660.275 827.097C649.775 835.627 625.155 823.907 614.425 818.657C613.645 816.207 628.775 717.777 627.815 715.097C626.855 712.417 629.395 718.097 627.135 712.717C624.875 707.337 630.385 713.387 623.955 700.467C617.525 687.547 574.825 619.327 552.745 626.537C552.115 625.457 552.435 625.977 552.425 625.977C551.874 626.038 551.339 626.197 550.845 626.447C531.015 636.287 522.255 705.367 518.565 725.307C518.215 727.197 514.875 738.377 513.745 741.307C513.625 741.627 513.335 742.557 513.245 742.797C512.755 744.197 503.895 826.037 503.375 827.397C483.135 835.877 458.595 835.337 449.155 811.997C449.585 811.077 458.295 729.867 458.745 728.867C458.845 728.647 459.055 728.137 459.245 727.697C461.515 722.507 461.735 715.167 462.035 709.887C462.375 704.087 465.035 700.427 465.395 695.157C465.395 694.677 465.395 694.307 465.395 693.957C466.205 680.867 466.895 667.867 468.675 654.867C468.725 654.517 468.785 653.997 468.825 653.717C469.445 649.157 470.135 644.717 470.825 640.177C470.825 639.857 470.945 639.177 470.975 639.007C472.815 625.777 475.115 612.567 477.905 599.667C478.035 599.077 478.115 598.667 478.145 598.577C479.145 594.207 479.655 587.227 482.535 583.577C482.595 565.107 480.535 546.517 478.655 528.167C509.325 531.447 540.005 534.707 570.575 538.857C581.425 550.757 592.185 562.377 602.865 574.617C603.085 574.867 603.585 575.397 603.985 575.857C610.985 583.857 618.095 592.037 625.075 600.127C625.365 600.457 625.635 600.787 625.895 601.127C628.665 604.487 631.165 608.027 633.715 611.537L634.645 612.827C642.645 623.947 649.995 635.497 656.955 647.177C657.185 647.577 657.555 648.267 657.665 648.437C662.235 655.737 669.665 672.907 671.475 678.957C676.175 694.957 674.215 706.317 675.695 720.077C675.695 720.077 675.635 719.957 675.635 719.977C675.635 720.337 675.635 720.977 675.635 721.257C675.425 723.987 660.565 824.457 660.275 827.097Z" fill="#131323"/>
<path d="M494.265 593.597C490.995 596.727 483.265 599.597 477.945 599.597C477.92 599.216 477.999 598.836 478.175 598.497C483.175 598.497 490.455 595.757 493.525 592.807C498.995 587.547 500.415 583.217 501.235 576.507C501.617 576.542 502.002 576.542 502.385 576.507C501.545 583.547 500.055 588.077 494.265 593.597Z" fill="#666666"/>
<path d="M603.895 575.867C603.565 575.777 603.115 575.747 602.805 575.637C594.287 572.523 586.68 567.333 580.675 560.537L581.545 559.937C587.325 566.461 594.604 571.482 602.755 574.567C603.155 575.027 603.535 575.447 603.895 575.867Z" fill="#666666"/>
<path d="M513.725 741.437C513.58 741.925 513.396 742.4 513.175 742.857C508.245 744.767 500.635 746.687 495.775 746.767C480.275 747.037 468.485 740.087 458.685 728.947C458.893 728.571 459.074 728.18 459.225 727.777C473.895 745.527 492.235 749.747 513.725 741.437Z" fill="#666666"/>
<path d="M552.705 606.597C553.498 613.031 553.394 619.543 552.395 625.947C551.87 626.091 551.355 626.272 550.855 626.487C555.325 608.307 547.525 583.487 537.255 568.077L538.255 567.557C545.885 579.017 550.185 592.017 552.545 605.487C554.845 604.367 557.405 602.487 558.195 600.087C561.545 589.647 555.595 578.577 550.555 569.677L551.555 569.217C556.785 578.327 562.865 589.727 559.325 600.457C558.405 603.257 555.435 605.427 552.705 606.597Z" fill="#666666"/>
<path d="M657.545 648.327C655.225 649.677 651.705 651.457 649.605 652.447C648.465 652.987 649.425 652.547 648.605 652.907C648.695 652.677 648.525 652.217 648.485 651.957C646.055 637.097 629.345 617.487 620.145 607.127C617.365 604.007 621.145 608.237 619.265 606.127C621.307 604.279 623.221 602.295 624.995 600.187C625.265 600.497 625.545 600.827 625.805 601.187L621.084 606.307C625 608.64 629.22 610.417 633.625 611.587C633.945 612.017 634.235 612.447 634.565 612.877C633.509 612.716 632.466 612.479 631.445 612.167C628.374 611.113 625.392 609.819 622.525 608.297C632.465 619.737 645.995 636.297 649.525 651.167C652.035 649.957 654.475 648.667 656.905 647.297C657.138 647.627 657.352 647.971 657.545 648.327Z" fill="#666666"/>
<path d="M485.185 695.347L484.585 695.457C480.929 696.121 477.221 696.456 473.505 696.457C470.762 696.414 468.04 695.973 465.425 695.147C465.425 694.727 465.425 694.327 465.425 693.927C471.695 695.627 477.705 695.367 484.075 694.367C484.104 678.529 484.935 662.702 486.565 646.947C484.445 650.267 482.435 652.807 478.745 654.587C476.831 655.401 474.749 655.744 472.675 655.587C471.318 655.483 469.977 655.232 468.675 654.837C468.701 654.443 468.758 654.052 468.845 653.667C471.795 654.607 475.705 654.757 478.305 653.507C482.695 651.397 484.465 648.407 486.615 644.507C481.045 644.277 475.865 642.207 470.765 640.167C470.765 639.777 470.865 639.377 470.925 638.987C476.005 640.987 481.765 643.687 487.325 643.287C487.655 643.287 487.785 643.147 488.075 643.107C486.226 660.46 485.261 677.896 485.185 695.347Z" fill="#666666"/>
<path d="M675.575 721.317C661.185 726.847 647.695 724.797 633.715 718.477C631.716 717.501 629.779 716.402 627.915 715.187C627.745 714.677 627.685 714.187 627.565 713.727C642.175 722.947 659.265 726.607 675.565 720.007C675.595 720.447 675.565 720.867 675.575 721.317Z" fill="#666666"/>
<path d="M578.435 289.867C574.515 288.357 571.955 280.257 564.965 284.417C559.575 287.627 560.805 274.967 553.845 289.697C546.885 304.427 557.215 346.147 543.585 362.267C536.675 370.437 505.165 391.407 492.015 398.427C513.955 402.867 531.415 424.277 541.745 443.767C542.435 422.117 572.465 393.487 574.295 375.657C577.745 342.047 586.635 324.337 578.435 289.867Z" fill="#252442"/>
<path d="M478.895 564.107C485.045 571.637 469.165 569.827 483.735 576.927C498.305 584.027 533.535 582.847 549.585 579.087C565.635 575.327 598.915 564.687 584.875 550.527C570.835 536.367 497.895 561.867 478.895 564.107Z" fill="#252442"/>
<path d="M471.035 405.197C455.532 400.988 439.244 400.569 423.545 403.977C418.445 426.297 431.135 455.527 439.765 476.657C448.395 497.787 461.765 556.587 481.035 567.297C498.095 576.787 581.575 564.357 584.925 551.877C593.355 520.457 548.855 483.747 543.035 449.877C537.215 416.007 509.345 385.407 471.035 405.197Z" fill="#8197C1"/>
<path d="M420.895 404.927C409.135 415.197 385.895 469.817 412.675 491.637C423.925 500.797 422.345 488.217 435.405 479.637C445.405 472.997 439.405 449.727 446.005 440.537C452.605 431.347 441.195 422.667 438.325 416.407C435.455 410.147 423.595 402.597 420.895 404.927Z" fill="#252442"/>
<path d="M509.275 433.787C502.895 433.157 495.575 429.917 490.785 426.417C488.135 424.487 486.375 421.547 486.195 419.797C485.605 413.747 488.195 411.117 492.655 408.437C492.985 409.167 493.275 409.837 493.555 410.487C490.015 412.677 487.845 414.677 488.315 419.607C488.435 420.927 489.935 423.137 492.025 424.737C497.215 428.687 505.765 431.877 512.315 431.637C515.315 431.527 516.685 430.717 517.795 429.277C519.145 427.517 518.095 426.817 518.075 425.227C518.675 425.037 519.335 424.807 520.015 424.547C520.425 426.817 521.175 428.037 519.765 430.547C518.695 432.457 515.665 433.787 512.905 433.857C511.695 433.911 510.482 433.888 509.275 433.787Z" fill="#CFD8DC"/>
<path d="M482.315 454.297C475.675 453.397 470.245 450.087 468.865 443.387C468.155 439.967 468.755 436.217 469.145 433.387C469.715 429.187 469.465 424.677 467.855 421.767C465.195 416.977 462.775 414.967 458.175 413.367C458.255 412.717 458.325 411.987 458.375 411.207C463.725 412.857 466.675 415.467 469.725 420.777C471.585 424.007 471.925 429.457 471.315 433.717C470.905 436.587 470.375 440.407 471.015 443.167C472.475 449.427 477.255 451.607 483.175 452.227C483.235 452.937 483.245 453.677 483.305 454.397C482.973 454.382 482.643 454.348 482.315 454.297Z" fill="#CFD8DC"/>
<path d="M489.635 415.867C495.965 408.607 505.795 406.587 501.495 393.117C497.195 379.647 444.925 379.697 434.395 391.197C423.865 402.697 452.665 414.867 461.895 416.967C467.045 411.327 483.225 411.077 489.635 415.867Z" fill="#252442"/>
<path d="M460.475 410.867C457.125 408.867 447.035 401.797 451.565 395.997C456.095 390.197 483.155 389.497 492.355 399.767C501.555 410.037 472.615 417.997 460.475 410.867Z" fill="#001B30"/>
<path d="M458.045 392.867C460.845 398.667 462.875 404.867 461.045 411.167C468.875 414.477 480.945 419.227 484.045 408.297C482.045 402.967 481.045 397.587 481.955 391.937C473.955 392.307 466.005 392.597 458.045 392.867Z" fill="#E2976D"/>
<path d="M450.815 382.037C444.745 371.307 441.235 357.427 442.305 345.587C442.845 339.667 444.425 337.257 447.995 333.487C445.765 329.387 447.245 324.817 449.135 320.807C455.035 327.217 465.005 326.807 473.135 327.297C480.975 327.747 491.135 330.447 492.135 340.127C504.795 345.287 494.135 380.007 484.625 385.127C473.335 384.107 462.095 383.167 450.815 382.037Z" fill="#300900"/>
<path d="M446.745 364.757C443.665 360.707 440.745 360.697 439.425 364.877C437.835 369.717 443.475 379.087 446.935 375.597C450.395 372.107 446.515 368.117 446.745 364.757Z" fill="#E2976D"/>
<path d="M492.135 369.317C495.875 365.757 498.485 366.487 499.335 370.787C500.335 375.787 493.735 384.087 490.765 380.037C487.795 375.987 491.975 372.797 492.135 369.317Z" fill="#E2976D"/>
<g filter="url(#filter6_d_589_21)">
<path d="M467.535 398.357C446.425 396.297 445.595 377.827 446.725 357.187C447.305 346.537 455.805 335.187 471.665 336.537C487.525 337.887 493.665 351.037 493.115 361.367C491.995 382.867 489.335 400.487 467.535 398.357Z" fill="#E2976D"/>
</g>
<path d="M452.155 338.507C463.735 343.747 476.875 345.507 489.445 345.977C493.865 353.677 492.315 364.977 491.975 373.107C500.085 352.587 493.275 335.717 469.295 333.577C445.315 331.437 438.185 347.777 446.555 368.167C445.725 358.717 445.495 346.117 452.155 338.507Z" fill="#300900"/>
<path d="M518.205 422.867C520.965 422.867 520.625 428.867 518.485 427.337C516.345 425.807 515.445 422.867 518.205 422.867Z" fill="#252442"/>
<path d="M485.405 454.247C484.635 456.857 479.095 453.977 481.205 452.517C483.315 451.057 486.175 451.637 485.405 454.247Z" fill="#252442"/>
<path d="M582.475 260.357C580.494 263.016 579 266.006 578.065 269.187C577.215 272.497 576.065 278.127 573.945 280.957C571.825 283.787 572.625 285.957 572.785 288.877C567.545 291.097 562.645 290.037 558.005 286.977C558.005 284.977 558.935 282.557 557.895 280.637C555.835 276.807 552.125 274.737 550.825 270.307C549.54 265.992 547.637 261.886 545.175 258.117C546.175 256.807 547.175 255.887 548.975 257.347C550.775 258.807 551.875 262.777 553.865 264.167C554.275 264.447 554.335 264.317 554.695 264.437C554.717 264.446 554.742 264.446 554.765 264.437C555.221 264.534 555.692 264.537 556.149 264.446C556.607 264.355 557.041 264.172 557.425 263.907L557.595 263.717C560.005 260.927 560.815 253.277 560.705 250.717C560.555 247.097 560.775 239.957 563.835 240.467C566.895 240.977 565.045 252.397 565.935 254.587C566.205 254.757 566.625 254.697 566.935 254.857C568.305 253.527 569.785 244.287 570.115 241.747C570.345 239.997 572.845 237.547 573.935 240.697C575.025 243.847 573.315 246.977 573.135 250.017C573.015 252.017 572.635 253.857 572.475 255.847C572.845 256.067 573.305 256.407 573.655 256.567C575.135 255.077 577.265 245.197 579.835 245.747C582.405 246.297 581.035 252.557 579.525 254.747C578.734 256.467 578.134 258.267 577.735 260.117C579.065 259.187 581.875 251.787 584.205 252.907C586.535 254.027 584.025 258.277 582.475 260.357Z" fill="#E2976D"/>
<path d="M562.255 271.487C560.765 268.264 558.073 265.751 554.755 264.487C555.212 264.585 555.685 264.586 556.143 264.491C556.6 264.397 557.034 264.208 557.415 263.937C560.125 265.727 562.405 267.987 562.255 271.487Z" fill="#AF7358"/>
<path d="M464.895 840.937C463.775 839.137 461.495 834.817 463.765 832.617C466.035 830.417 470.915 832.517 474.215 832.747C477.515 832.977 478.565 824.617 481.345 833.267C484.125 841.917 475.735 848.307 464.895 840.937Z" fill="#CFD8DC"/>
<path d="M482.395 839.197C476.145 841.987 470.035 843.257 463.455 841.047C464.205 842.757 464.945 844.447 465.715 846.167C470.585 846.167 477.435 846.667 480.885 842.737C481.755 841.747 481.675 840.257 482.395 839.197Z" fill="#ADBEC4"/>
<path d="M483.085 845.867C477.295 845.777 471.515 846.287 466.185 848.647C466.285 849.507 466.385 850.377 466.475 851.247C472.885 849.347 479.785 847.507 486.335 849.447C485.255 848.237 484.165 847.047 483.085 845.867Z" fill="#ADBEC4"/>
<path d="M466.505 856.657C468.095 852.987 471.225 850.957 475.205 850.337C479.329 849.721 483.541 850.466 487.205 852.457C479.625 850.627 472.945 852.517 466.505 856.657Z" fill="#ADBEC4"/>
<path d="M686.245 868.297C666.295 874.237 642.435 875.167 623.055 866.297C621.695 860.237 621.145 854.037 624.305 848.437C624.035 843.517 621.515 838.197 623.655 833.257C625.795 828.317 637.005 825.447 641.055 828.967C643.835 831.397 642.945 834.307 643.315 837.427C643.845 830.427 648.955 824.627 653.885 829.777C659.025 835.147 652.945 833.777 653.705 839.587C653.723 840.076 653.79 840.562 653.905 841.037C654.206 842.076 654.728 843.038 655.435 843.857C656.161 844.647 656.969 845.358 657.845 845.977C658.328 846.345 658.836 846.68 659.365 846.977C660.406 847.569 661.496 848.068 662.625 848.467C664.578 849.102 666.587 849.548 668.625 849.797C674.625 850.137 681.335 852.327 684.625 855.957C687.915 859.587 687.425 860.867 686.555 864.407C686.315 865.577 686.355 866.987 686.245 868.297Z" fill="#CFD8DC"/>
<path d="M686.395 868.267C666.255 874.267 642.235 875.207 623.285 866.267C636.175 870.167 658.045 870.597 668.555 868.547C679.065 866.497 679.445 866.177 686.395 868.267Z" fill="#ADBEC4"/>
<path d="M653.895 840.997C654.188 842.044 654.707 843.013 655.415 843.837C652.195 842.717 649.155 842.647 646.695 845.337C646.185 844.587 645.695 843.857 645.195 843.087C647.705 840.647 650.605 838.867 653.895 840.997Z" fill="#ADBEC4"/>
<path d="M652.234 850.407C651.534 849.887 650.814 849.407 650.104 848.867C651.234 846.317 652.625 844.467 655.435 843.867C656.166 844.649 656.973 845.356 657.844 845.977C655.284 846.627 653.274 847.867 652.234 850.407Z" fill="#ADBEC4"/>
<path d="M658.275 853.167L655.925 851.927C656.384 849.882 657.612 848.092 659.355 846.927C660.41 847.5 661.502 848.001 662.625 848.427C661.598 848.852 660.676 849.496 659.924 850.315C659.173 851.134 658.61 852.108 658.275 853.167Z" fill="#ADBEC4"/>
<path d="M491.335 507.937C492.235 521.777 494.775 537.747 482.795 548.687C470.815 559.627 481.135 541.687 483.405 535.857C485.675 530.027 485.405 506.967 491.335 507.937Z" fill="#252442"/>
<path d="M545.425 500.757C557.175 506.275 566.949 515.267 573.425 526.517C568.325 515.247 559.405 500.287 545.425 500.757Z" fill="#252442"/>
<path d="M401.805 470.467C403.885 457.847 431.805 470.027 439.645 483.227C447.835 496.987 487.175 508.607 488.125 529.407C487.255 534.047 487.675 537.737 480.825 538.347C470.205 539.347 443.105 530.857 424.195 514.437C408.995 501.237 400.065 481.027 401.805 470.467Z" fill="#252442"/>
<path d="M710.895 873.227H659.065C655.445 852.627 661.225 831.997 661.225 831.997L684.915 827.937C687.075 840.937 689.675 846.087 693.275 848.737C695.895 850.647 699.025 851.267 702.945 852.627C704.757 853.177 706.419 854.133 707.805 855.422C709.192 856.711 710.266 858.3 710.945 860.067C713.245 866.157 710.895 873.227 710.895 873.227Z" fill="#42210B"/>
<path d="M710.895 860.067C698.115 861.667 670.045 864.407 671.755 857.007C673.175 850.827 685.025 849.157 693.205 848.737C695.825 850.647 698.955 851.267 702.875 852.627C704.69 853.174 706.357 854.129 707.747 855.418C709.137 856.708 710.213 858.298 710.895 860.067Z" fill="#603813"/>
<path d="M627.155 873.227H575.335C574.337 869.994 574.033 866.586 574.445 863.227C574.713 860.788 575.692 858.481 577.26 856.593C578.828 854.705 580.916 853.319 583.265 852.607C587.755 851.047 591.195 850.467 594.025 847.827C597.085 844.937 599.375 839.607 601.315 827.917L625.005 831.977C625.005 831.977 630.755 852.627 627.155 873.227Z" fill="#42210B"/>
<path d="M574.445 863.247C574.713 860.808 575.692 858.501 577.26 856.613C578.828 854.725 580.916 853.339 583.265 852.627C587.755 851.067 591.195 850.487 594.025 847.847C600.575 849.847 609.755 853.577 612.605 859.207C616.555 866.917 586.265 865.697 574.445 863.247Z" fill="#603813"/>
<path d="M711.895 303.867C711.895 303.867 710.895 294.597 707.895 288.067C704.895 281.537 702.975 280.557 700.385 274.997C697.795 269.437 691.955 261.857 692.735 261.267C693.515 260.677 696.485 258.807 699.135 262.377C701.785 265.947 704.845 269.457 704.845 269.457L703.445 249.267C703.445 249.267 702.815 241.327 705.955 241.377C709.095 241.427 708.525 257.597 709.815 257.747C711.665 257.957 712.225 248.117 712.225 248.117C712.225 248.117 712.425 237.507 715.575 237.507C718.725 237.507 716.495 255.557 716.495 255.557C716.495 255.557 716.725 258.557 718.195 257.207C719.665 255.857 720.335 241.367 723.195 240.797C726.055 240.227 724.045 252.447 724.045 252.447C724.045 252.447 722.045 259.317 724.475 258.937C726.905 258.557 729.475 247.247 731.575 247.817C733.675 248.387 731.205 257.087 729.855 260.227C728.341 263.931 727.616 267.908 727.725 271.907C727.945 275.677 728.105 280.697 725.025 283.667L727.845 296.107L711.895 303.867Z" fill="#F3B2A7"/>
<path d="M682.005 547.537L691.335 552.017C691.335 552.017 701.685 796.107 693.995 831.017H650.335L639.185 589.177L635.905 833.177H589.795C589.795 833.177 573.855 571.947 595.795 539.047C617.735 506.147 682.005 547.537 682.005 547.537Z" fill="#024386"/>
<path d="M704.895 288.457L702.655 368.507C702.655 368.507 689.275 391.967 675.035 398.387C660.795 404.807 686.225 483.317 697.195 470.937C707.035 459.857 728.735 408.857 736.505 389.357C738.952 383.216 739.875 376.573 739.195 369.997L729.495 286.447L704.895 288.457Z" fill="#FFF9E2"/>
<path d="M618.385 349.337C618.385 349.337 613.925 363.407 616.955 371.517L617.955 369.957C617.955 369.957 617.465 376.597 620.595 379.527L621.475 377.677C621.475 377.677 623.475 384.097 624.785 386.077L625.385 384.707L627.875 391.537L638.575 388.047L641.105 378.377C641.105 378.377 635.745 362.207 635.105 361.687C634.465 361.167 618.385 349.337 618.385 349.337Z" fill="#221E1F"/>
<path d="M625.585 402.527C625.585 402.527 617.485 399.227 604.225 401.527C590.965 403.827 583.445 414.167 572.495 451.607C561.545 489.047 562.135 508.047 562.135 508.047L572.535 575.527L597.835 572.007V501.117L625.585 402.527Z" fill="#FFF9E2"/>
<path d="M668.515 349.337C668.515 349.337 672.965 363.407 669.935 371.517L668.935 369.957C668.935 369.957 669.425 376.597 666.295 379.527L665.415 377.677C665.415 377.677 663.415 384.097 662.105 386.077L661.505 384.707L659.015 391.537L648.315 388.047L645.775 378.377C645.775 378.377 651.145 362.207 651.775 361.687C652.405 361.167 668.515 349.337 668.515 349.337Z" fill="#221E1F"/>
<path d="M655.395 378.657L657.275 376.997L657.605 388.917C657.634 390.118 658.024 391.282 658.723 392.259C659.422 393.236 660.398 393.981 661.525 394.397C662.398 394.721 663.161 395.286 663.725 396.027C664.289 396.768 664.631 397.654 664.711 398.581C664.79 399.509 664.605 400.44 664.175 401.266C663.746 402.093 663.09 402.78 662.285 403.247C657.205 406.167 650.285 409.037 643.445 408.447C636.78 407.711 630.277 405.908 624.185 403.107C623.581 402.843 623.068 402.408 622.708 401.857C622.347 401.306 622.155 400.661 622.155 400.002C622.155 399.344 622.347 398.699 622.708 398.148C623.068 397.596 623.581 397.162 624.185 396.897C625.239 396.444 626.141 395.699 626.785 394.749C627.428 393.799 627.786 392.684 627.815 391.537L628.245 375.297L655.395 378.657Z" fill="#F3B2A7"/>
<path d="M657.604 400.207C657.604 400.207 607.865 390.507 597.785 414.977C587.705 439.447 594.165 508.167 594.165 508.167L590.895 558.547C590.895 558.547 601.695 549.187 624.245 558.547C646.795 567.907 688.385 588.827 696.425 563.547C705.585 534.817 697.585 486.917 696.425 423.917C696.245 412.577 696.464 392.297 657.604 400.207Z" fill="#FFF9E2"/>
<g style="mix-blend-mode:multiply">
<g style="mix-blend-mode:multiply">
<g style="mix-blend-mode:multiply">
<path d="M667.385 404.067C667.385 404.067 647.155 412.357 627.385 409.067C624.782 408.672 622.418 407.329 620.745 405.297C619.68 403.99 619.03 402.396 618.875 400.717C618.415 395.367 630.945 400.717 630.945 400.717L667.385 404.067Z" fill="#F9E4B9"/>
</g>
</g>
</g>
<path d="M663.015 391.73C656.185 389.392 654.345 395.155 633.165 391.559C628.715 390.805 621.745 389.846 619.245 394.128C618.015 396.217 618.825 401.587 616.735 402.64C613.515 404.267 623.475 405.569 626.835 405.98C638.082 407.367 649.498 407.428 660.765 406.16C663.515 405.826 672.895 405.303 670.995 403.222C664.725 396.38 668.975 393.768 663.015 391.73Z" fill="#FFF9E2"/>
<g style="mix-blend-mode:multiply">
<g style="mix-blend-mode:multiply">
<g style="mix-blend-mode:multiply">
<path d="M651.555 382.542L657.555 385.635C657.555 385.635 654.085 394.21 641.865 394.378C632.085 394.516 626.354 381.687 626.354 381.687L651.555 382.542Z" fill="#F9E4B9"/>
</g>
</g>
</g>
<path d="M663.395 355.867C663.395 355.867 665.044 351.587 668.474 352.197C673.394 353.077 674.524 367.297 664.724 367.297" fill="#F3B2A7"/>
<path d="M654.485 333.077C654.485 333.077 655.485 341.927 661.985 348.077C664.017 349.994 665.572 352.36 666.527 354.985C667.482 357.611 667.81 360.423 667.485 363.197L669.045 361.247C669.045 361.247 671.775 359.647 671.775 353.687C671.831 350.495 671.539 347.306 670.905 344.177C670.905 344.177 672.565 349.337 672.565 347.727C672.565 346.117 673.345 344.867 671.295 341.197C669.245 337.527 669.825 337.637 669.825 337.637L672.265 340.167C671.228 337.419 670.002 334.746 668.595 332.167C667.504 330.148 665.844 328.493 663.821 327.409C661.798 326.324 659.501 325.858 657.215 326.067C652.525 326.397 654.485 333.077 654.485 333.077Z" fill="#221E1F"/>
<g style="mix-blend-mode:multiply">
<g style="mix-blend-mode:multiply">
<g style="mix-blend-mode:multiply">
<path d="M706.455 385.647L702.795 368.707L699.465 373.657L706.455 385.647Z" fill="#F9E4B9"/>
</g>
</g>
</g>
<path d="M623.465 355.867C623.465 355.867 621.815 351.587 618.385 352.197C613.465 353.077 612.385 367.297 622.135 367.297" fill="#F3B2A7"/>
<g filter="url(#filter7_d_589_21)">
<path d="M667.215 351.567C665.625 336.957 657.335 324.567 640.105 326.197C613.605 328.707 615.605 373.037 629.985 386.477C638.705 394.627 653.045 393.327 659.175 384.997C665.305 376.667 668.485 363.327 667.215 351.567Z" fill="#F3B2A7"/>
</g>
<path d="M725.155 416.517L694.565 452.317L697.225 470.937C697.225 470.937 719.545 436.867 725.155 416.517Z" fill="#F9E4B9"/>
<path d="M633.675 332.937C633.637 335.8 632.941 338.616 631.64 341.167C630.34 343.718 628.47 345.935 626.175 347.647C621.175 351.407 619.835 361.647 619.835 361.647L619.105 360.527C619.105 360.527 616.375 358.947 616.375 353.107C616.318 349.977 616.614 346.851 617.255 343.787C617.255 343.787 615.595 348.837 615.595 347.267C615.595 345.697 614.805 344.467 616.865 340.867C618.925 337.267 618.325 337.367 618.325 337.367L615.895 339.867C616.93 337.162 618.16 334.535 619.575 332.007C620.682 330.011 622.347 328.38 624.366 327.314C626.386 326.249 628.672 325.795 630.945 326.007C635.625 326.387 633.675 332.937 633.675 332.937Z" fill="#221E1F"/>
<path d="M597.645 555.997L593.855 501.347L605.305 442.427L600.185 501.117L609.035 554.557L597.645 555.997Z" fill="#F9E4B9"/>
<g style="mix-blend-mode:multiply" opacity="0.55">
<g style="mix-blend-mode:multiply" opacity="0.55">
<g style="mix-blend-mode:multiply" opacity="0.55">
<path d="M647.805 578.227L650.195 594.677C654.315 622.677 665.414 627.617 661.964 627.617H654.964L654.625 635.177L656.974 646.177L642.385 671.867L641.645 654.287L639.185 595.507L647.805 578.227Z" fill="#024386"/>
</g>
</g>
</g>
<path d="M624.765 339.027C630.758 342.225 637.452 343.882 644.245 343.847C655.385 343.737 659.985 340.137 663.045 337.257C666.105 334.377 668.665 328.257 668.465 323.667C668.265 319.077 667.805 322.547 664.965 324.907C662.125 327.267 662.435 324.207 663.965 321.407C665.495 318.607 665.505 315.107 663.665 316.227C661.825 317.347 658.245 321.307 655.665 321.227C653.085 321.147 657.815 319.087 656.895 317.737C655.975 316.387 653.895 321.007 646.775 321.227C639.655 321.447 630.625 321.227 626.025 325.407C621.425 329.587 624.765 339.027 624.765 339.027Z" fill="#221E1F"/>
<path d="M226.834 71.5333C220.267 71.5333 214.232 70.0078 208.727 66.9568C203.288 63.9058 198.943 59.6609 195.693 54.2221C192.51 48.717 190.918 42.5486 190.918 35.7169C190.918 28.8853 192.51 22.7501 195.693 17.3113C198.943 11.8725 203.288 7.6276 208.727 4.5766C214.232 1.5255 220.267 0 226.834 0C233.4 0 239.403 1.5255 244.842 4.5766C250.347 7.6276 254.658 11.8725 257.775 17.3113C260.959 22.7501 262.551 28.8853 262.551 35.7169C262.551 42.5486 260.959 48.717 257.775 54.2221C254.592 59.6609 250.28 63.9058 244.842 66.9568C239.403 70.0078 233.4 71.5333 226.834 71.5333ZM226.834 56.0129C232.405 56.0129 236.849 54.1558 240.165 50.4415C243.548 46.7272 245.239 41.819 245.239 35.7169C245.239 29.5486 243.548 24.6404 240.165 20.9924C236.849 17.2781 232.405 15.421 226.834 15.421C221.196 15.421 216.686 17.245 213.303 20.8929C209.987 24.5409 208.329 29.4822 208.329 35.7169C208.329 41.8853 209.987 46.8267 213.303 50.541C216.686 54.1889 221.196 56.0129 226.834 56.0129ZM368.123 0.9949L349.916 70.8369H329.322L318.179 24.8725L306.638 70.8369H286.044L268.334 0.9949H286.541L296.59 51.8343L309.026 0.9949H327.73L339.669 51.8343L349.817 0.9949H368.123ZM420.132 58.5002H394.066L389.887 70.8369H372.078L397.349 0.9949H417.048L442.318 70.8369H424.311L420.132 58.5002ZM415.754 45.3675L407.099 19.7985L398.543 45.3675H415.754ZM495.476 0.9949V14.6251H467.022V29.3496H488.313V42.5818H467.022V70.8369H450.009V0.9949H495.476ZM529.688 71.5333C524.581 71.5333 520.005 70.7043 515.959 69.0461C511.913 67.3879 508.663 64.9338 506.209 61.6838C503.821 58.4338 502.561 54.5206 502.428 49.944H520.535C520.801 52.5308 521.696 54.5206 523.222 55.9134C524.747 57.2399 526.737 57.9032 529.191 57.9032C531.711 57.9032 533.701 57.3394 535.16 56.2119C536.619 55.018 537.349 53.393 537.349 51.3369C537.349 49.6124 536.752 48.1864 535.558 47.0588C534.431 45.9313 533.005 45.0027 531.28 44.2731C529.622 43.5435 527.234 42.7144 524.117 41.7858C519.607 40.393 515.926 39.0001 513.074 37.6073C510.221 36.2144 507.767 34.1583 505.711 31.4389C503.655 28.7195 502.627 25.171 502.627 20.7934C502.627 14.2934 504.982 9.2194 509.691 5.5715C514.4 1.8572 520.535 0 528.097 0C535.79 0 541.992 1.8572 546.701 5.5715C551.41 9.2194 553.931 14.3266 554.262 20.8929H535.857C535.724 18.6378 534.895 16.8802 533.369 15.62C531.844 14.2934 529.887 13.6302 527.5 13.6302C525.443 13.6302 523.785 14.1939 522.525 15.3215C521.265 16.3827 520.635 17.9414 520.635 19.9975C520.635 22.2526 521.696 24.0103 523.818 25.2705C525.941 26.5307 529.257 27.8904 533.767 29.3496C538.278 30.8751 541.926 32.3343 544.711 33.7271C547.563 35.12 550.017 37.143 552.074 39.796C554.13 42.4491 555.158 45.8649 555.158 50.0435C555.158 54.0231 554.13 57.6379 552.074 60.8879C550.084 64.1379 547.165 66.7247 543.318 68.6481C539.472 70.5716 534.928 71.5333 529.688 71.5333Z" fill="white"/>
<path d="M540.375 77.3269H206.715C201.661 77.3269 197.565 81.4239 197.565 86.4769V125.577C197.565 130.631 201.661 134.727 206.715 134.727H540.375C545.428 134.727 549.525 130.631 549.525 125.577V86.4769C549.525 81.4239 545.428 77.3269 540.375 77.3269Z" fill="#FFD31A"/>
<path d="M220.063 88.6519V123.327H215.536V88.6519H220.063ZM263.002 123.327H258.474L240.266 95.7159V123.327H235.739V88.6019H240.266L258.474 116.163V88.6019H263.002V123.327ZM289.475 88.6519C293.256 88.6519 296.523 89.3649 299.276 90.7909C302.062 92.1839 304.184 94.1899 305.644 96.8109C307.136 99.4309 307.882 102.515 307.882 106.064C307.882 109.613 307.136 112.697 305.644 115.318C304.184 117.905 302.062 119.895 299.276 121.288C296.523 122.647 293.256 123.327 289.475 123.327H278.679V88.6519H289.475ZM289.475 119.596C293.952 119.596 297.369 118.419 299.723 116.064C302.078 113.676 303.256 110.343 303.256 106.064C303.256 101.752 302.062 98.3859 299.674 95.9649C297.319 93.5439 293.919 92.3329 289.475 92.3329H283.206V119.596H289.475ZM337.535 123.676C334.318 123.676 331.383 122.929 328.729 121.437C326.076 119.911 323.97 117.805 322.411 115.119C320.885 112.399 320.123 109.348 320.123 105.965C320.123 102.582 320.885 99.5469 322.411 96.8599C323.97 94.1409 326.076 92.0349 328.729 90.5419C331.383 89.0159 334.318 88.2539 337.535 88.2539C340.785 88.2539 343.737 89.0159 346.391 90.5419C349.044 92.0349 351.133 94.1239 352.659 96.8109C354.185 99.4969 354.948 102.548 354.948 105.965C354.948 109.381 354.185 112.432 352.659 115.119C351.133 117.805 349.044 119.911 346.391 121.437C343.737 122.929 340.785 123.676 337.535 123.676ZM337.535 119.745C339.956 119.745 342.129 119.181 344.052 118.054C346.009 116.926 347.535 115.318 348.629 113.228C349.757 111.139 350.321 108.717 350.321 105.965C350.321 103.179 349.757 100.757 348.629 98.7009C347.535 96.6119 346.026 95.0029 344.102 93.8749C342.178 92.7479 339.989 92.1839 337.535 92.1839C335.081 92.1839 332.892 92.7479 330.968 93.8749C329.044 95.0029 327.519 96.6119 326.391 98.7009C325.297 100.757 324.749 103.179 324.749 105.965C324.749 108.717 325.297 111.139 326.391 113.228C327.519 115.318 329.044 116.926 330.968 118.054C332.925 119.181 335.114 119.745 337.535 119.745ZM396.147 123.327H391.62L373.411 95.7159V123.327H368.884V88.6019H373.411L391.62 116.163V88.6019H396.147V123.327ZM416.352 92.3329V103.925H428.988V107.656H416.352V119.596H430.481V123.327H411.825V88.6019H430.481V92.3329H416.352ZM456.286 123.676C453.997 123.676 451.941 123.278 450.117 122.482C448.326 121.652 446.916 120.525 445.888 119.099C444.86 117.639 444.329 115.964 444.296 114.074H449.122C449.288 115.699 449.951 117.075 451.112 118.203C452.306 119.298 454.031 119.845 456.286 119.845C458.442 119.845 460.133 119.314 461.36 118.253C462.621 117.158 463.251 115.765 463.251 114.074C463.251 112.747 462.886 111.669 462.156 110.84C461.427 110.011 460.515 109.381 459.42 108.95C458.326 108.518 456.85 108.054 454.992 107.557C452.704 106.96 450.863 106.363 449.47 105.766C448.11 105.169 446.933 104.24 445.938 102.98C444.976 101.686 444.495 99.9609 444.495 97.8059C444.495 95.9149 444.976 94.2399 445.938 92.7809C446.9 91.3209 448.243 90.1939 449.968 89.3979C451.726 88.6019 453.732 88.2039 455.987 88.2039C459.238 88.2039 461.891 89.0159 463.947 90.6419C466.037 92.2669 467.214 94.4229 467.48 97.1089H462.505C462.339 95.7819 461.642 94.6219 460.415 93.6269C459.188 92.5979 457.563 92.0839 455.54 92.0839C453.649 92.0839 452.107 92.5819 450.913 93.5769C449.719 94.5389 449.122 95.8979 449.122 97.6559C449.122 98.9169 449.47 99.9449 450.167 100.741C450.896 101.537 451.775 102.15 452.803 102.582C453.865 102.98 455.341 103.444 457.231 103.975C459.52 104.605 461.36 105.235 462.753 105.865C464.146 106.462 465.34 107.407 466.335 108.701C467.33 109.961 467.828 111.686 467.828 113.875C467.828 115.566 467.38 117.158 466.485 118.651C465.589 120.143 464.263 121.354 462.505 122.283C460.747 123.211 458.674 123.676 456.286 123.676ZM486.977 88.6519V123.327H482.45V88.6519H486.977ZM523.15 115.616H508.026L505.24 123.327H500.464L513.001 88.8509H518.225L530.712 123.327H525.936L523.15 115.616ZM521.857 111.935L515.588 94.4229L509.32 111.935H521.857Z" fill="black"/>
<defs>
<filter id="filter0_i_589_21" x="239.5" y="538.84" width="35.4399" height="27.45" filterUnits="userSpaceOnUse" color-interpolation-filters="sRGB">
<feFlood flood-opacity="0" result="BackgroundImageFix"/>
<feBlend mode="normal" in="SourceGraphic" in2="BackgroundImageFix" result="shape"/>
<feColorMatrix in="SourceAlpha" type="matrix" values="0 0 0 0 0 0 0 0 0 0 0 0 0 0 0 0 0 0 127 0" result="hardAlpha"/>
<feOffset dy="4"/>
<feGaussianBlur stdDeviation="2"/>
<feComposite in2="hardAlpha" operator="arithmetic" k2="-1" k3="1"/>
<feColorMatrix type="matrix" values="0 0 0 0 0 0 0 0 0 0 0 0 0 0 0 0 0 0 0.25 0"/>
<feBlend mode="normal" in2="shape" result="effect1_innerShadow_589_21"/>
</filter>
<filter id="filter1_d_589_21" x="266.68" y="398.183" width="59.949" height="74.3818" filterUnits="userSpaceOnUse" color-interpolation-filters="sRGB">
<feFlood flood-opacity="0" result="BackgroundImageFix"/>
<feColorMatrix in="SourceAlpha" type="matrix" values="0 0 0 0 0 0 0 0 0 0 0 0 0 0 0 0 0 0 127 0" result="hardAlpha"/>
<feOffset dy="4"/>
<feGaussianBlur stdDeviation="2"/>
<feComposite in2="hardAlpha" operator="out"/>
<feColorMatrix type="matrix" values="0 0 0 0 0 0 0 0 0 0 0 0 0 0 0 0 0 0 0.25 0"/>
<feBlend mode="normal" in2="BackgroundImageFix" result="effect1_dropShadow_589_21"/>
<feBlend mode="normal" in="SourceGraphic" in2="effect1_dropShadow_589_21" result="shape"/>
</filter>
<filter id="filter2_d_589_21" x="207.705" y="526.967" width="98.73" height="62.1057" filterUnits="userSpaceOnUse" color-interpolation-filters="sRGB">
<feFlood flood-opacity="0" result="BackgroundImageFix"/>
<feColorMatrix in="SourceAlpha" type="matrix" values="0 0 0 0 0 0 0 0 0 0 0 0 0 0 0 0 0 0 127 0" result="hardAlpha"/>
<feOffset dy="4"/>
<feGaussianBlur stdDeviation="2"/>
<feComposite in2="hardAlpha" operator="out"/>
<feColorMatrix type="matrix" values="0 0 0 0 0 0 0 0 0 0 0 0 0 0 0 0 0 0 0.25 0"/>
<feBlend mode="normal" in2="BackgroundImageFix" result="effect1_dropShadow_589_21"/>
<feBlend mode="normal" in="SourceGraphic" in2="effect1_dropShadow_589_21" result="shape"/>
</filter>
<filter id="filter3_d_589_21" x="175" y="489.84" width="91" height="59" filterUnits="userSpaceOnUse" color-interpolation-filters="sRGB">
<feFlood flood-opacity="0" result="BackgroundImageFix"/>
<feColorMatrix in="SourceAlpha" type="matrix" values="0 0 0 0 0 0 0 0 0 0 0 0 0 0 0 0 0 0 127 0" result="hardAlpha"/>
<feOffset dy="2"/>
<feGaussianBlur stdDeviation="2"/>
<feComposite in2="hardAlpha" operator="out"/>
<feColorMatrix type="matrix" values="0 0 0 0 0 0 0 0 0 0 0 0 0 0 0 0 0 0 0.25 0"/>
<feBlend mode="normal" in2="BackgroundImageFix" result="effect1_dropShadow_589_21"/>
<feBlend mode="normal" in="SourceGraphic" in2="effect1_dropShadow_589_21" result="shape"/>
</filter>
<filter id="filter4_d_589_21" x="187.684" y="499.549" width="28.6711" height="28.2275" filterUnits="userSpaceOnUse" color-interpolation-filters="sRGB">
<feFlood flood-opacity="0" result="BackgroundImageFix"/>
<feColorMatrix in="SourceAlpha" type="matrix" values="0 0 0 0 0 0 0 0 0 0 0 0 0 0 0 0 0 0 127 0" result="hardAlpha"/>
<feOffset dx="-2" dy="4"/>
<feGaussianBlur stdDeviation="2"/>
<feComposite in2="hardAlpha" operator="out"/>
<feColorMatrix type="matrix" values="0 0 0 0 0 0 0 0 0 0 0 0 0 0 0 0 0 0 0.2 0"/>
<feBlend mode="normal" in2="BackgroundImageFix" result="effect1_dropShadow_589_21"/>
<feBlend mode="normal" in="SourceGraphic" in2="effect1_dropShadow_589_21" result="shape"/>
</filter>
<filter id="filter5_d_589_21" x="346.065" y="302.327" width="54.5701" height="69.1899" filterUnits="userSpaceOnUse" color-interpolation-filters="sRGB">
<feFlood flood-opacity="0" result="BackgroundImageFix"/>
<feColorMatrix in="SourceAlpha" type="matrix" values="0 0 0 0 0 0 0 0 0 0 0 0 0 0 0 0 0 0 127 0" result="hardAlpha"/>
<feOffset dy="4"/>
<feGaussianBlur stdDeviation="2"/>
<feComposite in2="hardAlpha" operator="out"/>
<feColorMatrix type="matrix" values="0 0 0 0 0 0 0 0 0 0 0 0 0 0 0 0 0 0 0.25 0"/>
<feBlend mode="normal" in2="BackgroundImageFix" result="effect1_dropShadow_589_21"/>
<feBlend mode="normal" in="SourceGraphic" in2="effect1_dropShadow_589_21" result="shape"/>
</filter>
<filter id="filter6_d_589_21" x="442.408" y="336.427" width="54.7407" height="70.1045" filterUnits="userSpaceOnUse" color-interpolation-filters="sRGB">
<feFlood flood-opacity="0" result="BackgroundImageFix"/>
<feColorMatrix in="SourceAlpha" type="matrix" values="0 0 0 0 0 0 0 0 0 0 0 0 0 0 0 0 0 0 127 0" result="hardAlpha"/>
<feOffset dy="4"/>
<feGaussianBlur stdDeviation="2"/>
<feColorMatrix type="matrix" values="0 0 0 0 0 0 0 0 0 0 0 0 0 0 0 0 0 0 0.06 0"/>
<feBlend mode="normal" in2="BackgroundImageFix" result="effect1_dropShadow_589_21"/>
<feBlend mode="normal" in="SourceGraphic" in2="effect1_dropShadow_589_21" result="shape"/>
</filter>
<filter id="filter7_d_589_21" x="615.562" y="326.052" width="55.9297" height="73.9084" filterUnits="userSpaceOnUse" color-interpolation-filters="sRGB">
<feFlood flood-opacity="0" result="BackgroundImageFix"/>
<feColorMatrix in="SourceAlpha" type="matrix" values="0 0 0 0 0 0 0 0 0 0 0 0 0 0 0 0 0 0 127 0" result="hardAlpha"/>
<feOffset dy="4"/>
<feGaussianBlur stdDeviation="2"/>
<feColorMatrix type="matrix" values="0 0 0 0 0 0 0 0 0 0 0 0 0 0 0 0 0 0 0.29 0"/>
<feBlend mode="normal" in2="BackgroundImageFix" result="effect1_dropShadow_589_21"/>
<feBlend mode="normal" in="SourceGraphic" in2="effect1_dropShadow_589_21" result="shape"/>
</filter>
</defs>
</svg>
