<svg xmlns="http://www.w3.org/2000/svg" viewBox="0 0 1254.28 277.49"><defs><style>.cls-1{font-size:94.48px;font-family:Poppins-Bold, Poppins;font-weight:700;}.cls-1,.cls-4{fill:#fff;}.cls-2{fill:#ffd31a;}.cls-3{font-size:47.24px;font-family:Poppins-Regular, Poppins;letter-spacing:0.35em;}</style></defs><g id="Layer_2" data-name="Layer 2"><g id="Layer_1-2" data-name="Layer 1"><text class="cls-1" transform="translate(393.43 137.36)">OWAF’S CREATIVE</text><rect class="cls-2" x="400.7" y="146.81" width="849.49" height="62.98" rx="10"/><text class="cls-3" transform="translate(422.27 193.65)">PROFESSIONAL DESIGN</text><polygon class="cls-4" points="320.42 138.74 295.87 181.26 275.5 145.96 275.41 145.82 279.5 138.74 272.2 126.1 257.1 99.94 242.78 75.13 227.67 48.97 219.85 35.44 211.69 35.44 191.23 0 240.31 0 260.77 35.44 268.59 48.97 277.56 64.5 283.69 75.13 292.66 90.66 300.04 103.45 320.42 138.74"/><polygon class="cls-2" points="196.93 35.44 59.65 35.44 65.73 24.89 80.11 0 176.47 0 178.94 4.28 196.93 35.44"/><polygon class="cls-2" points="288.49 194.04 281.17 206.73 275.88 215.89 260.77 242.05 240.31 277.49 199.55 277.49 205.56 267.09 220.01 242.05 235.12 215.89 250.23 189.73 260.79 171.43 268.12 158.75 286 189.73 288.49 194.04"/><polygon class="cls-4" points="253.4 158.65 235.46 189.73 220.36 215.89 145.83 215.89 130.72 189.73 101.3 138.76 86.19 112.59 101.28 86.46 107.82 75.13 122.92 48.97 190.09 48.97 205.19 75.13 138.03 75.13 116.39 112.62 160.9 189.73 205.26 189.73 238.31 132.49 253.4 158.65"/><polygon class="cls-2" points="205.25 242.05 198.18 254.3 198.18 254.3 184.79 277.49 80.11 277.49 59.65 242.05 50.65 226.47 44.54 215.89 35.54 200.31 29.44 189.73 0 138.74 20.46 103.31 35.54 77.19 35.56 77.14 36.73 75.13 50.63 51.05 50.64 51.03 51.83 48.97 92.75 48.97 86.19 60.33 77.64 75.13 71.1 86.47 71.09 86.49 56.02 112.58 56 112.63 40.92 138.74 56 164.87 56 164.88 70.36 189.73 71.11 191.04 85.46 215.89 100.56 242.05 205.25 242.05"/></g></g></svg>